<?xml version="1.0" encoding="UTF-8" standalone="no"?>
<!-- Uploaded to: SVG Repo, www.svgrepo.com, Generator: SVG Repo Mixer Tools -->

<svg
   fill="#5b2d90"
   width="50.000153"
   height="45.188179"
   viewBox="0 0 1.5000046 1.3556454"
   role="img"
   version="1.1"
   id="svg4"
   sodipodi:docname="blazor.svg"
   inkscape:version="1.1.2 (0a00cf5339, 2022-02-04)"
   xmlns:inkscape="http://www.inkscape.org/namespaces/inkscape"
   xmlns:sodipodi="http://sodipodi.sourceforge.net/DTD/sodipodi-0.dtd"
   xmlns="http://www.w3.org/2000/svg"
   xmlns:svg="http://www.w3.org/2000/svg">
  <defs
     id="defs8" />
  <sodipodi:namedview
     id="namedview6"
     pagecolor="#ffffff"
     bordercolor="#666666"
     borderopacity="1.0"
     inkscape:pageshadow="2"
     inkscape:pageopacity="0.0"
     inkscape:pagecheckerboard="0"
     showgrid="false"
     inkscape:zoom="7.78"
     inkscape:cx="21.979434"
     inkscape:cy="2.18509"
     inkscape:window-width="1920"
     inkscape:window-height="1050"
     inkscape:window-x="1920"
     inkscape:window-y="0"
     inkscape:window-maximized="1"
     inkscape:current-layer="svg4" />
  <path
     d="M 1.4896275,0.4341313 A 0.86950104,0.86950104 0 0 1 0.63693894,1.1666322 0.63156325,0.63156325 0 0 1 0.51231379,1.1591321 0.38193796,0.38193796 0 0 1 0.19468841,0.7990692 0.37087544,0.37087544 0 0 1 0.93637679,0.7938192 c 0.001563,0.061438 -0.0250625,0.1153752 -0.0798126,0.1169377 -0.0585001,0 -0.0858751,-0.04175 -0.0858751,-0.097938 V 0.656569 A 0.09568761,0.09568761 0 0 0 0.67568898,0.5607564 H 0.54468883 a 0.22800027,0.22800027 0 1 0 0.1684377,0.3800005 l 0.004562,-0.00687 0.004625,0.00756 a 0.16125019,0.16125019 0 0 0 0.13750016,0.0655 A 0.18181272,0.18181272 0 0 0 1.0282519,0.8169442 0.49450059,0.49450059 0 0 0 1.0146894,0.6961316 0.46275055,0.46275055 0 0 0 0.0996883,0.7963192 0.46856306,0.46856306 0 0 0 0.55643884,1.2591323 c 0,0 0.0343125,0.00313 0.0729376,0.00219 A 0.98768868,0.98768868 0 0 0 1.1590646,1.1033196 c 0.00225,-0.00156 0.0045,0.00156 0.003,0.00381 A 0.77750093,0.77750093 0 0 1 0.55643884,1.3548199 0.54650065,0.54650065 0 0 1 1.8818193e-4,0.7940692 0.56556317,0.56556317 0 0 1 0.22737595,0.3411312 0.55393816,0.55393816 0 0 1 0.55418884,0.233256 h 0.17581271 a 0.49468809,0.49468809 0 0 0 0.36493795,-0.1611251 0.00687501,0.00687501 0 0 1 0.00369,-0.00212 0.00700001,0.00700001 0 0 1 0.0075,0.00331 0.00706251,0.00706251 0 0 1 9.375e-4,0.00419 0.49587559,0.49587559 0 0 1 -0.076688,0.2218127 0.00668751,0.00668751 0 0 0 -8.75e-4,0.00375 0.00687501,0.00687501 0 0 0 0.00456,0.00594 0.00681251,0.00681251 0 0 0 0.00388,2.5e-4 0.53156313,0.53156313 0 0 0 0.369563,-0.3047503 0.00968751,0.00968751 0 0 1 0.00344,-0.00331 0.00937501,0.00937501 0 0 1 0.00919,0 0.00956251,0.00956251 0 0 1 0.00337,0.00331 0.6736883,0.6736883 0 0 1 0.066125,0.429563 z M 0.55593884,0.654569 A 0.13675016,0.13675016 0 1 0 0.692689,0.7913192 V 0.6636941 a 0.00987501,0.00987501 0 0 0 -0.009375,-0.00938 z"
     id="path2"
     style="stroke-width:0.0625001" />
</svg>
