<?xml version="1.0" encoding="UTF-8" standalone="no"?>
<!-- Uploaded to: SVG Repo, www.svgrepo.com, Generator: SVG Repo Mixer Tools -->

<svg
   width="68.67086"
   height="30"
   viewBox="0 -144 43.949351 19.2"
   version="1.1"
   preserveAspectRatio="xMidYMid"
   id="svg6"
   sodipodi:docname="opengl.svg"
   inkscape:version="1.1.2 (0a00cf5339, 2022-02-04)"
   xmlns:inkscape="http://www.inkscape.org/namespaces/inkscape"
   xmlns:sodipodi="http://sodipodi.sourceforge.net/DTD/sodipodi-0.dtd"
   xmlns="http://www.w3.org/2000/svg"
   xmlns:svg="http://www.w3.org/2000/svg">
  <defs
     id="defs10" />
  <sodipodi:namedview
     id="namedview8"
     pagecolor="#ffffff"
     bordercolor="#666666"
     borderopacity="1.0"
     inkscape:pageshadow="2"
     inkscape:pageopacity="0.0"
     inkscape:pagecheckerboard="0"
     showgrid="false"
     inkscape:zoom="0.9725"
     inkscape:cx="400"
     inkscape:cy="174.29306"
     inkscape:window-width="1920"
     inkscape:window-height="1019"
     inkscape:window-x="1920"
     inkscape:window-y="31"
     inkscape:window-maximized="1"
     inkscape:current-layer="svg6" />
  <g
     id="g4"
     transform="matrix(0.08583858,0,0,0.08583858,6.467952e-8,-144)">
    <path
       d="m 83.962837,67.071216 c 0.203742,-0.09956 0.408705,-0.197922 0.614887,-0.295086 5.698261,-2.686096 12.333972,-4.031629 19.905146,-4.031629 7.56819,0 14.20439,1.34603 19.90216,4.031629 5.69776,2.685102 10.46404,6.284788 14.29188,10.791604 3.82783,4.506816 6.70182,9.688137 8.61549,15.538001 1.91416,5.849366 2.87398,11.938315 2.87398,18.266345 0,6.32803 -0.95982,12.41947 -2.87398,18.26883 -1.91367,5.84987 -4.78766,11.03069 -8.61549,15.5385 -3.82784,4.50632 -8.59412,8.08414 -14.29188,10.72699 -5.69777,2.63987 -12.33397,3.96452 -19.90216,3.96452 -7.570677,0 -14.206885,-1.32416 -19.905146,-3.96452 -1.193713,-0.55369 -2.346541,-1.14842 -3.45842,-1.78413 29.692416,26.9202 86.857416,45.14589 152.503436,45.14589 53.39784,0 101.25598,-10.809 133.20928,-29.79907 -34.96895,31.79326 -97.34363,54.21848 -168.56245,54.20655 C 88.75847,223.66073 -0.00944408,173.5718 0,111.80701 0.00944408,50.041216 88.793761,-0.01739246 198.30436,4.5331417e-6 269.8075,0.01093979 332.34472,22.507738 367.22321,54.52467 335.26891,35.415811 287.21642,24.406496 233.62274,24.406496 c -63.60854,0 -119.25435,17.111889 -149.659894,42.664712 z M 73.31988,125.26632 c 1.249105,4.55552 3.210491,8.65475 5.886149,12.29768 2.67367,3.64442 6.105848,6.57259 10.298027,8.78648 4.188699,2.2129 9.180642,3.31686 14.978814,3.31686 5.79568,0 10.78713,-1.10396 14.97931,-3.31686 4.1887,-2.21389 7.62137,-5.14206 10.29753,-8.78648 2.67317,-3.64293 4.63406,-7.74216 5.88266,-12.29768 1.24861,-4.55603 1.87341,-9.17617 1.87341,-13.86094 0,-4.68476 -0.6248,-9.30142 -1.87341,-13.857447 -1.2486,-4.556024 -3.20999,-8.654756 -5.88266,-12.300669 -2.67666,-3.642433 -6.10883,-6.570099 -10.29753,-8.783494 -4.19218,-2.213394 -9.18413,-3.32034 -14.97931,-3.32034 -5.798172,0 -10.789618,1.106946 -14.978814,3.32034 -4.192179,2.213892 -7.624357,5.141558 -10.298027,8.783494 -2.676155,3.645913 -4.637044,7.744645 -5.886149,12.300669 -1.248607,4.555527 -1.869928,9.172687 -1.869928,13.857447 0,4.68477 0.621321,9.30491 1.869928,13.86094 z m 95.66508,-26.611441 v 8.020011 h 0.20081 c 1.6383,-3.28356 4.21405,-5.67191 7.72824,-7.162091 3.51419,-1.489679 7.37633,-2.234768 11.59336,-2.234768 4.68178,0 8.76063,0.840027 12.23655,2.520079 3.47343,1.68005 6.35984,3.94912 8.6632,6.80918 2.30287,2.86355 4.03809,6.16252 5.21164,9.90038 1.17057,3.73936 1.7571,7.70737 1.7571,11.90402 0,4.19715 -0.56814,8.16466 -1.69795,11.90501 -1.13279,3.73936 -2.84863,7.00204 -5.15199,9.78606 -2.30287,2.78402 -5.19276,4.97902 -8.66619,6.57905 -3.47691,1.60102 -7.51451,2.40327 -12.12073,2.40327 -1.48422,0 -3.14389,-0.1526 -4.97654,-0.4568 -1.83513,-0.30867 -3.64889,-0.80225 -5.44377,-1.48918 -1.79437,-0.68693 -3.4953,-1.62587 -5.09533,-2.80837 -1.60002,-1.1835 -2.94606,-2.6518 -4.03809,-4.41188 h -0.20081 v 30.55459 H 158.94391 V 98.654879 Z m 35.63749,21.043901 c -0.74061,-2.63043 -1.86645,-4.97604 -3.38496,-7.03634 -1.519,-2.0598 -3.46697,-3.70009 -5.8424,-4.91987 -2.37842,-1.22027 -5.16095,-1.83066 -8.35205,-1.83066 -3.35116,0 -6.19333,0.65015 -8.52801,1.94697 -2.33766,1.29682 -4.24487,2.99229 -5.7261,5.08937 -1.48073,2.09708 -2.55089,4.48246 -3.21297,7.15315 -0.66208,2.66969 -0.99163,5.37716 -0.99163,8.12091 0,2.90033 0.34794,5.70323 1.05127,8.40971 0.69936,2.71095 1.81029,5.09235 3.32929,7.15315 1.51801,2.0603 3.48238,3.71898 5.89858,4.97653 2.41569,1.25905 5.33739,1.88782 8.76311,1.88782 3.42622,0 6.28777,-0.64667 8.58467,-1.94349 2.2969,-1.29682 4.14844,-3.01316 5.55064,-5.1505 1.39971,-2.13387 2.41271,-4.57392 3.03702,-7.32116 0.62132,-2.74723 0.93496,-5.56803 0.93496,-8.46786 -9.9e-4,-2.74574 -0.3713,-5.43432 -1.11142,-8.06773 z m 62.9637,34.35558 c -4.53763,3.35414 -10.24434,5.03072 -17.12908,5.03072 -4.85078,0 -9.05837,-0.76249 -12.6163,-2.28646 -3.56141,-1.52647 -6.55419,-3.66381 -8.97983,-6.41105 -2.42514,-2.74673 -4.24487,-6.02681 -5.4562,-9.84371 -1.21083,-3.81491 -1.89478,-7.97528 -2.05185,-12.47563 0,-4.50086 0.70284,-8.62096 2.11448,-12.36181 1.40866,-3.73986 3.38546,-6.98365 5.93039,-9.73089 2.54443,-2.74723 5.55958,-4.8806 9.04246,-6.407557 3.48288,-1.526462 7.30127,-2.289942 11.45269,-2.289942 5.40301,0 9.88348,1.09104 13.44738,3.268149 3.56489,2.1796 6.42297,4.95119 8.57523,8.31477 2.15275,3.36607 3.64293,7.03584 4.46506,11.00882 0.82213,3.97645 1.15466,7.76005 0.99809,11.35328 h -45.38279 c -0.0785,2.59066 0.23212,5.04662 0.93496,7.37036 0.70284,2.32374 1.83265,4.38106 3.3949,6.17195 1.56275,1.78991 3.55197,3.21546 5.97413,4.28215 2.41917,1.06718 5.2683,1.60052 8.54689,1.60052 4.21355,0 7.6686,-0.95286 10.36066,-2.86354 2.69206,-1.91019 4.46755,-4.81301 5.32745,-8.71291 h 9.85217 c -1.33062,6.63471 -4.26375,11.62864 -8.80089,14.98278 z m -2.4326,-37.97664 c -0.89619,-2.05434 -2.10454,-3.82634 -3.62305,-5.31006 -1.52198,-1.48371 -3.31636,-2.66422 -5.38163,-3.54103 -2.06776,-0.87681 -4.34875,-1.31522 -6.84299,-1.31522 -2.57276,0 -4.89452,0.43841 -6.95929,1.31522 -2.06776,0.87681 -3.84026,2.07571 -5.32149,3.5962 -1.48123,1.52348 -2.6513,3.29599 -3.50823,5.31305 -0.85941,2.01755 -1.36492,4.16931 -1.52149,6.45329 h 34.7408 c -0.15756,-2.28398 -0.68445,-4.45463 -1.58263,-6.51145 z m 28.31784,-17.422841 v 9.396861 h 0.18838 c 4.15987,-7.18048 10.7588,-10.773709 19.79182,-10.773709 4.00379,0 7.34103,0.536325 10.0147,1.606488 2.66969,1.070164 4.82891,2.559841 6.47914,4.470531 1.65023,1.90969 2.80837,4.18174 3.47641,6.81813 0.66506,2.63689 1.00108,5.55909 1.00108,8.76858 v 38.96678 h -10.04006 v -40.08615 c 0,-3.66381 -1.09899,-6.56413 -3.29201,-8.70396 -2.19599,-2.13735 -5.21114,-3.20751 -9.04892,-3.20751 -3.05491,0 -5.70075,0.46027 -7.93452,1.37684 -2.23377,0.91708 -4.09475,2.2134 -5.58195,3.89345 -1.4862,1.68005 -2.60358,3.64542 -3.34718,5.89559 -0.74658,2.25316 -1.11738,4.71509 -1.11738,7.38876 v 33.44149 H 284.02084 V 98.654879 Z m 110.35907,58.609481 c -4.53366,1.86744 -9.11205,2.8029 -13.7302,2.8029 -7.29183,0 -13.84652,-1.24264 -19.66954,-3.71948 -5.82402,-2.47981 -10.73345,-5.89509 -14.73426,-10.24881 -4.00081,-4.35025 -7.06666,-9.46397 -9.20053,-15.33819 -2.13287,-5.87372 -3.19955,-12.20821 -3.19955,-18.99602 0,-6.9593 1.0642,-13.42253 3.1911,-19.385225 2.1279,-5.96021 5.18629,-11.159427 9.17717,-15.599139 3.99186,-4.439713 8.89582,-7.919112 14.71537,-10.445653 5.82004,-2.523061 12.37473,-3.786083 19.66655,-3.786083 4.88806,0 9.62004,0.720236 14.19694,2.158719 4.5784,1.440471 8.71093,3.555945 12.40108,6.345926 3.68916,2.789981 6.73264,6.229615 9.13243,10.316418 2.40078,4.089784 3.86959,8.780511 4.40243,14.078144 h -19.99859 c -1.24562,-5.20866 -3.64641,-9.118013 -7.20136,-11.723585 -3.55794,-2.60607 -7.86841,-3.908856 -12.93342,-3.908856 -4.7121,0 -8.71292,0.89172 -12.00095,2.676154 -3.28803,1.784435 -5.95573,4.179255 -8.00162,7.180485 -2.04539,3.004213 -3.53258,6.419491 -4.46357,10.248818 -0.93596,3.829327 -1.39971,7.787397 -1.39971,11.877177 0,3.9183 0.46673,7.72576 1.4017,11.42336 0.93595,3.69711 2.42613,7.0264 4.47152,9.98538 2.04539,2.95799 4.71608,5.32795 8.01007,7.11239 3.29201,1.78443 7.29779,2.67665 12.01785,2.67665 6.9404,0 12.29918,-1.70988 16.08228,-5.13211 3.78409,-3.42125 5.98705,-8.38187 6.61135,-14.88139 h -21.06577 v -15.30488 h 39.94201 v 50.30167 h -13.29031 l -2.1279,-10.55252 c -3.7334,4.69023 -7.86891,7.9708 -12.40257,9.83775 z M 465.59774,64.902722 V 140.64128 H 512 v 17.26627 H 444.7134 V 64.902722 Z"
       fill="#5586a4"
       fill-rule="nonzero"
       id="path2" />
  </g>
</svg>
