<?xml version="1.0" encoding="UTF-8" standalone="no"?>
<!-- Uploaded to: SVG Repo, www.svgrepo.com, Generator: SVG Repo Mixer Tools -->

<svg
   width="800px"
   height="800px"
   viewBox="0 0 512 512"
   version="1.1"
   id="svg4"
   sodipodi:docname="raytracing.svg"
   inkscape:version="1.1.2 (0a00cf5339, 2022-02-04)"
   xmlns:inkscape="http://www.inkscape.org/namespaces/inkscape"
   xmlns:sodipodi="http://sodipodi.sourceforge.net/DTD/sodipodi-0.dtd"
   xmlns="http://www.w3.org/2000/svg"
   xmlns:svg="http://www.w3.org/2000/svg">
  <defs
     id="defs8" />
  <sodipodi:namedview
     id="namedview6"
     pagecolor="#ffffff"
     bordercolor="#666666"
     borderopacity="1.0"
     inkscape:pageshadow="2"
     inkscape:pageopacity="0.0"
     inkscape:pagecheckerboard="0"
     showgrid="false"
     inkscape:zoom="0.9725"
     inkscape:cx="400"
     inkscape:cy="399.48586"
     inkscape:window-width="1920"
     inkscape:window-height="1019"
     inkscape:window-x="1920"
     inkscape:window-y="31"
     inkscape:window-maximized="1"
     inkscape:current-layer="svg4" />
  <path
     fill="#000000"
     d="M136.564 31.01l239.67 149.595c-12.418 21.234-20.756 28.302-45.027 46.936l156.3-26.33-85.603-125.474c4.936 24.85 8.85 38.5.75 60.49L136.568 31.01h-.004zM21.524 42.75l83.13 325.893c-21.017 5.232-30.98 3.262-58.875-3.96l124.046 113.45 13.426-166.844c-10.836 23.322-15.94 37.197-34.342 46.82L21.523 42.75zm64.353.215l252.2 353.16c-23.285 16.947-36.38 19.583-73.83 24.9l200.66 71.74L407.7 286.944c-2.477 33.743-2.313 53.14-20.37 74.09L85.877 42.965z"
     id="path2"
     style="fill:#ffffff" />
</svg>
