<svg width="128" height="128" viewBox="0 0 33.9 33.9" xmlns="http://www.w3.org/2000/svg"><path style="fill:#fff;stroke-width:.0236098" d="M18.3 28.5zm-.1 0v-.1zm-.2-.2h-.1c0-.1 0-.1-.1 0V28h-.2V28h-.2v-.1h-.1s0-.1 0 0v-.1h-.1l-.1-.1v-.1H17v-.1h-.2l-.1-.2h-.1v-.1s-.1 0 0 0c0-.1 0-.1-.1 0V27h-.1v-.1h-.1l-.1-.2v-.1s-.1 0 0 0l-.1-.1s-.1-.2 0-.2H16v-.1l-.1-.1v-.2.1l.2.2v.2h.1c.1 0 .1 0 0 0v.1h.1s0 .1 0 0v.1h.1l.1.1v.1h.2v.1h.1v-.5c-.1 0-.1-.1 0-.1v-.1h-.1c.1 0 .1-.1 0-.1h.1V26h.1v-.1h-.1c0-.1 0-.1 0 0h.1V26.2c.1 0 .1 0 0 0v.1h.1v.1c0 .1 0 .1 0 0v.1c0 .1.1.2 0 .2h.1v.2s.1 0 0 .1h.1v.1c.1 0 .1 0 0 0l.1.1c0 .1 0 .1 0 0h.1v.2h.1v.2l.1.1h.1v.1h.1v.2h.1v.1s.1 0 0 0h.1v.1c.1 0 .1 0 0 0h.1v.1H18c0 .1 0 0 0 0zm-.7-.6h-.1v-.1.1zm-.8-1zm-.3-.2zm0-.1c-.1 0-.1 0 0 0zM16 26zm1.8 2.2zm-.3-.3zm-.6-.5c.1 0 .1 0 0 0zm-.8-.8zm-.2-.4zm.5-.4v-.1h-.1v-.2h-.1V25.3s0-.1-.1 0V25c-.1 0-.1-.1 0 0V25H16V24.6h-.1V24.3h-.1v-.2c-.1 0-.1 0 0 0V24h-.1c0-.1 0-.1 0 0 0 0 0-.1 0 0v-.2c0-.1 0-.1 0 0v-.2l-.1-.1v-.3H15.2c0-.1-.1-.1-.2 0v-.1H15c-.1 0-.1 0 0 0h-.1l-.2-.1h-.1V23h-.1v-.1H14s0-.1-.1 0l-.1-.1h-.1c0-.1 0-.1 0 0h-.1l-.1-.1h-.1s0-.1 0 0l-.1-.1h-.1v-.1h-.2v-.1h-.2v-.1h-.2c0-.1 0-.1 0 0v-.1h-.1s-.1 0 0-.1h-.1V22h-.2l-.1-.2H12s0-.1 0 0v-.1h-.1c-.1 0-.1 0 0 0 0 0-.1 0 0-.1h-.2v-.1c-.1 0-.1 0 0 0l-.1-.1-.2-.2h-.1l-.1-.2-.2-.1v-.1.1h-.1v-.1h-.1v-.1s0-.1-.1 0v-.2h-.1c0-.1 0-.1 0 0v-.1h-.1v-.1l-.1-.1V20h-.1V20h-.1v-.1H10v-.2l-.2-.1v-.2h-.1l-.1-.1v-.1l-.1-.1v-.2h-.1l-.1-.2v-.1l-.1-.1v-.2h-.1V18L9 18v-.1s0-.1 0 0l-.1-.1v-.1c-.1 0-.1 0 0 0h-.1v-.4h-.1V17c-.1 0-.1 0 0 0 0 0 0-.1-.1 0v-.5c0-.1 0-.1 0 0v-.1h-.1V16.1c-.1-.1-.1-.1 0-.1l-.1-.1v-.4c-.1 0-.1 0 0 0v-.2c-.1 0-.1 0 0 0V15c-.1 0-.1 0 0-.1 0 0 0-.1 0 0V14.6c-.1 0-.1 0 0 0V14c0 .1 0 0 0 0h-.1v.2h-.1v.1s-.1 0 0 0h-.1s-.1 0 0 .1h-.8v-.2h.4v-.1L8 14h.1v-.1h.1v-.1c.1 0 .1 0 0-.1h.1v-.1l.1-.2v-.1s0-.1.1 0V13c0-.1 0-.1 0 0l.1-.2v-.1h.1v-.1c.1 0 .1 0 0 0l.1-.1v-.2H9v-.2H9V12c.1 0 .1 0 0 0v-.1l.1-.1v-.5H9c0-.1 0-.1 0 0v-.1l-.2-.3h-.1c0-.1 0-.1 0 0v-.1h-.1v-.1h-.1c0-.1 0-.1 0 0-.1 0-.1 0 0 0h-.2v-.1h-.1l-.1-.1H7s0-.1 0 0H6.7c-.1 0-.1 0 0 0h-.4c-.1 0-.1 0 0 0h-.1l-.2.1c-.1 0-.1 0 0 0h-.2v.1h-.1l-.2.1v.2h-.2v.1l-.1.2v.1h-.1v.5l.1.1.1.1v.1h-.2V12c-.1 0-.1 0 0 0L5 12H5V11.4c0 .1 0 .1 0 0v-.6h.1v-.1c0-.1 0-.1 0 0v-.2h.1v-.1l.1-.2V10l.1-.1.1-.1h.1c0-.1 0-.1 0 0V8.6l-.1-.1c0-.1 0-.1 0 0v-.2h-.2v-.2h-.1V8H5V8h-.2v-.1h-.2l-.1-.1H4s0-.1 0 0H3c-.1 0-.1 0 0 0H2.7V8h-.1c-.1 0-.1 0 0 0H2V8h-.4v.1L1.4 8v.1H.6s-.1 0 0 0H.1V8h.1s0-.1 0 0l.2-.1.3-.1H1.2c0-.1 0-.1.1 0v-.1H1.6v-.1h.1l.1-.1h.1v-.1H2l.2-.1h.1v-.1H2.7l.1-.1L3 7h.2c0-.1 0-.1 0 0 0-.1 0-.1.1 0 .1 0 .1 0 0 0v-.1h.2c0-.1.2-.1.1 0v-.1h.2v-.1H4c0-.1 0-.1 0 0h.2v-.1H4.5l.1-.1H5c0-.1 0 0 0 0s.1 0 0 0H5.4s.1 0 0-.1h.1s.1 0 0 0H7.9c0 .1 0 .1.2 0v.1h.5c0 .1.1.1 0 .1H9v.1H9.4v.1h.2s.1.1.1 0V7H10l.1.1H10.4a6.5 6.5 0 0 0 .2 0v.1s.1 0 0 0h.1v.1h.4v.1h.2c0 .1 0 .1.1 0 0 0 .1 0 0 0l.1.2h.2s.1 0 0 0H12c.1 0 .1 0 0 0v.1h.2s.2.1.2 0h.2l.1-.2h.2v-.1h.2v-.1h.2V7l.1-.1v.1h.1V7l.2-.1h.2c0-.1 0-.1 0 0h.1v-.1h.2l.2-.2h.2c0-.1 0-.1 0 0H14.9v-.1h.2s.1-.1.1 0c.1-.1.2-.1.2 0v-.1h.5c0-.1 0-.1 0 0v-.1h.7v-.1H16.9V6s0-.1 0 0v-.3c-.1 0-.1 0 0 0h-.1V5.4c0 .1 0 .1.1 0v.1h.2v.1h.4v-.1s0-.1 0 0l.2-.1V5.7l-.1.2s-.1 0 0 0V6l-.1.1v.1h.2s.1 0 0 0h.1s.1 0 0 0c0 .1.1.1.2 0 0 0 .1.1.1 0v.1h.7l.1.1H19.1l.2.1h.4l.1.1h.1l.2.1.2.1h.1V7H20.8c.1 0 .1 0 0 0l.1.1v.1V7h.2v.1h.1s0 .1.1 0v.1h.1v.1c.1 0 .1 0 0 0h.1s.1.1.1 0v.1h.1s.1.1 0 .1H22c0 .1 0 .1 0 0h.5v-.1H22.8v-.1h.4v-.1h.1V7s.1 0 0 0h.6V7h.2c0-.1 0-.1 0 0l.2-.1c.1 0 .1 0 0 0h.1v-.1h.4c.1-.1.1-.1.1 0v-.1h.2c0-.1 0-.1 0 0h.1v-.1h.4s.1 0 0-.1H26.2c0-.1.1 0 .1 0h.1c0-.1 0 0 0 0H26.7c0-.1 0-.1 0 0h.1v-.1H28.5c.1 0 .1 0 0 0h.4v.1c.1-.1.1-.1.1 0h.7v.1H30v.1H30.3l.2.1c-.1 0 0 0 0 0h.1l.1.1h.4l.1.1v.1h.2l.1.1H31.7c0 .1 0 .2.2.2h.1l.1.2v-.1h.2v.1H32.7v.1H33l.1.1h.1s.3.1.2 0l.2.1c0 .1 0 0 0 0 0 .1 0 .1 0 0l.1.2H32.6c.1 0 .1 0 0 0h-.1c-.1 0-.1 0 0 0h-.1l-.1-.1v.1h-.2V8H31.4v-.1h-.6v-.1H29.8c0-.1 0 0 0 0h-.4s-.1 0 0 0h-.2l-.1.1H28.8s0 .1 0 0V8h-.1c0 .1 0 .1 0 0v.1h-.1s0 .1-.1 0v.2s-.1 0 0 0l-.1.1v.1h-.1v.2h-.1V9c-.1 0-.1 0 0 .1v.2c-.1 0-.1 0 0 0v.5l.1.2s0 .2.1.1v.2l.2.1v.5c.1 0 0 0 0 0h.2s-.1 0 0 0v.1c-.1 0-.1 0 0 0v.5c0 .1 0 .1 0 0V12h-.1c0 .1 0 .1-.1 0v.1h-.1v.1c-.1 0-.1 0 0 0V12h-.1l.1-.1v-.3c.1 0 .1 0 0-.1 0-.1 0-.1 0 0V11h-.2c0-.1 0-.1 0 0V11l-.1-.2H28v-.1H28l-.1-.1h-.2s0-.1 0 0l-.2-.1H27.2c-.1 0-.1 0 0 0H27c-.1 0-.1 0 0 0h-.2c0-.1 0 0-.1 0 0 0-.1 0 0 0h-1.2v.1h-.1v.1h-.2s-.1 0 0 0l-.1.1s-.1 0 0 .1H25v.1H25l-.1.1v.2c-.1 0-.1 0 0 0h-.1v.7c0 .1 0 .1 0 0v.1h.1v.2h.1v.2h.1V12.9h.1v.2h.1v.2h.1v.2l.1.1v.1c.1 0 .1 0 0 0l.1.1v.1h.1v.1l.2.1v.2h.2l.1.1h.2s0 .1 0 0l.1.1h-.2l-.3.2h-.1v-.1h-.1s-.1 0 0 0h-.1v-.1h-.1v-.1l-.1-.1h-.1V14v1.6h-.1v.7c0 .1 0 .1 0 0v.1h-.1.1v.1s-.1.1 0 .1h-.1v.4H25V17.5l-.1.1s0 .1 0 0v.2l-.1.1c0-.1 0 0 0 0v.1l-.1.2s0 .1 0 0v.1l-.1.1v.1h-.1V18.8h-.1v.1s0 .1 0 0l-.1.1v.1c0 .1 0 .1 0 0l-.1.2h-.1s0 .1 0 0v.2H24v.1l-.2.1v.2h-.1v.1c-.1.1-.1 0 0 0h-.1v.1l-.1.1v.1h-.1v.1h-.1l-.1.2h-.1v.1H23v.2h-.2v.2h-.2s0 .1 0 0v.1c-.1 0-.1 0 0 0h-.1v.1h-.1v.1h-.1v.1s0 .1 0 0h-.2v.1c0 .1 0 .1-.1 0v.1H22v.1c0 .1 0 .1-.1 0l-.1.1c-.1 0-.1 0 0 0l-.1.1-.1.1h-.1l-.1.1h-.1l-.1.1H21s0 .1 0 0c-.1 0-.1 0 0 .1h-.2c0 .1 0 .1 0 0h-.1v.2-.1h-.1v.1h-.1l-.1.1h-.2v.1s-.1 0 0 0h-.1l-.1.1h-.4s-.1 0 0 0v.1H19.3l-.2.1-.1.1H18.7c0 .1 0 .1 0 0h-.2v.1h-.2l-.1.1c-.1 0-.1 0 0 0H17.4s-.1 0 0 0h-.1v.1h-.8v-.1h-.1s-.1.1-.1 0c0 .1 0 .1-.1 0h-.1v.1H16c-.1 0-.1 0 0 0l-.1.1s0 .1 0 0V23.9h.1v.7c0 .1 0 .1 0 0h.1V24.9h.1v.4c.1 0 .1 0 0 0v.1c.1 0 .1 0 0 0v.2h.1v.2c0 .1 0 .1 0 0v.2zm-.4-2.1zm-.3-.4zm2.4-.1zm-2.7 0v-.1s.1 0 0 0zm0-.1h-.1zm.9-.3h.1v-.1H16.8h-.1s.2.1.2 0h.1c.1.1.1 0 0 0h.5c0 .1 0 .1 0 0v.1h.2c.1-.1.1-.1.1 0l.2-.1h.4s0-.1.1 0c0 0 .1 0 0 0l.1-.1h.6c0-.1 0-.1 0 0v-.2h.1v.1s.1 0 0 0h.2v-.1h.2s0-.1 0 0l.2-.1h.1v-.1h.2c0-.1 0-.1.1 0v-.1h.2V22h.2s0-.1 0 0V22h.2v-.1h.1l.1-.1h.2v-.1h.1v-.1s.1 0 0 0h.1v-.1s.1 0 0 0h.2c0-.1 0-.1 0 0v-.1h.1s0-.1 0 0l.1-.1.1-.1.1-.1h.1V21h.1v-.1h.1l.1-.2h.1s0-.1 0 0v-.1h.2c0-.1 0-.1 0 0-.1 0-.1 0 0-.1v-.1h.1v-.1h.1v-.1c0-.1 0-.1.1 0V20h.1c0-.1 0-.1 0 0 0-.1.1-.3.2-.2v-.2h.1v-.2h.2l.1-.3V19h.1v-.2c.1 0 .2 0 .2-.2v-.2h.1v-.1c.1 0 .1 0 0 0l.1-.2c.1 0 .2-.1.1-.2 0 0 0-.1 0 0v-.1c.1 0 .1 0 0 0l.1-.2c.1 0 .1 0 0 0 .1 0 .1 0 0 0l.1-.2v-.1c.1 0 0 0 0-.1.1 0 .1-.1 0-.1l.1-.1V17c.1-.1.1-.2 0-.2.1 0 .1 0 0 0h.1v-.1s.1 0 0-.1h.1v-.7h.1v-.7l.1-.1V14.7c-.1 0-.1 0 0 0v-.1c-.1 0-.1 0 0 0v-.1h-.1V14.3h-.1V14c0-.1 0-.1 0 0v-.2c0-.1 0-.1 0 0h-.1v-.1l-.1-.2c0-.1 0-.1 0 0v-.2l-.1-.1c-.1 0 0 0 0 0v-.1h-.1c0-.1-.1-.1 0 0l-.1-.1V13s-.1 0 0 0v-.2h-.1v.1l-.2-.1c-.1-.1-.1-.1 0-.2h-.1c-.1 0-.1 0 0 0h-.7l-.1-.1h-.5v.1h-.2v.2h-.1c-.1 0-.1 0 0 0 0 0 0 .1-.1 0v.1H22v.2s-.1 0 0 0H22v.1l-.1.1v.4c.1 0 .1 0 0 0l.1.1v.1l.1.2h.1v.2h.2V14.7c.1 0 .1.1 0 .1h-.1v-.1H22V15.5c.1.1.1.1 0 .1v.1c.1 0 .1 0 0 0v.2c.1 0 .1 0 0 0 .1.1.1.1 0 .1.1.1.1.1 0 .1v.1c.1 0 0 0 0 0v.1c.1.1.1.1 0 0v.1c.1.1.1.1 0 0v.1c.1 0 .1 0 0 0v.6c0 .1 0 .1 0 0v.2l-.1.2v.1s-.1 0 0 0c0 .1 0 .1-.1 0V18c-.1 0-.1 0 0 0h-.1v.1a28.8 28.8 0 0 1-.2.3v.2h-.1l-.1.1v.1h-.1v.1h-.1v.2H21c0 .1 0 .1 0 0H21v.1l-.2.2v.1h-.1l-.1.1v.1h-.2v.1l-.2.1v.1H20l-.1.1h-.1v.1h-.1l-.1.2h-.2c0 .1 0 0-.1 0l-.1.1s0 .1 0 0v.1H19c0 .1 0 .1 0 0l-.1.1h-.1l-.2.1c0 .1 0 .1-.1 0h-.1v.1h-.5v.1h-.7v.1H17v.1h-.2v.1h-.1v.1c0 .1 0 .1 0 0l-.2.1v.1h-.1v.1h-.1v.2l-.1.1-.2.2v.6H16v.1h.2v.1zm2.5-.2c.1-.1.1-.1 0 0zm1.7-.6zm-4.1-.3zm.4-.5zm4.9 0zm.2-.1zm-4.7-.2zm5 0v-.1zm-3-.4s-.1 0 0 0zm4.1-1c.1 0 0 0 0 0zm.3-.3zm-2-1zm2.7-.2zm.4-1.5zm.2-1.2zm0-.4zm0-.4zM17.3 23zm0 0h-.1zm.4 0zm-2.2 0v-.1zm0-.1v-.2c.1 0 0 0 0 0l.1-.2v-.2c.1 0 .1 0 0 0V22h.1V21.7h.1V21.5l.1-.1v-.1h.1V21l.1-.2h-.2c0-.1-.1 0 0 0h-.1c0-.1-.1-.1-.1 0v-.1H15.3s-.1 0 0 0c0-.1 0-.1 0 0l-.1-.1H15v-.1h-.2v-.1h-.1c0-.1 0-.1 0 0h-.2c0-.1 0-.1 0 0v-.1h-.1v-.1H14.1L14 20h-.1s-.1-.1 0-.1c0-.1-.1-.1 0 0l-.2-.1-.1-.2s-.1 0 0 0h-.1l-.1-.1h-.1l-.1-.2c-.1 0-.1 0 0 0H13v-.1c-.1 0-.2-.1-.1-.2h-.2V19l-.2-.1h.1l-.1-.1v-.1h-.1v-.2h-.1l-.1-.2v-.1h-.1s0-.1 0 0V18a51.7 51.7 0 0 0-.3-.7v-.2s-.1 0 0 0l-.1-.1V17c0-.1-.1-.2 0-.2-.1-.1-.1-.1 0-.1l-.1-.1V15.2l.1-.2v-.4l-.2-.1c0 .1-.2.1-.2 0v.1-.1h.1v-.2l.2-.2V14h.1v-.2h.1V13.4c.1-.1.1-.1 0-.1.1 0 0-.1 0-.1V13v.1-.1h-.1V13h-.1v-.1s-.1 0 0-.1h-.2v-.1s-.1-.1-.2 0v-.1l-.2-.1h-.7l-.1.1H10v.1h-.1l-.2.1s0 .1 0 0v.2h-.1v.1h-.1v.1h-.1v.2h-.1c0 .1 0 .1 0 0v.1l-.1.2v.1H9v.1H9h.1v.2c0-.1 0-.1 0 0 0 0 0 .1 0 0v.1H9s0 .1 0 0v.4h-.1v1.2H9v.4c.1 0 .1 0 0 0v.1s0 .1 0 0v.1c.1 0 .1.1 0 .1h.1v.2c.1 0 0 0 0 0l.1.2v.1s0 .1.1 0v.4l.1.1V17.8h.1v.2h.1v.2h.1v.2h.1v.1c0 .1 0 0 0 0v.1h.1v.2h.1v.2h.1c0 .1 0 0 0 0v.1l.1.1v.1h.1v.1l.1.1.1.2c.1 0 .2 0 .1.1h.1v.1l.1.1v.1h.1v.1h.1c0 .1 0 .1 0 0l.1.2h.1s0 .1 0 0v.1s.1 0 0 0h.1v.1h.1l.1.1v.1c.1 0 .1 0 0 0v.1h.2v.1h.1v.1h.1l.1.1h.1c0 .1 0 .1 0 0v.1s.1 0 0 0h.1l.1.1c-.1 0 0 0 0 0v.1h.2v.1h.1l.1.1h.1v.1h.1s.1.1.1 0v.1l.2.1c0 .1.1.1.1 0v.1h.2c0 .1 0 .1 0 0h.1v.1h.1l.1.1h.1c.1.1.2.1.1 0 .1 0 .1.1.2 0v.1l.2.1h.2v.1h.5v.1c.1 0 0 0 0 0h.2s.1.1.1 0zm-.9-.2zm-1.4-.6s-.1 0 0 0c0-.1 0-.1 0 0zm2.5-.1zm-4-1zm4.2 0zm-1.6-.6zm-3.3 0v-.1zm1.2-2zm-.4-1.1zM9 16.5s0-.1 0 0zM9 15zm0-.4zm9.5 8.2zm-4.8-.1zm6-.2zm-3.5 0c-.1 0-.1 0 0 0zm-3-.2c-.1 0-.1 0 0 0zm.7 0zm-1 0zm.7-.2zm8.1-.1zm-.3-.3zm-5.4-.2zm.7 0c-.1 0-.1 0 0 0zm-.4-.5v-.1.1zm-.1-.2zm6.3 0zm-7.2-.2zm7.4 0zm-3-.4zm-5.5-.1zm-.3-.2zm.2 0zm-.3 0v-.1zm6.5 0zm-9.8-.4zm3 0c0 .1 0 .1 0 0zm7.1 0c0 .1 0 .1 0 0zm3 0zm-9.9 0zm-3.7 0v-.1zm3.7-.2v.1zm.2 0v.1zm.7 0v.1zm-.8 0v.1zm.3 0zm0 0zm-.4 0c0-.1 0-.1 0 0v-.1h.1-.1l-.1-.1h-.1c-.1 0-.1 0 0 0h-.1v.1c.1 0 .1 0 0 0h.2v.1zm.3 0c-.1 0-.1 0 0 0zm-.7-.1zm.9 0zm-.1 0s0-.1 0 0zm-.4-.1c.1-.1.1-.1.1 0V19l-.1-.1v-.1h-.1l-.1.1h.1v.1h.1v.1zm.2 0zm0 0zm-.6 0V19l.1-.1V18.6h.2V18h.2-.1v-.2c.1 0 .1 0 0-.1V17.5c-.1 0-.1 0 0 0h-.1V17c-.1-.1-.1-.2 0-.2h-.1v-.1s0-.1 0 0v-.4c-.1 0-.1 0 0 0v-.1c-.1 0-.1 0 0 0h-.1c0-.1 0-.1 0 0v-.1l-.1-.1-.1-.2v-.1H12.7v-.1h-.2c-.1-.1-.1-.1 0 0h-.2c-.1-.1-.1 0-.1 0s-.1 0 0 0h-.1v.1c-.1 0-.1 0 0 0v.1c-.1 0-.1 0 0 0 0 0-.1 0 0 0v.2H12V17s-.1.1 0 .1H12v.1h.1c0 .1 0 .1 0 0l-.1.1c0 .1 0 .1 0 0v.1c.1 0 .1 0 0 0v.1h.1v.2s.1 0 0 0h.1s0 .1 0 0v.2H12h.1v.1l.1.1v.1h.1v.1c.1 0 .1 0 0 0v.1h.1c0 .1 0 .1.1 0v.2l.1.1h.1c0 .1.1.1.2 0v.1h-.1v.1h.1v.1l.1.1zm0-.2H13V18.6h.1V19v-.1h.1v.1h-.1zm-.3-.3zm.3 0c0-.1 0 0 0 0zm0 0zm-.2 0h-.1v-.1h.1c0 .1 0 .1 0 0zm.3 0v-.1c0 .1 0 .1 0 0zm-.3-.1h.1zm.3 0c0-.1 0-.1 0 0v-.1h.1c0 .1 0 .1 0 0zm-.1-.1v-.1s0-.1 0 0zm0 0v-.1zm.1-.1zm-.1-.1V18zm-.6-.1zm-.1 0V18zm.5-.1zm-.3 0c0-.1 0-.1 0 0zm.5 0v-.2h.1v.1c0 .1 0 0-.1 0zm.3 0-.1-.1h.1zm-.5-.1v-.1h.1zm-.1 0zm.5 0v-.1h.1-.1zm-.5-.1zm-.4 0zm.8 0v-.1c0 .1 0 0 0 0zm.2-.1c0-.1 0-.1 0 0h.1-.1zm-.4-.1zm-.2-.2zm-.2 0zm-.3-.7zm.4 0zm-.6 0zm1-.1h.1zm-1 0h.1zm0-.3zm0 0v-.1zm1-.1zm-1-.4c.1 0 .1 0 0 0zM14 19zm-1-.1zm1.2 0H14zM10 19zm3.5 0zm.3 0v-.1s-.1 0 0 0zm0-.1s.1 0 0 0zm-1 0v-.2c.1 0 .1 0 0 0v.1c0 .1 0 .1 0 0zm1.3 0zm-.3 0v-.1zm-.3-.1v-.1c-.1 0-.1 0 0 0 0 .1 0 .1 0 0zm.4 0zm0 0 .1-.1v-.1h-.1v-.2h-.1v-.2h-.2v.2c0-.1 0-.1 0 0v-.1h.1c0 .1 0 .1 0 0l.1.1c-.1 0-.1.1 0 .2.1 0 .1 0 0 0v.1h.2zm-.2-.3zm-.1 0c0-.1 0-.1 0 0zm-1 .2c.1 0 .1 0 0 0zm1.2 0zm-.2 0zm.7-.1c0-.1 0-.1 0 0zm-1.7-.1zm1.4 0zm.3-.2zm-.4 0s0-.1 0 0v-.1c0-.1 0-.1 0 0 .1 0 .1 0 0 0V18c0-.2 0-.2-.2-.1-.1 0-.1 0 0 0v.1h.1v.2c.2.1.2.1.1 0zm0-.2-.1-.1c.1 0 .1 0 0 0 0 .1 0 0 0 0zm-.1-.2zm.3.4s0-.1 0 0v-.4H14v.2h.1s0 .1 0 0v.2zm-.1 0v-.1zm10.8-.3zm-12.7 0v-.1zm9.7 0v-.1zm-7.9-.1zm-4.5-.3zm2.6-.1h-.1zm-.1-.1zm1.6-.3zm-4.2 0c-.1 0-.1 0 0 0zm15.4 0zm.5-.2zm0-.3zM9 16.3zm3 0c.1-.1.1-.1 0-.1zm12.9-.1zM13.3 16zm.1 0v-.1h-.1.1zm-.2-.3v-.1l-.1.1v.1h.1v-.1zm.1 0v.1zm.7 0c0 .1 0 .1 0 0zm.2 0s0-.1 0 0V15.3l-.1-.1v.1l-.1.1v.1c0-.1 0-.1 0 0h.1zm-1-.1V15.3c0-.1 0-.1 0 0v-.1h.1c-.1-.1-.1-.1 0-.2v-.4c-.1 0-.1 0 0 0h-.1v-.4H12.8c0 .1 0 .1 0 0l-.1.2h-.3c.1 0 .1 0 0 0v.1c.1 0 0 0 0 0v.1h.1v.1c.1 0 0 0 0 .1v.2h.2c0-.1 0-.1 0 0v-.1c-.1 0-.1 0 0 0v-.1s0-.1 0 0v-.1c-.1 0-.1 0 0 0s.1 0 0 0v.1l.2.1v.1l.1.2c0-.1 0-.1 0 0v.4zm-.1-.2zm0-.5zm-.2-.1zm-4.4.8zm5.7 0zm-.2-.1v-.1c-.1 0 0 0 0 0s0 .1 0 0zm.2 0c0-.1 0-.1 0 0zm-.2-.2zm-2.5-.7zm11 0h-.1zm-10.7 0zm10.3 0zm-8.3-.1zm-5.6-.1zm17.5 0c-.1 0-.1 0 0 0zM9 14.4v-.1zm3.7 0s0-.1 0 0zm12.2 0v-.1zM9 14zm15.9 0zM5 12zm23.8 0h-.1zm-13 0c-.1-.1-.1-.1 0 0zm2.5 0c0-.1 0-.1 0 0zm-2.6-.2zm2.7 0h-.1c.1 0 .1 0 0 0zm-2.6 0v-.2h-.1v.1h.1zm2.5 0v-.2.1zm-2.6-.3v-.2.2zm2.6 0c.1 0 .1 0 0 0v-.1l.1-.1h-.1v.2zm-13.2 0zm23.5 0zm-15.6 0v-.1zm.4-.1h.1v-.1h.5l.1-.1s.1 0 0 0h.2c.1 0 .2 0 .2-.2H14.2c.1-.1.1-.1 0-.1v-.2c0-.1 0 0 0 0h-.1v-.1l-.1-.1v-.1h-.2v-.5s0-.1 0 0v-.2c.1 0 .1 0 0 0h.1v-.2h.1v-.1l.1-.1V9s.1 0 0 0h.2v-.1h.1v-.1h-.1v-.1h-.2l-.1-.1s-.1-.1-.1 0v-.1h-.1s0-.1 0 0l-.2-.2H12.9v.1h-.1s-.1 0 0 0v.1h-.1c-.1 0-.1.1 0 .2h-.1c-.1 0-.2 0-.1.1V9s-.1 0 0 0h-.1V9c-.1 0-.1 0 0 0v.1h-.1V9.5l-.1.1V10.2s0 .1 0 0v.6h.1l.1.2s.1.1 0 .1h.2v.1c.1 0 .1 0 0 0h.2v.1h.1c0 .1 0 .1 0 0h.4s0 .1 0 0h.2c0 .1 0 .1 0 0zm-1-.3zm1.8-2.2zm7 2.5v-.1h.2V11h.1c0-.1 0-.1.1 0v-.2h.1l.1-.1v-.1c.1 0 0 0 0 0v-.1c.1 0 .1 0 0 0l.1-.2v-.2s0-.1 0 0V9.1h-.1V9l-.1-.1v-.1h-.1l-.1-.1v-.1h-.1v-.1h-.1v-.1h-.2v-.1h-.7l-.1.1h-.1v.1h-.1l-.1.1h-.2v.1h-.1V9h.2V9.3h.1v.2s.1 0 0 0l.1.1v.1c.1.1.1.1 0 .1h.1c0 .1 0 .1 0 0 .1 0 .1 0 0 0v.5l-.1.1v.1H20s0 .1 0 0v.1H20v.2h-.1v.1h-.1v.1h-.1v.1h.1c0 .1 0 .1 0 0h.1v.1h.4s0 .1.1 0v.1h.8v.1zm.4-.3zm-1.9-2.2h.1zm-7 2.4zm3 0h.1V11c0-.1 0-.1 0 0-.1 0-.1 0 0 .1zm2.6 0s0-.1 0 0V11c-.1 0-.1 0 0 0h-.1c0-.1 0-.1 0 0v.1h.1zm2.7 0zm.3 0zm-6.6 0h.1V10.8l-.1.1c-.1 0-.1-.1-.1 0-.1 0-.1 0 0 0v.1c0 .1 0 .1 0 0zm-.1-.1zm4.9 0V11c0-.1 0 0-.1 0h-.1l-.1-.1v.1h.1v.1h.2zm-.1 0zm-4.7-.2c0 .1 0 .1 0 0zm4.6 0v.1zM16 11c0-.1 0 0 0 0 0 .1 0 .1 0 0zm2.5 0s-.1-.1-.1 0c0 0 0 .1 0 0zm-2.5-.1c0-.1 0-.1 0 0zm2.5 0c0-.1 0-.1-.2 0h.1s.1 0 0 0zm-3.6 0h.2c0-.1 0-.1 0 0v-.1c0-.1 0-.1 0 0H15.4v-.1h.2v.1h.1l.1-.1v-.1h.1v-.2h.1V10h.1a1.4 1.4 0 0 1 0-.3s.1 0 0 0h.1c0-.1 0-.1 0 0V9.4c0-.1 0-.2.1-.1v-.1h.1V9h.1V8.6c.1 0 .1 0 0 0v-.1h.1-.2c-.1 0-.1 0 0 0v.1h-.1v.1H16V9h-.2l-.2.2h-.1V9.5h-.2v.1h-.2c0 .1 0 0 0 0h-.5v.1h-.1v.1c-.1 0-.1 0 0 0-.1.1-.1.1 0 .1-.1.1 0 .2 0 .1v.1c.1 0 .1 0 0 0 .1 0 .1 0 0 0v.2h-.1v.2c.1 0 .1 0 0 0v.1h.1s0 .1 0 0v.2h.2zm-.2-.4v-.1zm0-.5zm1.7-1c.1 0 0 0 0 0zm0-.2zm3 2h.1c0 .1 0 .1 0 0h.1l.2-.1h-.1c0-.1 0 0 0 0h.1v-.4l-.1-.1V10l.1-.1v-.2h-.1v-.2H19s0 .1 0 0h-.4V9.1l-.1-.1-.2-.1h-.1l-.1-.1-.1-.1H18v-.1c-.1 0-.1 0 0 0l-.1-.1h-.2v.1h.1V9h.1v.4h.1v.1l.1.1v.2l.1.1V10.1h.1v.1c0 .1 0 .1 0 0l.1.1v.1c0 .1.1.1 0 .1h.1v.2H18.9l.1-.1c0 .1 0 .1 0 0v.1H19.3c.1-.1.1-.1.1 0zm.3-.4zm0-.4zm-1.8-1c.1 0 0 0 0 0zm0-.2zm-1.9 2v-.1zm2.4 0v-.2.2zm-12.1-.2zm21.5 0zm-20.2 0zm4.7-.2zM5.4 10c-.1 0-.1 0 0 0zm23.2 0h-.1zM14.5 10zm5.3 0zM14 9.4zm6 0zM16.5 9zm1.5 0zm-3.3-.2c-.1 0-.1 0 0 0zm5.1 0zm-4.6 0s.1-.2 0-.2h.1v-.1l.1-.1v.1h.2c0-.1 0-.1 0 0l.1-.1v-.1h.1c0-.1 0-.1 0 0l.1-.1V8h-.1.1v-.4h.1v-.2h.1v-.1h-.1v-.1h-.1l-.1-.1s-.1 0 0 0h-.1c-.1 0-.1-.1-.1 0V7l-.1-.1h-.1v-.1h-.5c0 .1 0 .1 0 0 0 .1-.1.1-.2 0V7h-.1c0 .1 0 .1 0 0h-.1l-.1.1-.2.1H14l-.1.1h-.2c-.1 0-.1 0 0 .1h-.1s-.1 0 0 0l-.2.1h-.1v.1h-.1l-.2.1v.1h.2V8h.5l.1.1h.1s0 .2.1.1l.1.1.2.2h.1a15.3 15.3 0 0 0 .3.2H15c0-.1.1-.1.1 0H15c0 .1 0 .1 0 0v.1h.1zm0 0v-.1zm-.3-.1zm-.4-.2zm-.2 0c0-.1 0 0 0 0zm0-.1zm-.7-.9zm.8-.4zm4.9 1.7c0-.1 0-.1 0 0v-.1s-.1 0 0 0c0-.1 0-.1 0 0H19.6v-.1H19.9l.1-.1.2-.1v-.1h.1l.1-.2h.2c0-.1.1 0 0 0h.1l.2-.1h.1s.1-.1 0-.1h.2V7.5h-.2l-.2-.2c-.1 0-.1 0 0 0H20.3l-.1-.1h-.1l-.1-.1H20l-.2-.1V7c0 .1 0 .1 0 0h-.2s-.1 0 0 0h-.1s0-.1-.1 0h-.2v-.1H19l-.2.1v.1h-.1s-.1 0 0 0l-.1.1h-.1v.1h-.2v.1h-.1v.1c0 .1 0 .1 0 0v.1h.1c.1 0 .1 0 0 .1h.1v.1l.1.1v.2c-.1 0-.1 0 0 0l-.1.1c0 .1 0 .1 0 0l.1.1h.1v.1h.2v.1h.1v-.1c.1 0 .1.1 0 0v.1h.1V8.9h.1zm-.1 0v-.1zm.3-.2zm.4 0v-.1c.1 0 .1 0 0 0zm.2-.2zm0 0zm.7-.9zm-.9-.4zm-7.2 1.6zm9 0zm-5-.3zm1 0zm-2 0zm3 0zm-5.7 0v-.1zm8.4 0v-.1zm-7.4-.2zm6.5 0zM.8 8.2V8zM33.2 8c-.1 0-.1 0 0 0zM.6 8s-.1 0 0 0zm32.8 0h-.1zm-31 0zm29.1 0zM2.7 7.8zm28.5 0zM3.8 7.7zm26.3 0zm-18.4-.1zm10.5 0zm-20-.3zm29.5 0zm-17.8 0zm6.5 0zm-7.3 0zm0 0v-.1zm8-.1zm0 0zm-4.9 0c0-.1 0-.1 0 0zm.1-.1s0-.1 0 0l-.1-.1v-.1c0-.1 0-.1 0 0-.1 0-.2 0-.1-.1H15.7a35.1 35.1 0 0 0 .1.2h.2s0 .1 0 0h.1v.2l.1-.1zm0 0zm1.7 0h.1V7a1 1 0 0 0 .2 0h.1c0-.1 0-.1 0 0v-.1h.1c.1 0 .1 0 0 0 0-.1.1-.1.2 0v-.1h-.6L18 7V7l-.1.2zm0 0zm0 0zm-2 0zm2.2 0zm-2.7 0s0-.1 0 0zm3.3 0c0-.1 0-.1 0 0zM3 7zm11.4 0zm5.5 0zm11 0zM15.4 7c-.1 0-.1 0 0 0zm3.5 0c0-.1 0 0 0 0zm-3.3-.2zm3 0zm-4.5 0zm6 0zm-16.4 0c-.1 0-.1 0 0 0zm26.5 0zM9 6.6zm16.1 0zm-20.3 0h-.1zm24.6 0h-.1s.1 0 0 0zm-12.6-1zm.9 0c-.1 0-.1 0 0 0zm-.7 20.2zm-.8-1.6zm.6-.8zm0 0h.1zm-.2 0zm1.6 0v-.1zm.6-.2zm.5 0V23zm0-.1zm1.2-.4zm-8.8-1.3zm-.2 0c0-.1 0-.1 0 0zm11.4-.4zm.6-.7c.1 0 .1 0 0 0zm-13 0v-.1zm-1.5-2.8zm-.3-1.1zm16.7-.2zm0-1.2h.1zM8 14c0 .1 0 .1 0 0zm18 0c0 .1 0 .1 0 0zm-.7-1.2zm-20-.6s.1 0 0 0zm23.4 0c.1 0 .1 0 0 0zm-23.1-.1h-.1c0-.1 0-.1 0 0zm22.9 0c0-.1.1-.1.1 0 0 0-.1 0 0 0h-.1zM5 11.7zm23.9 0zM9 11.4s.1 0 0 0zm15.8 0zm.1-.2zm-16 0c0-.1 0-.1 0 0zm16 0c0-.1 0-.1.1 0zM9 11c-.1 0-.1-.1 0-.1zM5 10.7zm23.7 0zm-2.6-.2zm-21 0c0-.1 0-.1 0 0zm23.5 0c0-.1 0-.1 0 0zM5.4 10zm23 0zM.6 8v.1zm32.8 0v.1zM1.5 8zm30.8 0zM3 8zm.4 0c0-.1 0-.1 0 0zm27.3 0c0-.1 0-.1 0 0zm.3 0zm-18.8-.3c.1 0 .1 0 0 0zM2.8 7H3zM31 7zm-17-.3zm6.2 0zm-10.9 0zm15.2 0s.1 0 0 0zM4 6.7v-.1zm25.8 0v-.1zm-22-.2c.1 0 .1 0 0 0zm18.2 0zm-9.6-.2zm1.4 0zm-1.1 0v-.1zm.8 0v-.1zm-.4-.7zm-.5-.1zm1 0zm-1-.1zm1 0z"/></svg>