<svg width="1415" height="983" viewBox="0 0 374.4 260.1" xmlns="http://www.w3.org/2000/svg"><g style="display:inline"><path style="fill:#fff;stroke-width:.264583" d="M202.3 259.3c-.1-.1 0-.3 0-.4.2 0 .3 0 .3.3 0 .4-.1.5-.3.1zm-1-.8c.1-.7.6-1 .6-.4 0 .2-.2.5-.4.6-.3.3-.3.3-.2-.2zm-2.5-1.3c0-.4-.2-.8-.1-1 0-.1-.2 0-.4.3-.3.4-.4.4-.4 0 0-.5-.8-.8-1.1-.3-.2.2-.2.2-.1-.1 0-.3 0-.5-.3-.5-.2 0-.3-.1-.3-.3 0-.1 0-.2.3 0 .2 0 .2 0 0-.2a.7.7 0 0 0-.5-.3c-.2 0-.4-.2-.5-.5 0-.4 0-.4-.1 0 0 .5-.8.7-.8.2 0-.1 0-.2.2-.1.2 0 .2 0 .2-.4 0-.3-.1-.4-.2-.4-.1.1-.2 0-.2-.3s-.1-.4-.4-.1c-.2.1-.4.2-.5 0-.1 0-.1.1 0 .4.2.5.2.5-.3 0l-.7-.3s-.2 0-.2-.2c0-.3.1-.3.4-.1.2.1.3.2.3 0 0-.4-.6-.9-1.2-.9-.3 0-.7 0-.8-.3-.1-.2 0-.2.3-.1h.3c-.1-.2-.4-.3-.7-.3l-.6-.3c-.1-.2-.3-.2-.4-.1-.2 0-.3 0-.3-.3 0-.2-.3-.6-.7-.8-.6-.5-.6-.6-.2-.9.5-.3.5-.3 0-.2l-.7-.1c0-.1-.2-.3-.4-.3s-.4 0-.4-.2-.2-.2-.4-.1c-.3.1-.4 0-.3-.3.1-.3 0-.3-.2-.2-.2 0-.6-.1-.9-.4a9 9 0 0 0-1-.8c-.4-.3-.4-.3.2-.2h.3c-.2-.2-.3-.5-.2-.6a.3.3 0 0 0-.1-.5c-.2 0-.3 0-.2.2 0 .2-.3.4-.7.5-.6.2-.7.2-.4-.3.3-.7.3-.8-.2-.7-.3.2-.4.1-.3-.2.1-.2 0-.4-.2-.4-.3 0-.4-.1-.2-.3 0-.2 0-.2-.3 0-.3.3-.4.3-.3.1l-.1-.5c-.2 0-.2-.2-.2-.3 0-.1 0-.5-.2-.7-.4-.5-.4-.5-.3 0 .2.4.1.4-.3-.1-.5-.6-.5-.8-.3-1 .3-.4.3-.4 0-.3-.2.2-.3 0-.3-.1 0-.3 0-.3-.3 0-.1.3-.2.2-.4-.4 0-.5-.3-1-.5-1s-.4-.3-.4-.4c0-.2.1-.2.3-.1.2 0 .2 0 .1-.1 0-.2-.4-.3-.6-.3-.4 0-.4-.1-.1-.3.3-.1.2-.3 0-.5-.3-.2-.4-.5-.3-.7 0-.2 0-.4-.2-.4-.3 0-1.1-1.8-1-2 .1-.2 0-.6-.4-1s-.5-.7-.4-.7c.2 0 0-.2-.3-.5-.6-.5-.6-.6-.1-.6.4 0 .4 0-.2-.2-.3 0-.7-.3-.7-.6-.1-.3 0-.3.2 0 .1.3.3.3.5.2.3-.4.5-1.2.2-1.1-.2 0-.3.1-.2.2 0 .2 0 .2-.2.1-.3-.2-.3-1.2 0-1.2l.8.7c.3.4.4.6.2.5-.3-.2-.3-.1-.1.3l.2.8a.3.3 0 0 0 .3.3c.4 0 .8 1 .7 1.5 0 0 .2.1.4 0 .4-.1.4-.1.2.2-.5.4-.4.6.1.8.4 0 .5.3.5 1 0 .5 0 .7.2.5.4-.4.7-.3.7.3 0 .5 0 .5.4.2s.4-.3.1.3c-.1.3-.2.6-.1.7l.1-.1c0-.2.2-.3.4-.3s.4 0 .4.2-.1.3-.3.2c-.1-.1-.2 0-.2.3 0 .2 0 .3.2.2 0 0 .4 0 .7.3l.3.2c-.1-.2 0-.4 0-.4.4 0 .9 1 .9 1.6 0 .3.1.5.3.5 0 0 .1-.1 0-.4 0-.2 0-.3.3-.2.3.1.5.4.5.7 0 .5 0 .5.2.2s.3-.3.3 0c0 .1.3.3.6.3h.6l-.6.5-.6.5.8.3h.6c0-.2-.3-.3-.5-.3s-.3-.1-.2-.2c0-.2.3-.2.8 0 .3.3.6.4.6.3 0-.2-.1-.4-.3-.5-.2 0-.1-.3 0-.5.3-.3.3-.4 0-.3-.2 0-.3-.1-.3-.3 0-.2 0-.3-.2-.3-.3 0-.3-.1 0-.3v-1.1c-.3-1.1-.3-1.3 0-1.1.3.1.2 0 0-.4-.4-.3-.5-.6-.3-.7.2 0 .3-.3.3-.4 0-.2-.1-.2-.3-.1-.1 0-.2 0-.2-.3 0-.2.1-.3.3-.2.2 0 .1 0 0-.2-.4-.3-.4-.5-.2-.7.7-.8 1-1.1.7-1.1-.2 0-.4.2-.6.5-.1.3-.4.5-.5.5-.3 0 0-.5.9-1.2.5-.6.6-1 0-.7-.1 0-.3 0-.3-.3 0-.2.2-.3.6-.2.5.1.5 0 .2-.3-.4-.4-.2-.6.5-.5.1 0 .3-.1.5-.4.2-.2.2-.3 0-.3l-.4.3c0 .2-.1.1-.1-.1 0-.3-.2-.6-.3-.6-.1-.1-.2 0-.1.2 0 .2 0 .3-.3.3-.5 0-.5 0 0-.8.4-.8.8-1 1-.3 0 .3.2.5.4.5l.3.6c0 1.4.1 1.6.4 1.8.2.1 0 .2-.3 0-.4 0-.5 0-.4.3 0 .2.3.3.4.2.2-.1.2 0 0 .2-.4.5-.2.8.4.6.4-.1.3 0 0 .2-.3.3-.6.8-.6 1.2v.4l.6-.3c.4 0 .4 0 0 .3-.1 0-.2.3 0 .5 0 .2 0 .3-.2.2h-.3c0 .2.2.3.4.3s.4.2.4.3c0 .2.2.2.5 0 .4-.3.4-.3 0 .2-.5.5-.5.6-.1 1 .5.5.5.8.1 1-.1.2-.2 0-.2-.2 0-.3 0-.5-.2-.6h-.1c.1.2.2.5 0 .8 0 .4 0 .5.5.3.4 0 .6 0 .9.4.2.4.2.5 0 .4l-.3.1c0 .1.1.3.3.3v.5c-.2.3-.1.5.3.9.2.2.4.6.3.7l.1.3c.1 0 .2.2.1.5 0 .3 0 .6.2.7.2 0 .2 0 .1-.3s0-.3.3-.2c.5.2.5.4.1.8-.2.2-.2.3.2.2.3 0 .5.2.6.5 0 .5 0 .5-.2.2-.3-.4-.3-.4-.3 0 0 .2.2.5.4.6h.3a.3.3 0 0 1 0-.5c.2 0 .4.1.4.4v.5l-.3.3c0 .2.1.2.3.1.2-.1.3 0 .1.3 0 .3 0 .4.2.2.2-.1.2 0 0 .3 0 .4 0 .4.3.2.3-.3.4-.3.4 0 0 0 .2.2.5.2.2 0 0 .2-.4.3-.5.1-.6.2-.2.2.3 0 .7.2 1 .5.1.2.2.4 0 .3-.2-.2-.2 0 0 .6.3.5.6.7.8.7.3-.1.4 0 .3.3 0 .4 0 .6.3.6.4 0 .4 0 0 .2-.5.2-.5.3-.1.3l.7.1.5.1c.2 0 .2.2.1.4 0 .3 0 .4.2.4.1 0 .3.2.3.4 0 .3.1.4.3.4.2 0 .2.1.1.2s-.4 0-.6-.3c-.4-.5-.4-.5-.3 0l.2.7c0 .1.3.2.5.1h.6c0 .2.2.4.5.5.3.1.5.3.4.4-.1.2 0 .3.2.3.3 0 .5.2.5.5s0 .4-.3 0c-.2-.2-.3-.3-.3 0l.6.6c.5.2.5.2.4-.1l.1-.6c.2-.1.3 0 .2 0 0 .6 0 1 .4.8.2 0 .4.1.4.5s0 .7-.2.7a.3.3 0 0 1-.3-.3c0-.1-.2-.2-.6-.2-.3 0-.5 0-.5-.2s-.1-.3-.3-.3c-.2 0-.3.2-.2.5.2.8-.2.5-.4-.3zm-7.8-6.8c-.2-.2-.4-.2-.5 0-.2.2-.6-.6-.6-1h-.3c-.3 0-.2.2.3.8.4.5.8.8 1 .7.3 0 .3-.2 0-.5zm-9.1-11.2-.1-.3c-.1 0-.3.1-.3.3l.1.2c.1 0 .2 0 .3-.2zm-2.9-2.3-.5.1c-.2.3-.2.3.2.2l.3-.3zm-.7-1.4v-.3c-.2 0-.3.1-.4.3l.1.2c.1 0 .3 0 .3-.2zm-1.4-2.6-.1-.4c-.1-.1-.2 0-.2.2 0 .5 0 .5.3.2zm20.1 23.7c.2-.2.4-.2.5-.2.1.1 0 .3-.3.4-.4.1-.4 0-.2-.2zm-3-2.8c0-.3 0-.3.1-.1v.5s-.2 0-.1-.4zm-7-5c-.3-.4 0-.4.6 0 .3.1.3.2 0 .2s-.6-.1-.7-.3zm-9-9.4c0-.2-.2-.5 0-.5l.3.5.2.6-.4-.6zm-2.4-5.2c-.1-.1 0-.3.2-.4.3-.1.3 0 .2.2-.1.5-.2.5-.4.2zm5.5-4v-.4c-.2 0-.5-.2-.7-.6-.2-.5-.4-.8-.5-.7-.1 0-.3 0-.4-.2 0-.1 0-.2.3-.2s.4-.1.2-.2c-.2 0-.3-.3-.3-.4 0-.2-.3-.5-.5-.7l-.2-.2c.2 0 .4 0 .5-.3a.4.4 0 0 0-.2-.5c-.3-.1-.4-.3-.3-.4.2-.3-.1-1.3-.4-1.3-.5.1-.5 0 0-.5.2-.2.2-.3 0-.2-.3.2-.3.2-.2-.1.2-.6-.3-1-.6-.5-.2.2-.2 0-.1-.6 0-.7 0-1-.2-1-.1 0-.2.1 0 .3 0 .2-.1.1-.4-.1-.6-.5-.8-1.4-.2-1 .2.1.6.2 1.1 0l-.5-.2-.7-.5a3.2 3.2 0 0 0 0-.6 3.7 3.7 0 0 1-.2-.4c0-.7-.4-1.5-.7-1.5-.1 0-.2-.3-.2-.7 0-.3-.1-.6-.2-.5-.1 0-.3-.1-.3-.4 0-.5 0-.5.2-.2.2.2.3.3.3.1l-.6-.9c-.3-.4-.4-.7-.2-1 .1 0 .3-.3.3-.5 0-.4-.1-.4-.4 0-.2.1-.4.5-.5.7-.1.3-.2.2-.1-.1 0-.3 0-.7-.2-1-.2-.2-.2-.4 0-.4.5-.2.2-.6-.2-.5h-.2v-.7c-.2-.4-.3-.5 0-.4a.3.3 0 0 0 .4 0c0-.2 0-.4-.2-.4s-.1 0 .2-.2c.4-.2.4-.2-.3-.3-.4 0-.7 0-.6-.2l-.1-.6.2.1c.4.4.6.4.8.2v-.2c-.2 0-.6-.3-1-.7-.3-.5-.4-.7-.2-.5.2.2.5.2.8 0 .3-.2.3-.2-.1-.2s-.5-.1-.3-.6c.1-.5 0-.5-.1-.2-.4.5-.3.5-.4-.9 0-.5 0-1 .2-1l-.2-.3-.5-.6c0-.2 0-.4-.2-.4 0-.1 0-.1.2 0 .2 0 .3 0 .2-.2-.4-.6-.4-1.4-.1-2 .3-.5.2-.5-.1-.2-.4.3-.4.3-.3-.2 0-.3 0-.5-.2-.5-.1 0-.2-.2-.1-.3 0-.2.3-.2.4-.1v-.5c-.2-.4-.5-.6-.6-.6-.2.1-.2 0-.1-.1.1-.2.3-.2.4-.2.1.1.3 0 .4-.2l-.1-.6c-.1 0-.3 0-.3.2-.1.2-.2.1-.3-.2-.2-.2-.2-.4 0-.3.2.2.8-.3.8-.7h-.3c-.3.3-.4.3-.4 0 0-.2.2-.4.3-.4.2 0 .3-.2.3-.5s0-.5-.2-.4c-.1 0-.2-.2 0-.7 0-.6 0-.8-.2-.8-.3 0-.3 0 0-.3l.2-.2c-.1 0-.1-.2 0-.4.3-.3.3-.4 0-.6l.2-.5c.3-.2.4-.5.3-.7-.2-.6 0-1.3.4-1 .2 0 .2 0 .1-.3-.3-.4-.3-1.6 0-1.7l.2.3c0 .5 0 .5.2 0 .2-.4 0-.7-.3-1-.4-.3-.5-.5-.2-.6.2-.1.4 0 .5.2.2.2.2 0 .1-.5 0-.4 0-1 .3-1.4.3-.3.3-.5.2-.5-.2.2-.3 0-.2-.4 0-1 .4-1.2.4-.4 0 .4 0 .5.2.1 0-.2.2-.4.3-.4.5 0 .3-.7-.2-1-.4 0-.4-.1 0-.3.2-.2.4-.4.4-.6v-.5c0-.2.2-.2.3-.1.2 0 .2-.2 0-.7-.1-.6 0-.7.2-.6.4.1.4 0 .3-.5v-.3c0 .2.2.4.4.4.1 0 .2-.2 0-.3 0-.2 0-.3.2-.3s.3-.1.2-.4c-.1-.2 0-.3.3-.2.3.1.4 0 .2-.5 0-.6 0-.7.2-.5.2.2.4.2.4 0s0-.6.2-.8c0-.3 0-.5-.2-.5-.1 0-.2.1-.1.3a.3.3 0 0 1-.1.4c-.5.2-.2-.6.4-1.2.4-.4.6-.9.5-1.5 0-.8 0-.9.6-.9.4 0 .5.1.4.4 0 .2 0 .4.2.4.4 0 .3-1.5 0-1.7-.3 0-.3-.2-.2-.3.2-.2.3-.1.4 0 0 .3.3.4.6.4s.5.1.4.3c-.1.1-.3.2-.4 0-.2 0-.3.1-.3.4l.2.4c.4 0 2-1 2-1.4 0-.1 0-.2.2-.2.1 0 .3.2.3.6 0 .4 0 .5.2.2.1-.2.2-.8.1-1.2 0-.7 0-.7.2-.3l.5.4.2-.4v-.2c0 .2.3.4.5.4s.5.1.5.3c.1.3.3.4.4.4.2 0 .2-.1.1-.4-.1-.2 0-.3.3-.3s.4-.2.3-.4c0-.2 0-.4.4-.5.6-.2.7.5 0 .7-.2.1-.3.3 0 .7.3.6.8.7.6 0-.1-.3 0-.5.5-.6 1-.3 1.2-.2 1.2.4 0 .3 0 .4-.1.2l-.4-.3c-.2 0-.2.2-.2.4.1.3 0 .4-.2.4-.5 0-.5.7 0 1h.6c.1-.1 0-.2-.1-.2-.3 0-.3 0 0-.4.3-.3.4-.3.6 0 .3.5.4.4.4 0s0-.7.2-.7.2.3.1.5c0 .4 0 .4.3 0 .2-.3.4-.4.4-.3 0 .5-1 1.4-1.6 1.4-.6 0-.6 0-.1.3.3.2.5.2.8-.1.3-.2.7-.4 1-.4.4 0 .5.1.4.6 0 .3-.2.5-.4.5-.4-.1-1.5.9-1.3 1.2 0 0-.2.4-.7.6-.4.3-.7.4-.6.2.3-.4-.5-.3-.9.2l-.6.3c-.2 0-.3.2-.2.4 0 .3 0 .4-.2.3-.2 0-.3 0-.3.2 0 .3-.2.6-.4.8-.4.2-.4.4 0 .7.2.4.2.4-.3 0-.4-.3-.5-.3-1 .3l-.8 1c-.2.3-.3.6-.2.7 0 .3-.4.2-.6-.2l-.1.3c0 .4-.2.6-.6.6-.3 0-.5.1-.5.3 0 .1 0 .2.2.1l.3.1c0 .1-.2.4-.5.5-.3.2-.5.6-.4 1.1 0 .6 0 .7-.3.5-.4-.3-.5 0-.4.8 0 .4 0 .4-.4 0-.3-.2-.4-.2-.3 0 .3.4-.7 2-1.4 2.4-.4.2-.4.3 0 .3.3 0 .5-.1.5-.3 0-.1.1-.2.3-.2.2 0 .2.3-.3 1.5-.1.4-.4.8-.6.7v.3c.3.4.2.7 0 1.2-.2.3-.3 1-.2 1.4 0 .4 0 .7-.2.7a.3.3 0 0 0-.3.3c0 .1.1.2.3 0 .1 0 .2 0 0 .3 0 .2-.2.4-.3.4l-.3.3c0 .2.2.2.3.1.1 0 .3 0 .4.2 0 .1 0 .2-.2.2s-.4.3-.3.6c0 .4.1.6.3.5.2 0 .3.1.2.2 0 .2-.3.2-.5.1-.1 0-.2 0 0 .3 0 .2 0 .4-.2.4s-.2.2 0 .5.2.6.1.7c0 .1 0 .3.2.4.3.2.3.3 0 .3-.1 0-.2.1-.1.3v.2c-.3 0-.3 1.3 0 1.5l-.2.8c-.1.3 0 .7.1.9.2.2.2.4 0 .7-.4.4 0 .5.4 0 .3-.2.3-.1 0 .4-.2.4-.4.7-.5.6h-.2s.2.3.6.4c.5.2.5.2 0 .3-.5 0-.5 0 0 .4.3.2.5.4.3.4l.3.4c.4.3.4.4.1.4a3.2 3.2 0 0 1-.6 0s-.1.2 0 .4c0 .2.2.4.4.4l-.2.6c-.4.6-.3.6.2.5.5-.1.5-.1.3.2-.4.5-.4 1.3 0 1.3l-.2.4c-.5.3-.5.4-.2.6.2.2.3.5.2.9-.2.5-.2.5.2.2.2-.2.3-.5.2-.6 0-.2 0-.1.3 0 .5.4.4 1 0 .7-.2 0-.3.1-.3.4 0 .3 0 .6.2.6l.2 1c0 1 0 1 .3.8.3-.3.4-.3.2 0l.1.3c.2 0 .2.1 0 .4-.1.3 0 .7.1 1 .3.4.2.5 0 .7-.4.2-.4.3-.1.3.2 0 .2.1.1.3 0 .2 0 .1.4-.2.5-.4.6-.4.4 0 0 .2 0 .4.2.4.3 0 .2.1 0 .3-.3.1-.7.2-.8.1 0 0-.2 0-.2.3 0 .2.1.3.4.1.4-.2.6 0 .8.4.3.4.3.5 0 .2-.5-.5-.7-.4-.6.2.1.7.9 1.8 1.2 1.8.2 0 .2.2 0 .3 0 .2-.2.2-.3 0-.2-.3-.2-.2-.3.3 0 .5.2.7.5.7h.1c-.3.1-.4.4-.3 1l-.3.1c-.2 0 0 .2.2.4l.4.7c0 .2.1.2.3.1.2-.1.2 0 0 .3-.2.4-.2.7 0 1 .3.2.3.2 0 0-.3-.1-.4 0-.3.2.1.2.4.3.7.3h.2c-.2.2-.3.5-.2 1 .1.4 0 .6-.2.4-.2-.1-.3-.1-.2 0 .2.3.4.3.5.3.1-.1.2 0 .2 0s0 .4-.2.4-.3 0-.3.2.1.2.3.2c0-.1.2 0 .2.3s-.3.5-.6.5c-.4 0-.4 0-.3-.6zm-4-23.7-.1-.4c-.1 0-.3.2-.3.4l.1.4.3-.4zm-4.2-4.5c-.1-.2-.2-.4-.3-.3v.4c.3.4.4.4.3-.1zm4.5-10.7s-.3 0-.5.2c-.2.3-.2.3.2.2.2-.1.4-.3.3-.4zM176 181c0-.2 0-.3-.2-.3s-.2.1-.1.3l.2.2.1-.2zm7-.5-.4.2c-.3.2-.2.3.1.1.3 0 .4-.2.4-.3zm-3.7-5.3c-.2 0-.3-.5-.3-1s-.1-.6-.3-.4v1c0 .3 0 .6-.2.6s-.3.1-.3.3h.7c.3-.3.5-.4.4-.5zm11.3-1c0-.2-.1-.3-.3-.2-.1 0-.2.2 0 .4.1.3.3.3.3-.2zm-4.2-1.4-.3-.6c-.2-.3-.3-.2-.3.2s.2.6.3.6c.1 0 .3 0 .3-.2zm-1.6-.6a.3.3 0 0 0-.3-.2.3.3 0 0 0-.3.2.3.3 0 0 0 .6 0zm2.9-.2a.3.3 0 0 0-.3-.3.3.3 0 0 0-.2.3.3.3 0 0 0 .5 0zm-.8 57.2c0-.3 0-.3.2-.1v.5c-.1 0-.2 0-.2-.4zm-9-17.8c0-.1.1-.3.3-.3.1 0 .2.2.1.3l-.3.3-.1-.3zm-.5-15.3c0-.2.1-.3.3-.3.1 0 .2.1 0 .3l-.2.2-.1-.2zm-4.4-11c0-.2 0-.3.2-.3.1.1.1.3 0 .4-.2.4-.2.3-.2-.1zm8.2-1.2s0-.2.3-.2c.2 0 .3.1.2.2 0 .2-.2.3-.2.3l-.3-.3zm4.4-4.8c0-.1 0-.3.2-.4.2 0 .2 0 .1.3-.1.4-.3.5-.3.1zm-4.7-7c-1.1-.2-1-.8 0-.7.8 0 1.5.4 1 .6h-1zm3.6-1.2.6-.2c.3 0 .5 0 .4.1-.3.3-1 .4-1 .1zm-59.7-66.3c-.1-.3 0-.5.1-.6.2 0 .3-.2.2-.3-.1-.2.4-.4 1-.3l.5-.4c.3-.4.3-.4 0-.1-.4.2-.5.2-.7-.1 0-.3 0-.7.2-1 .1-.2.2-.6 0-.8 0-.2 0-.2.4 0 .5 0 .7 0 .9-.6.1-.4.5-1 .7-1.1.3-.2.3-.3 0-.2-.2.2-.2 0-.1-.3l.2-.6c0-.2.2-.3.6-.4.3 0 .6-.2.6-.4v-.7c0-.2.2-.3.3-.3.2.1.3 0 .3-.5 0-.3.1-.6.3-.6.2 0 .2-.2.1-.4 0-.3 0-.4.3-.4.2 0 .4-.2.5-.3 0-.1-.1-.2-.5-.1-.5 0-.5 0-.1-.3.3-.2.4-.4.3-.5-.1 0 0-.2.3-.2.2 0 .4 0 .3-.2-.1-.2-.3-.2-.4-.2-.5.3-.3-.4.3-1l.3-.3-.4-.1.3-.3c.2 0 .3 0 .2-.2l.1-.5c.2-.2.2-.4-.1-.5-.3 0-.4-.3-.3-.4 0-.1.3-.2.4 0 .2 0 0-.3-.5-.7-.8-.8-1.3-1.7-.9-1.7.3 0 .4.4.3 1h.2c.4-.2 0-1.2-.4-1.2-.2 0-.3-.1-.2-.3.1-.1 0-.2-.2-.2l-.7.2c-.2.2-.2.2 0 0 .3-.5.3-1.3 0-1.3-.2 0-.2-.1-.1-.3 0-.2 0-.2-.4 0-.6.3-.6.3-.3-.2.2-.4.2-.5-.3-.4-.7.2-1-.4-.3-.8.4-.4.4-.4-.1-.2-.4 0-.6 0-.6-.2a.3.3 0 0 0-.3-.3c-.2 0-.2.1-.2.2.1.1 0 .3-.3.3-.5 0-.5 0-.1-.4.3-.4.3-.5-.5-1-.6-.4-1.2-.6-1.7-.6-.5.1-.6 0-.4-.2.5-.4.3-.8-.2-.4-.2.2-.3.3-.2.1 0 0 0-.4-.4-.6-.4-.2-.6-.3-.7 0-.1 0-.4.2-.7.1-.3 0-.6 0-.7.2-.2.2-.2.2-.2 0s-.2-.3-.3-.2l-.3-.1c0-.2-.1-.3-.2-.2-.6.4-1.4.4-1.5.1-.1-.2 0-.2.2 0 .3.1.3 0 0-.2-.3-.3-.4-.3-.5 0l-1 .4-1 .4c-.3.3-1.3 0-1-.4l-.4.2c-.4.3-.7.4-1 .2-.3-.2-.4-.1-.6.1 0 .3-.3.4-.6.4-.4 0-.4 0 0-.2.5-.2.5-.3.2-.3s-.6.1-.7.3a.5.5 0 0 1-.4.2c-.7 0-1 0-1 .3.1.2 0 .4-.2.5-.3 0-.4 0-.3-.3V81c-.2-.1-.3 0-.2.2 0 .2-.2.3-.6.3-.5 0-.6 0-.3.1.3.2.2.4-.3.9-.3.3-.5.5-.4.3.3-.5 0-.4-.8.3-.4.4-.8.7-1 .7-.2 0-.4.2-.4.4s-.1.3-.3.2c-.1 0-.2-.3 0-.4 0-.2 0-.3-.1-.2-.3.3-.4 1 0 1l-.2.4c-.3.3-.5.6-.5.8 0 .2-.1.5-.4.8l-.2.2c0-.2 0-.3-.2-.3-.3 0-.5-.1-.5-.2-.1-.1-.1 0 0 .1 0 .6-.3 1.1-.7 1-.3-.2-.4-.1-.3.3.3.6-.3 1.4-.6.9-.1-.3-.2-.2-.2.2 0 .3.2.6.3.6.2 0 0 .2-.3.4s-.5.6-.4.8c0 .2 0 .3-.6.3-.5 0-.6 0-.5-.4.1-.2 0-.3 0-.2-.3.3-.3 1.4 0 1.4l.3.5c0 .4-.1.6-.3.5-.4-.1-1.2.4-1 .7.1.2 0 .2-.3 0l-.3-.6s0-.3-.3-.5c-.4-.3-.4-.3-.2 0 .2.4.3.5.3 1.4 0 .3.2.4.4.3l.2.1-.2.5-.3-.1-.5-.3c-.3 0-.6.1-.6.3H97c-.5 0-.5 0 0 .2.2.1.5.2.6.1.2 0 .3 0 .3.3 0 .2-.2.3-.4.2-.2 0-.4.1-.5.6-.2.5-.3.6-.6.3-.3-.2-.4-.2-.4.2 0 .3 0 .4-.1.2s-.3-.3-.4-.2c-.1 0-.2.3 0 .5 0 .2 0 .5-.2.6-.2 0-.3 0-.3-.2 0-.1-.1-.2-.3 0-.2 0-.2.3-.1.5.2.5-.3.4-.6 0-.2-.5-.3-.5-.6 0-.3.2-.4.3-.7 0-.4-.3-.5 0-.1.5.2.3.3.3.6 0 .5-.5.8-.6.6 0-.1.2-.4.4-.6.4-.2 0-.3.1-.2.4.2.4.1.4-.2 0-.3-.3-.6-.4-.8-.4-.3.1-.4 0-.3-.4.1-.5 0-.5-.2 0-.3.8-.4 1-.4 1.4 0 .2-.3.2-.7.1-.5-.1-.5-.1-.3.2.3.3.2.5-.3 1-.3.5-.5.9-.4 1l-.3-.2c-.7-.4-1 0-.3.5l-.5-.2-1.3-.5c-.2 0-.1.1.2.2.5.2.5.3-.1.3-.5 0-.6 0-.4.3.3.3.2.4-.3.3-.3 0-.7 0-1-.2-.1-.1-.4 0-.6.1-.2.2-.1.3.3.2.4-.2.4-.2 0 0-.4.4-3-.3-2.7-.7.1-.1-.1-.2-.5-.1l-.7-.1c0-.2-.3-.2-.6-.2-.5 0-.6 0-.6-.4 0-.2.2-.4.4-.3.1 0 .2-.2.2-.5l.1-.5c.1 0 .3.2.3.4 0 .5.3.5.7 0 .2-.2.7-.3 1.2-.3.6 0 1 0 1-.2 0-.3.2-.3.6-.3.4.1.7 0 .7-.1 0-.2-.1-.3-.3-.2-.1.1-.2 0-.2-.1 0-.3.1-.3 1-.4.6 0 1.7-1.4 1.5-1.8-.1-.2-.1-.2 0-.1.2.2 1.3-.8 1-1.1 0-.2.1-.4.4-.5.3 0 .6-.2.6-.4 0-.1-.2-.2-.3 0-.2 0-.3 0-.1-.2.1-.2.2-.2.5 0 .5.4.5 0 0-.5-.2-.3-.2-.4.2-.2.4.1.5.1.2-.2-.2-.3-.1-.4.4-.3.7 0 .7 0 .2-.4-.4-.5-.4-.5 0-.5s.5-.1.2-.4c-.2-.3-.2-.4.1-.6l.5-.5c0-.5.4-1.3.5-1.2.7.2 1 0 1-1 0-.5-.2-.7-.3-.5v.5c0 .1 0 .2-.2.2-.4 0-.4 0 0-.9.2-.3.4-.6.6-.5.1.1.2 0 0-.1 0-.2 0-.3.2-.3.3 0 .3-.1 0-.3-.4-.2-.4-.2 0-.2.5 0 .7-.5.2-.7a.6.6 0 0 1-.2-.5c0-.2 0-.2.1 0 .2.5 1-.2 1-.9 0-.4 0-.4.2 0 .2.2.2 0 .2-.5s-.1-.8-.2-.7c-.2 0-.3 0-.3-.2 0-.3.5-.6.6-.3 0 .2.3 0 .6-.1.4-.3.4-.4.1-.3-.5.2-.5-.3 0-1 .2-.2.2-.4.1-.5h.3c.4.1.5 0 .3-.1 0-.2 0-.3.3-.4.5 0 .4 0 0-.2-.3-.1-.4-.2-.2-.2s.3-.3.2-.6c-.1-.4 0-.5.2-.4.4.2.5-.3 0-.9-.1-.3 0-.3.4 0 .6.3.6.2.3-.2-.2-.4-.1-.6.2-1 .3-.3.3-.5.1-.8-.2-.2-.2-.3.1-.3.2 0 .4.1.4.3 0 .1.2 0 .4-.3.2-.2.3-.6.2-.9-.1-.2 0-.3.2-.1.2.1.3 0 .2-.2-.1-.3 0-.6.3-.7.4-.3.4-.3 0-.3s-.6-.7-.2-1l.6-.9.5-.6-.7.6c-.6.6-.8.6-.6.2l.2-.7c0-.2 0-.2.2-.1s.3-.1.3-.7l-.1-.8c-.2-.4-.2-.5.1-.4.2.2.3.1.1-.1-.3-.5-.4-1.8 0-2 .3-.3 0-.7-.5-.5-.3.1-.4 0-.4-.3 0-.2-.1-.3-.3-.2-.2 0-.2 0-.1-.2 0-.1.3-.2.4-.1.1 0 .3 0 .4-.2.1-.2 0-.2-.1-.1-.2.1-.3 0-.3-.3s0-.4-.4 0c-.3.2-.4.2-.3-.2.1-.2 0-.4-.1-.6-.3-.1-.2-.2 0-.3.4-.3-1.3-2.2-2-2.2-.4 0-.4 0-.1-.4.3-.3.2-.4-.4-.4-.5 0-.6 0-.5-.4.2-.4.1-.4-.3-.1-.3.3-.4.3-.4 0s.1-.5.3-.6c.2-.1 0-.1-.4 0-.5 0-.7 0-.6-.2.4-.5-.1-.8-.8-.4-.5.3-.6.4-.5 0 .1-.1 0-.4-.1-.5-.2 0-.2-.3-.1-.5 0-.2 0-.1-.3 0-.5.5-.4.5 0 .7.4.1.4.2.1.2-.6 0-1-.5-.9-1 .1-.2 0-.3-.6-.3-.5 0-1 0-1.2-.2-.3-.3-.4-.3-.5 0-.1.2-.2.1-.2-.2 0-.2-.2-.4-.4-.5a13 13 0 0 1-.8 0c-.1 0-.5 0-.8.2-.4.1-.5.1-.3-.2 0-.2 0-.3-.4-.3s-.4 0-.2.4c.3.3.3.3 0 .1-.2-.1-.5 0-.6.2-.2.2-.2.2-.1-.2 0-.4 0-.7-.2-.8-.2-.1-.2 0 0 .1 0 .2 0 .3-.2.3a.3.3 0 0 1-.3-.3l-.3.1-.3.6c.1.1 0 .1-.1 0-.2 0-.3-.3-.2-.4l-.1-.4c-.1 0-.3 0-.4.2-.1.1-.4.2-.7 0-.2 0-.5 0-.6.2l-1 .2c-.5 0-.7-.1-.6-.5 0-.4 0-.4-.6-.2-.3.2-.6.5-.7.8-.1.3-.1.3-.2 0 0-.4-.1-.5-.4-.4-.2.1-.3.3-.2.5l-.7-.6c-.5-.6-.8-.8-.7-.5.1.3 0 .5-.3.5l-1.4-.2c-.5-.1-.6 0-.3.1.4.3.4.3 0 .3l-.8-.4c-.4-.4-.4-.3-.7 0-.3.4-.3.4.1.3.4-.2.4-.1.2 0-.2.2-.6.3-1 .2-.3-.1-.4 0-.3.1.1.2 0 .3-.1.3-.2 0-.3-.1-.2-.3.2-.6-.2-.8-.6-.4-.1.2-.2.4-.1.5l-.4.1c-.3 0-.5 0-.4-.2.2-.3-.2-.2-.8.3-.3.2-.4.3-.3.1.2-.3-.6-1-.8-.8-.1.1 0 .2.1.2s.3.1.2.3c-.1.1-.4.2-.7 0-.5 0-.5 0-.4.5 0 .3 0 .5-.3.4-.2-.1-.5 0-.8.2-.4.3-.4.3-.2-.1l-.1-.5c-.2 0-.3.2-.3.4 0 .3 0 .4-.1.3l-.7.1c-.6.3-.7 0 0-.4.3-.2.3-.4 0-.5-.2-.2-.3-.1-.1 0 0 .2 0 .4-.2.4a2 2 0 0 0-.9.4c-.4.4-.4.4 0 .3.3-.1.4 0 .4.2 0 .3-.1.4-.4.3-.2 0-.4 0-.4.2l-.2-.2c-.1-.2-.3-.4-.3-.2s-.1.3-.3.2c-.1-.1-.2 0-.2.3s-.3.6-.6.7l-1.1.6c-.3.3-.4.3-.3.1v-.3c-.2 0-1 1.5-.7 1.7 0 .1 0 .2-.2.2s-.3 0-.2.2c0 .1-.2.3-.4.3-.7-.2-1-.2-.8.3 0 .3.3.4.5.3.3 0 .2 0-.2.3-.4.2-.7.3-.8.1-.1-.2-.2-.2-.4 0 0 .2 0 .3.2.3.3 0 0 1.1-.4 1.4v.3c.3.2.2.5-.2 1-.3.4-.6.7-.7.6-.2 0-.3 0-.3.2a3.6 3.6 0 0 1 0 .7c-.1.2 0 .4.2.5.2 0 .2 0 0 0a.3.3 0 0 1 0-.5c0-.2.2-.1.3 0 .1.3 0 .6-.2 1-.5.5-.8 1.6-.3 1.3.3-.2.3-.1 0 .2-.3.4 0 2 .5 2 .1 0 .3.3.3.7 0 .3.2.5.4.5.1 0 .6.2 1 .6.6.5.7.6.2.6-.3 0-.5-.2-.4-.3 0-.2 0-.2-.1 0-.3 0-.3.3 0 .6.1.3 0 .5-.2.6-.2.1-.3 0-.3-.2.2-.3-.4-.7-1-.8-.2 0-.3-.2-.2-.5 0-.5 0-.5-.3 0-.4.4-.5.4-.8.2-.2-.3-.2-.4.1-.4.3 0 .5 0 .5-.2 0-.4-.7-.9-1-.7l-.5-.1c0-.2-.2-.2-.3-.2-.3.2-.2-.6 0-1.2.2-.3.2-.7 0-1-.2-.4-.2-.5 0-.4l.2-.1c0-.2-.1-.3-.3-.3l-.2-.4c0-.2-.1-.4-.2-.3-.4.2-.2-1.7.2-2 .3-.3.3-.3 0 .1-.4.5 0 .8.4.4.3-.3.2-.5-.2-.9-.4-.3-.4-.5-.2-.6.3-.2.2-.3-.2-.3s-.4 0-.1-.2c.4-.3.6-1.9.2-2.3-.2-.3-.1-.3.2-.2.4.1.4 0-.1-.5l-.7-.5.6.1h.5s0-.4.3-.6c.4-.5.4-.5-.2-.4h-.4a.9.9 0 0 1 .4-.3 9.8 9.8 0 0 0 .4 0c.1 0 0-.4-.3-.7l-.1-.2.8.3c.3 0 .3 0 0-.3-.2 0-.2-.3-.1-.5l.2-1c.1-.9.2-.9.4-.7.4.2.4-.3 0-.6-.3-.3-.3-.4 0-.4.2 0 .2 0 .1-.3-.1-.2 0-.2.3 0 .4.4.4.4.3 0-.2-.4-.1-.5.1-.3.4.2.4.1.1-.2-.2-.2-.3-.5-.2-.5l.2-1c0-.8.2-1 .9-1.1.4-.1.6-.2.3-.2-.2 0-.4-.2-.4-.4.3-1.1.6-1.5.8-1.4.4.1 1-.9 1-1.7 0-.3.2-.8.5-1l.4-.4c-.2.3 0 .3.4 0 .3 0 .5-.3.4-.5-.2-.3-.5-.3-.2.1v.1c-.2 0-.3-.4-.3-.8 0-.5 0-.6.3-.3.3.2.3.2.3-.1 0-.2-.2-.5-.3-.5v-1c.2-.5.3-.6.3-.2v.5l.3-.5c.2-.6-.1-1.4-.6-1.8-.2-.2-.1-.2.2-.1.3.1.4 0 .3-.3-.1-.3 0-.4.3-.2.4.1.4 0 0-.5-.5-.8-.6-1.3-.2-1.1l.3-.1c0-.2-.2-.3-.4-.3l.2-.5c.5-.5.5-.6 0-.6-.4 0-.4 0-.1-.2.3-.2.2-.4-.3-.3-.2 0-.2-.3-.2-.7 0-.4-.1-.6-.3-.5-.2.1-.2 0 0-.3s.5-.5.6-.4c.1 0 .1-.1 0-.4-.2-.3-.5-.6-.7-.6-.2 0-.2.1 0 .3.3.1.4.3.3.4-.3.3-.7-.4-.5-1 0-.6 0-.7-.7-.9-.4 0-.6-.2-.4-.3.2 0 .3-.2.3-.4 0-.1-.1-.2-.3 0-.2 0-.2 0 0-.2 0-.2.2-.2.4 0 .3.2.4.1.4-.1s-.1-.4-.2-.3c-.3.2-.8-.5-.6-.8.1 0 0-.1 0-.1-.6.1-1.5-.3-1.3-.6.3-.5.3-1 0-1-.1 0-.2-.2-.2-.5 0-.4 0-.4-.3 0-.3.5-1.2 0-1-.7 0-.3-.1-.4-.3-.3-.1.1-.3 0-.3-.3 0-.4 0-.4-.5 0-.3.3-.5.4-.6.2-.1-.2 0-.3 0-.2a.4.4 0 0 0 .5-.3c.1-.2 0-.2-.4-.2a1 1 0 0 1-.8-.2c-.2-.3-.5-.3-.6-.3-.2.1-.2 0-.1 0 .1-.3.3-.3.4-.3.2.1.3 0 .3-.1 0-.2-.3-.2-.8-.1l-.8-.1c0-.2-.3-.4-.6-.6-.5-.3-.6-.2-.1 0l.4.8c0 .3 0 .3-.2 0-.1-.2-.4-.2-.6-.1-.2.1-.2 0-.1 0 0-.2 0-.4-.3-.5-.2-.1-.3 0-.2.1.1.2 0 .2-.1.1-.2 0-.3-.4-.2-.6.1-.3 0-.3-.2 0-.3.2-.4.2-.5 0 0-.2-.4-.4-.8-.4-.5 0-.7-.1-.6-.3.1-.4-.3-.4-.9 0-.1 0-.5-.1-.8-.5-.5-.4-.5-.5-.4-.1.1.4 0 .5-.6.4a27.5 27.5 0 0 0-1-.2v-.3c.1-.2 0-.2-.3.1-.4.3-.6.4-.8.2-.1-.2-.2-.2-.5 0s-.3.2-.2-.3v-.3c-.2.2-.5.3-.8.3s-.8.2-1 .4c-.3.2-.3.2-.1 0l-.1-.4c-.2 0-.4.2-.6.5-.1.3-.2.3-.2 0 0-.1-.2-.2-.4-.1-.3 0-.4 0-.4-.3 0-.2-.2-.3-.3-.3-.1 0-.2 0-.2.2 0 .6 0 .8-.7.6-.5-.2-.8-.2-1 0-.6.6-1 .5-1-.1 0-.4 0-.5-.2-.3-.1.2-.5.4-.9.4-.3 0-.6.2-.5.3.2.6-.7.6-1.1 0l-.4-.2v.5c-.2.1-.3 0-.3-.2l-.4.2c-.3.4-.4.4-.3.1.2-.5-.4-.5-1 0-.4.3-.6.2-.5-.3 0 0-.2-.1-.4 0-.2 0-.4.2-.4.3 0 .1-.3.4-.8.7l-.7.2c0-.2-.2-.3-.4-.4-.3-.1-.4 0-.3.3.2.2.1.3-.1.2-.2-.1-.3 0-.3.2s0 .2-.3 0v-.7c0-.2 0-.2-.3 0s-.4.5-.3.6c0 .1-.4.2-1 0-.6 0-1.2 0-1.4.2-.2.2-.4.3-.5.1-.1-.1-.6-.2-1-.1a9.9 9.9 0 0 1-1.6 0c-.4 0-.7.2-.7.3s-.3.2-.6.2c-.4 0-.8 0-1 .2-.3.1-.7 0-1-.4-.4-.3-.6-.4-.6-.2 0 .4.1.6.3.6.1 0 .2 0 0 .2a.4.4 0 0 1-.4.2c-.2-.1-.5 0-.7.3-.2.2-.3.3-.2 0 .1 0 0-.5-.4-.8-.3-.4-.5-.5-.4-.3 0 .3 0 .7-.2 1-.3.3-.4.3-.4.1 0-.2 0-.3-.2-.2l-.7-.1c-.5-.3-.5-.2-.2 0 .4.5.4.7-.1.7-.2 0-.4-.1-.4-.3 0-.2-.3-.3-.7-.3-.3 0-.6.1-.6.3h-.3c-.2-.1-.2-.3.1-.5.4-.3.4-.4 0-.5h-.2c0 .2-.1.5-.5.8-.4.3-.4.4-.1.3h.5c0 .2-1 .8-1.2.8-.2 0-.1 0 .1-.2.3-.2.3-.3-.3-.3-.4 0-.8-.1-1-.3-.2-.3-.3-.2-.5.3 0 .5-.2.5-.5.1-.2-.2-.5-.3-.6-.2-.2.1-.6 0-1-.3-.6-.4-.7-.4-.5 0l-.1.4c-.2 0-.4-.3-.3-.8h-1c-.7 0-1-.1-1.1-.3 0-.2-.1-.1-.2.2-.2.4-.3.5-.3 0 0-.2-.1-.4-.3-.4s-.2.1 0 .3c0 .2 0 .2-.5 0-.4-.3-.5-.2-.6.3-.1.4-.1.4-.2-.3 0-.8.4-1.3.7-.8.1.2.2.2.4 0 .2-.4.2-.4.2 0 0 .1.1.2.3.1.1 0 .2-.3 0-.6 0-.3 0-.3.2-.2.2.1.6 0 1-.3.4-.2.6-.3.5-.1-.4.8 1.8 0 2.6-1 .5-.4.5-.4.2.2-.3.6 0 .8.5.2.2-.3.4-.4.6-.3.1 0 .2 0 .2-.2 0-.3.2-.4.5-.4l.8-.1c.2-.2.3-.2.3 0s.1.2.3.2c.1-.1.2 0 .2.1 0 .2.2 0 .4-.3.4-.7.6-.7 1-.2.1.3.2.3.2 0 0-.2.2-.3.5-.3s.6-.1.6-.3c.1-.3.7-.5 1.6-.6.2 0 .4 0 .3-.2l.3-.3c.2-.1.5 0 .6.1 0 .2.3 0 .5-.2.1-.2.4-.4.6-.3.1.1.4 0 .7-.3.3-.3.6-.5.8-.5.1 0 0 .2-.4.5s-.5.5-.4.5c.4 0 1.5-1.1 1.5-1.5 0-.2 0-.3.2-.3s.2.1.1.3c0 .2 0 .1.2-.1s.8-.4 1.3-.4c1 0 1.7-.5 1.4-1 0-.1 0-.2.1 0l.5-.1c0-.2.5-.2 1-.2s.7 0 .6-.3v-.3l1-.3c.5-.3.5-.3 0 0-.4.4-.4.5 0 .5.2 0 .5-.2.7-.5.1-.2.3-.3.3-.1 0 .2.2.3.5.3.2 0 .4-.2.4-.5 0-.2.2-.4.5-.4l.5-.1-.5.2c-.5.3-.5.3.1.3.5 0 .6-.1.5-.6 0-.5 0-.6.7-.7.5 0 1.1-.3 1.5-.5.6-.4.8-.5 1-.2.3.2.5.1.9-.3.4-.5.5-.6.5-.2 0 .2.1.3.2.3.2-.1.3-.3.2-.4-.3-.4.5-.5.9-.1.1.2.4.3.6.3.2 0 .2 0 0-.2-.3-.2-.3-.3-.1-.4h.3l.3-.2c.2-.4.4-.4.6-.3.2.2.4.2.7-.2.3-.5 1.5-.4 1.2 0-.1.2-.3.2-.5.1-.1-.1-.2 0 0 .1.2.5.9 0 .9-.5 0-.3.1-.5.4-.5.2 0 .4-.1.4-.3l.5.1c.3.2.6.2.7.1.1-.1 0-.3-.1-.3-.2-.1-.3-.3-.2-.4.1-.2.3 0 .5.2s.5.3.7.2c.2-.1.2-.3 0-.5-.3-.4-.3-.4 0-.3.3.1.5.3.5.4l.3.3c.2 0 .2-.3.1-.6-.1-.6-.1-.6.3-.1.2.3.4.4.4.2 0-.3 0-.3.3 0 .3.2 1 0 1-.4 0-.5 0-.5.2-.2s.3.2.7-.1l.4-.2c0 .1.2.3.5.4.3 0 .5 0 .5-.3 0-.5.9-.7 1.2-.3.2.3.2.3.2 0 0-.2.1-.3.3-.2.5.2 1-.5.7-.8-.2-.2-.1-.3.3-.2.3.1.5.3.5.4 0 .2.3.2.5 0 .4-.2.7-.1 1 .2.5.3.6.3.5 0 0-.2 0-.4.4-.4s.5.1.4.5c-.1.7.1.6.4-.1.2-.5.4-.7.9-.6h.2c-.1-.1-.3-.3-.3-.5s.2 0 .5.3c.2.3.6.5.8.4.2 0 .3 0 .2.2-.1.1 0 .2.4.2.5 0 .5 0 0-.6-.2-.3-.3-.4 0-.3.4.3 2.4.4 2.4.1 0 0 .1-.2.4-.2.2 0 .3-.1.2-.3-.1-.2 0-.2 0-.1.3 0 .3.4.2.6-.1.3 0 .4.2.2.2-.1.4 0 .6.2.2.2.2.2.1-.2 0-.3-.1-.6-.3-.7-.2-.1-.1-.2 0-.2a.6.6 0 0 1 .5.2c.1.2.3.3.5.3.1 0 .2-.1 0-.2 0-.2.2-.2.5-.1.4 0 .5 0 .4-.2-.1-.1 0-.3.1-.3.2 0 .3.2.2.5-.1.5 0 .5.4.3.3-.2.7-.2.8-.2h.5c.1-.5 1.2-.6 1.4-.3.1.2 0 .2-.1.1-.3-.1-.3-.1-.2.1.2.3.3.3.6 0 .2-.4.4-.4 1-.2.9.3 1 .3.9 0-.1 0 .3-.2.9-.2.5 0 1 0 1 .2 0 .1.2.3.4.3.2.1.4 0 .3-.1 0-.2.1-.3.3-.4.2 0 .3 0 .3.4 0 .2.1.3.2.1 0-.2.3-.2.5-.2.2.1.4 0 .5-.1.1-.2 0-.3-.1-.3-.2 0-.3 0-.2-.1.2-.3 1 .2.8.5h.3c.2-.3.4-.3.4-.2 0 .2.2.3.7 0h.6c0 .3 1.5.3 1.7 0 .1-.2.2-.2.2 0 0 .3.1.3.5 0h.5c0 .3.2.5.5.6.3.2.6.2.6 0l.4-.4c.2 0 .4 0 .3.1-.1.1 0 .4.2.5.4.4 1.5.1 1.3-.3 0-.2 0-.1.2.1.5.5 1.2.6 1.4.3.2-.2.3-.2.6.2.2.2.3.3.2.1 0-.2 0-.3.2-.3.1 0 .2-.1 0-.3 0-.1.1-.2.4 0 .3 0 .3.1 0 .3v.3c.2.1.6 0 .8-.3.4-.4.6-.5.7-.3.1.2.3.2.5.1s.2 0 .1.3c0 .3 0 .4.1.3h.6c.3.3.8.3 1.8 0 .4-.2.5 0 .5.2 0 .4 0 .4.4.1.2-.2.3-.5.2-.6 0-.1 0-.1.2 0 .3.2.6.3.7.2l-.2.4c-.5.5-.5.5.2.4.4 0 1-.3 1.3-.6l.3-.2c-.3.4.8 1.3 1.2 1.1.6-.4 1-.3 1.3.2.4.6.8.7.6.1 0-.2 0-.3.4-.3.3 0 .6.2.6.4 0 .3 0 .3.4 0 .3-.2.4-.2.3 0-.1.1 0 .3.2.4a.5.5 0 0 0 .7-.2c.2-.4.3-.4 1 0 .6.3 1.1.5 1.4.5.2 0 .4 0 .3.2a.5.5 0 0 0 .2.6c.2.1.2 0 0-.2 0-.2 0-.3.3-.1l.6.1v.3c-.2.3 0 .3.5.2.4 0 .9 0 1.1.3.4.3.4.3.6 0 .3-.3.4-.1.3.4l.7-.2c.5-.3.8-.3.8-.1h.5c.3-.3.3-.2.2.2-.1.5.3 1 .6.7.1-.1 0-.3-.2-.4-.2-.2-.3-.3 0-.3.2 0 .4.3.6.6l.2.6V17c0-.6.1-.6.4-.3.2.1.4.4.4.6 0 .2-.1.1-.3-.1-.2-.3-.2-.3-.1 0 0 .4 1 .6 1 .2 0-.4.5-.2.7.4.2.3.3.5.3.3s.2-.4.5-.4c.3-.1.5 0 .5.3 0 .2.1.4.3.4l.9.2c.2.1.6.2.7 0 .1 0 .3 0 .4.2.1.2.3.2.5 0 .2 0 .7-.2 1.1-.1a74.3 74.3 0 0 0 1.6.4c-.1.1.1.3.5.5s.6.4.5.6c0 .1 0 .2.2 0 .1 0 .2-.3.1-.5 0-.3 0-.3.2-.2.1 0 .2.4.1.6 0 .3 0 .6.2.7.1.1.2 0 0-.1 0-.2 0-.3.2-.3l.4.3h.5l.8-.4c.5-.2.5-.2 0 .2-.4.3-.3.3.3.6.5.3.8.3 1 0h.6c0 .2.3.3.5.2.4-.1.4 0 .2.2-.3.3-.2.3.2.3.2 0 .4 0 .3-.2 0-.2 0-.2.2 0s.5.3.7.2l.8.5c.4.6.6.6 1.2.4.6-.1.8-.1.7.1 0 .2 0 .5.2.7.3.2.4.3.4 0 0-.2.2-.1.5.2.5.4.5.4.4-.1-.2-.4 0-.5.5-.5.7 0 1 .4.4.5-.2 0-.1 0 .2.2.7.3 1 .3.7 0 0-.2.1-.2.4.1.7.6 1.6.8 1.6.4 0-.2.1-.3.3 0 .2.1.5.2.8.1.3-.1.3-.1 0 .3-.2.3-.2.4 0 .4.1 0 .3 0 .4-.2 0-.2.5 0 1 .4 1 .7 2.2 1 2.1.5 0-.2.1-.3.3-.3.5 0 .6.3.1.5-.2 0-.3.2-.2.3.1.1.5 0 1-.3l.6-.4-.1.8c-.2.7-.2.7.1.1.4-.6.7-.7 1-.3 0 .2 0 .3-.2.2-.1-.2-.3 0-.3.1 0 .2.2.5.5.7.5.3.5.2.4-.4-.1-.6 0-.7.6-.5 1 .2 1.1.4.7.6-.2.2-.2.4.2.7.5.4.6.4.5.1-.1-.2 0-.5.1-.5.2-.1.2-.2 0-.2a.4.4 0 0 1-.3-.3c0-.3 0-.3.3 0 .2.1.6.3 1 .3.3 0 .5.1.5.4 0 .2.2.4.3.5.2.2.3 0 .2-.2-.2-.5.1-.4 1 .5.6.4.7.4.6 0-.3-.6.2-.5.7.2l.4.6-.2-.6c0-.5 0-.6.3-.6s.4.1.3.2c0 .2.2.7.6 1.2.5.4.8.6.7.4 0-.2 0-.4.2-.4.3 0 .4.2.3.5v.3c.1-.2.3-.3.4-.2.2 0 .4 0 .5-.2 0-.2 0-.2-.2-.1-.1 0-.3 0-.3-.3 0-.4.2-.4.7.2.4.4 1 .8 1.2.8.3 0 .5 0 .4.2-.1.2 0 .2.2.1.3 0 .4-.2.2-.5-.2-.2-.2-.3.3-.3.4 0 .6.2.6.3l.1.2c.2 0 .3 0 .2.2 0 .1.2.4.5.6.5.2.6.4.3.5-.1.1-.2.2 0 .2.4 0 .8-.3 1-.7.1-.3.1-.2 0 .1 0 .5.7 1.6 1 1.3l.8.4c.3.3.5.5.3.4-.2 0-.4 0-.4.2 0 .3.2.4.4.3.3 0 .5 0 .6.3.2.6 1.2 1.5 1.2 1.2 0-.2 0-.3.2-.3s.3.1.2.3c-.2.3.6.9 1.4 1h1.6c.5 0 .8.2.7.3v.3s.4-.2.4-.5c0-.4 0-.4.2 0 .2.3.3.6.2.7-.1.2 0 .3 0 .4.2.1.3 0 .3-.1 0-.2 0-.4.3-.5.2 0 .3 0 .1.2 0 .3 0 .3.1.2.2-.1.4 0 .5.2.1.4.2.4.5 0 .2-.2.4-.4.4-.6 0-.2.2-.2.6 0 .5.2.7.1.8-.2.2-.5.9-.5 1 0 .3.5 0 .6-.5.1-.2-.2-.3-.2-.2 0 0 .1-.2.4-.5.6-.4.2-.6.5-.5.6l.6-.1c.3-.3.3-.3 0 .2-.2.5-.2.6.2.4.3 0 .4 0 .2.3s-.1.3.2 0c.3-.2.6-.3.7-.2.2 0 .4 0 .5-.2.3-.5.3-1.5 0-1.5v-.6c0-.2.4-.5.6-.5.3 0 .5-.2.5-.4s0-.3-.2-.2c-.4.2-.3-.3.1-.7l.4-.2.1.6c.2.7.6 1 .8.6.2-.2.1-.2 0-.1-.2.1-.4 0-.4-.1 0-.2.2-.3.5-.3 1 .1 1.4 0 1.3-.5-.1-.5-.1-.5.5-.1.5.3.6.3.7-.2v-.5c-.2 0-.3.1-.3.3l-.4.2c-.1 0 0-.2.3-.5.3-.2.5-.5.4-.6-.1-.2.1 0 .5 0s.8.5.8.7c0 .1 0 .2.1.1l-.2-.8c-.3-.6-.3-.6.2-.1.5.4.6.4.6-.1 0-.3 0-.5-.2-.4 0 0-.2 0-.2-.3 0-.2.1-.3.5 0 .4.1.4.1.3-.2 0-.2-.4-.5-.6-.6-.4 0-.5-.3-.4-.5.1-.3 0-.4-.3-.3-.4.2-.4.1-.2 0 .3-.4 1-.2.8.2-.3.3.2.5.6.2.3-.1.3-.2 0-.2-.1 0-.2-.1 0-.3 0-.2 0-.2-.2-.1-.4.2-.6-.3-.7-1.6-.1-1.1 0-1.2.4-1 .4.3.5.3.5 0s-.1-.4-.2-.3c-.2 0-.3 0-.3-.2 0-.1.2-.2.5-.1.5 0 .5 0 .3-.6-.2-.4-.2-.5 0-.4.1 0 .3 0 .4-.3.1-.2.3-.3.4-.3.1.1.2 0 .2-.2 0-.3.2-.4.4-.3.2.2.2.1 0-.2-.3-.3-.3-.5 0-.8.5-.3.5-.3.4.1-.1.3 0 .4.1.3a.6.6 0 0 0 .4-.5c0-.4-.6-.7-1-.4-.2 0-.3 0-.1-.2 0-.1 0-.4-.3-.4-.2-.1-.3-.3-.3-.4 0 0 0-.4-.2-.7-.3-.4-.4-.4-.4 0s-.7.8-1 .4c0-.1 0-.2.2-.2s.4 0 .5-.3c0-.2 0-.3-.4-.2-.3.2-.4.1-.3-.2.1-.2 0-.4-.4-.5-.3 0-.4-.2-.3-.4.1-.3 0-.3-.1-.2-.2.1-.2.4-.2.6.2.3 0 .3-.2.2-.3-.1-.4-.3-.3-.6 0-.3 0-.6-.3-.6-.2-.1-.4 0-.4.2 0 .4 0 .4-.3 0-.3-.3-.5-.4-.7-.3-.3.1-.3.1-.2 0 0-.2 0-.5-.2-.6-.3-.2-.4-.5-.3-.7.2-.2.1-.2-.2 0-.5.4-1.6-.2-1.2-.7.3-.2.3-.3 0-.4-.2 0-.3-.3-.2-.4.2-.2-.1-.3-.8-.2l-1 .2.7-.5c.7-.6 1-1 .4-1l-.2.4c0 .4 0 .4-.3 0s-.3-.8 0-.6c.2.1.3 0 .3-.3 0-.4 0-.4.3 0 .2.2.8.5 1.4.6l1.7.2c.3 0 .7.2.8.3h-.3c-.3 0-.5 0-.5.3 0 .2.2.4.3.4.2 0 .2.1 0 .4-.4.5-.4.5 0 .1.8-.6 1.6-.6 1.4 0-.2.3-.1.3.3-.1.5-.5.5-.5 1.2.4.7.8.8.8.6.2v-.3c.2.2.5.3.8.3.5 0 .5 0 .2.3l-.3.3h.7c.3.1.5.3.6.5 0 .1.2.2.4 0 .6-.3 1-.2.8.3 0 .3 0 .4.2.3l1-.2c.8-.1.8 0 .5.3-.3.4 0 1 .5.8.3-.2.2-1.8-.2-2l-.2-.6c0-.3 0-.3.4 0 .4.4.4.3.3-.6-.1-1 0-1.2.5-.5.4.4.4.4.2 0a3.3 3.3 0 0 1-.2-1.1c0-.3 0-.6-.3-.7-.2-.2-.2-.2.1-.2.3 0 .6-.2.8-.5.3-.3.3-.5 0-.7-.4-.2-.4-.5-.3-.6a.5.5 0 0 0 .2-.4v-.2c.2.3 2.2.3 2.2 0s-.7-.6-1-.3c0 .2-.2.3-.3.3s0-.3.3-.6c.4-.4.6-.5.8-.2.2.3.3.3.5 0 .3-.2.3-.3 0-.3-.2 0-.2-.1-.1-.3 0-.1 0-.2-.2-.2s0-.2.5-.4c.4-.2.9-.5 1-.7.1-.2.2-.2.4 0 .2.3.2.3.2 0a.5.5 0 0 1 .5-.5c.4 0 .4 0 0-.3-.2-.1-.2-.2 0-.2.4 0 .2-1.2-.3-1.2l-.6-.2.1-.2c.2 0 .4-.2.4-.4.2-.4 0-.4-.2-.3h-.3c0-.5-.4-2.2-.6-2.2-.2 0-.2-.2-.1-.5.2-.4.1-.4-.3 0-.2.1-.4.2-.4 0l-.2-.8c0-.3 0-.6.2-.7.2-.2.3-.1.1.1-.1.2 0 .3 0 .2.4-.2.2-1.2-.2-1.7-.1-.2 0-.3.2-.4h.3c-.2.3.2.4.7.4.2 0 .2 0 0 .2l.1.6c.1.4.3.4.7.1.6-.2.6-.2.2.2-.4.5-.3.5.5.3l1 .1c0 .2.4.3.6.3.4 0 .5.2.5.5 0 .4.2.5.6.5.3 0 .5-.1.5-.5 0-.3.2-.5.5-.5s.6-.1.7-.3c0-.1.5-.2 1 0 .8.1.8 0 .5-.4-.4-.4-.4-.4.1-.2.5.3.6.3.8 0V.7c-.1-.2 0-.3 0-.2.6 0 1 0 .8-.3-.1-.2 0-.2.2-.1.3 0 .4.2.2.4-.4.5-.5 1.5-.2 1.7.1.1.2 0 0-.2-.1-.2 0-.3.1-.1.2 0 .3.4.2.7l-.1.8c0 .2-.2.1-.5 0-.4-.4-.4-.4-.2 0l-.1.5c-.2 0-.7 1.7-.6 2.1 0 .1-.1.2-.4 0-.2 0-.3 0-.2.4.1.2.3.4.5.4.1 0 .1 0 0 .2l-.6.2c-.4 0-.7 1.2-.2 1.2.2 0 .1 0-.1.2-.4.3-.3.3 0 .3a.5.5 0 0 1 .5.5c0 .3.1.3.2 0 .2-.4 1.4.7 1.4 1.3 0 .3 0 .3.5 0 .3-.2.3-.2.2 0v.3c.4 0 .6 1 .3 1.2a.6.6 0 0 0-.2.5l.5-.2c.5-.5.6-.4.5.2 0 .1.2.4.5.6.3.3.3.5.1.7-.4.5-.3.8.1.4.3-.1.4-.5.3-.7 0-.1 0-.3.2-.3.1 0 .2.2.1.5-.2.7 0 1.4.4 1.2.1 0 .1 0 0 .2 0 .2 0 .5.2.6.2.1.2.3 0 .6s-.3.7-.1 1l.2 1.6c0 1 .6 1.5 1 .6 0-.3 0-.3-.4 0-.2.2-.4.3-.4.1 0-.5.7-.5 1.1 0 .3.4.4.5.6.2.1-.2.1-.3-.1-.1l-.3-.1c0-.2.4-.3 1-.4 1 0 1 0 .3-.4-.6-.2-.6-.3.4-.5a125.6 125.6 0 0 0 1.3-.2l.4-.1s0-.2-.2-.3c-.4-.2-.3-.3.1-.3s.7-.1.8-.3v.3c0 .5 0 .5.8-.4l.8-.8c0 .2 0 .5.3.7.3.3.3.2.2-.4-.1-.5 0-.7.2-.7l.6.2c.2.3 1 .4.8 0 0 0 .1-.3.4-.4.3-.2.5-.4.4-.6-.1-.2-.3-.2-.5 0-.1.2-.4.3-.5.3-.2 0 0-.1.2-.3.3-.3.4-.5.3-.8l.3.3c.4.4.8.5 1.3.4.4 0 .6 0 .8.5l.1.5.5-.5c.3-.4.6-.6.8-.6.2 0 .1.1-.1.4-.2.2-.4.5-.3.7 0 0-.1.3-.5.4-.4 0-.6.2-.5.3 0 .2 0 .3-.2.4-.3 0-.3.2 0 .4.4.5-.7 1.1-1.3.7-.3-.2-.3-.2-.2 0 .1.2 0 .5-.2.7-.2.1-.3.4-.2.6 0 .1 0 .1-.2 0s-.5 0-.7.3c-.3.4-.4.4-.4 0 0-.3-.1-.3-.4-.2-.2 0-.3.3-.2.6 0 .3 0 .5-.3.6-.3.1-.4 0-.3-.2l-.1-.6c-.2-.1-.3 0-.1.2.1.2 0 .3-.4.4-.3.1-.4.3-.4.5.1.3 0 .4-.3.2-.3-.1-.4 0-.3.2 0 .2.3.4.4.3.2 0 .3 0 .2.2-.2.4-1 0-1-.5 0-.3 0-.3-.3.1l-.3.7c0 .1 0 .3-.3.4-.2 0-.3.3-.2.4.1.2 0 .3 0 .2-.5-.3-1.1 0-1.1.4a.6.6 0 0 0 .3.5c.2.1.3 0 .2-.3-.2-.4-.1-.4.3 0 .3.2.4.4 0 .7-.2.3-.2.4 0 .2.3 0 .4 0 .4.3 0 .2.1.3.2.2.2 0 .4 0 .4.3.1.2.3.4.5.3.1-.1.1 0 0 .4-.2.6-.2.7.2.6.3-.1.6 0 .6.1 0 .2-.2.3-.3.2-.2-.1-.3 0-.3.2 0 .4.1.4.6.2.4-.3.5-.2.4.9-.1 1.3-.4 1.8-.8 1.6-.1-.1-.2-.1 0 0 0 .3 0 .4-.2.4-.3 0-.3 0 0 .2.4.3 1 .1.7-.2-.2-.4.4-.6.7-.3.3.2.2.3-.1.1-.4 0-.4 0-.3.3 0 .2 0 .4-.4.5-.3.1-.6.4-.7.6 0 .3 0 .3.4.1.3-.2.4-.1.4.1 0 .3 0 .4-.2.3 0 0-.2.1-.1.4 0 .5 0 .5.5 0 .5-.4.5-.4.2.2l-.2.8.2-.1c0-.2.3-.4.7-.6.4-.2.7-.3.6-.1-.1 0 0 .4.4.6.3.3.4.5.2.5s-.3 0-.3-.2-.1-.3-.3-.3v.5c0 .5.1.5.7.2.6-.4.6-.4.5.1-.1.5.2.6 1.3.5.2 0 .4.1.4.3 0 .2-.1.2-.3.1-.2-.1-.2 0 0 .1.2.4.6 0 .7-.6l.1-.6.4.2c.5.4.6 1 .2.7-.2-.1-.3 0-.3.2s.2.4.5.4.6.3.7.5l-.1.6c-.3 0-.2 1 0 1.5.2.2.4.3.5.2.2-.1.5 0 .7.2.4.3.4.3.2 0-.1-.3 0-.4.3-.3.3.2.4.1 0-.4-.2-.5-.2-.5.2-.2.2.2.5.2.6 0l-.5-.5c-.4-.2-.6-.5-.5-.6 0-.2 0-.2-.2 0-.5.5-.8.4-.6 0 .2-.6.8-.6 1 0 .1.2.3.3.8 0l.6.1.4.7c.3.3.4.3.5 0 .1-.3.3-.4.5-.3.2.1.2 0 .1-.2s0-.2.2-.2c.2.1.3.3.3.5s0 .2.2.1c.1 0 .2-.2 0-.4 0-.1 0-.4.2-.7.3-.4.3-.4.3 0 0 .3.1.5.3.5.1 0 .2-.1 0-.3 0-.1.3-.3.8-.3h1.6c.8-.1 1.6-.7 1.4-1-.1-.2 0-.3.1-.3.2 0 .3.1.3.3 0 .3 1-.6 1.1-1.2.1-.3.4-.4.6-.3.3 0 .4 0 .4-.3 0-.2-.1-.3-.3-.2-.2.1 0 0 .3-.4l.8-.4c.2.3 1-.8.9-1.3V31c.3.4.7.7 1 .7.2 0 .2 0 0-.2-.2-.1-.1-.3.3-.5s.6-.5.6-.6c-.1-.1 0-.2.1-.2s.3-.1.2-.2c0-.1.2-.3.5-.3.5 0 .6 0 .4.3-.2.3-.2.4.1.5h.3c-.1-.2 0-.3.3-.3s.9-.4 1.2-.8c.6-.6.7-.6.7-.2 0 .3-.1.4-.3.3-.2-.1-.2-.1-.1.1s.3.2.4.2c.1-.1.3 0 .4.2v-.3c0-.3 0-.5.3-.5s.3.2.2.4c0 .3 0 .3.4 0 .6-.6.7-1.2.2-1.4h.3c.4 0 .9 0 1.3-.3.4-.2.6-.3.6-.1 0 .1.1.2.3.1.2-.1.2-.6 0-1-.3-.4 0-.7.3-.7.2 0 .2.2.1.4-.2.5.9.8 1.2.4.1-.2.5-.3 1.1-.2 1 .2 1 .2 1-.4 0-.4.1-.6.4-.6.2 0 .4.1.4.3 0 .6.7.4 1.2-.2.2-.4.3-.7 0-.8-.1-.1 0-.3.3-.4.6-.3 1.1-.2 1.1.3 0 .2.1.4.3.4.1 0 .2-.2 0-.5 0-.3 0-.4.3 0 .5.4.9.3.5-.2-.4-.4-.4-.4 0-.3l.7-.1c.3-.3.3-.2.3 0 0 .4 1 .2 1.7-.4.3-.3.5-.3.4-.2-.3.4 0 .4.7.1.3-.1.4-.2.2-.2-.6 0-.3-.4.4-.5.5 0 .6 0 .5.5-.1.5 0 .5.4 0 .3-.2.5-.3.5 0 0 .2.1.1.4-.1.2-.2.3-.5.2-.7 0-.2.1-.2.7 0 .6.1.8 0 1.2-.5.3-.3.7-.6.8-.5.2 0 .5 0 .7-.2.2-.2.3-.2.2 0-.1.1 0 .2.3.2.4 0 .4 0 .2-.3s-.2-.3.1-.2c.3.1.5 0 .6-.1.2-.2.3-.2.6 0 .2.2.5.2 1 0 .6-.4.6-.4.2-.7-.4-.4-.4-.4 0-.2.4 0 .8.3 1 .4.1.1.3.1.4 0 0-.2.3-.3.4-.3.2 0 .2.1.1.3-.1.2 0 .2.1.1.2 0 .2-.4.2-.7-.1-.2 0-.5.1-.6.2-.1.2 0 .1.2 0 .2 0 .4.2.6.2 0 .3 0 .2-.1-.1-.2.1-.4.5-.6.3-.2.6-.4.5-.5 0-.1 0-.2.3-.2l1.3-.2 1 .1c.3.2.4.2.5 0 .1-.1.4-.2.6-.1h.7a1.7 1.7 0 0 1 .7-.3c.3 0 .4-.2.4-.4 0-.3.1-.4.5-.3.2 0 .5.2.5.4s.1 0 .2-.3c.3-.6.8-.8.8-.4s1 .2 1-.2c.1-.3 0-.3-.2 0-.1.2-.2.3-.2.1 0-.2.1-.4.4-.6.3-.3.4-.3.4.3v.6l.2-.6c.2-.3.4-.6.6-.6.2 0 .2 0 0 .3-.3 0-.4.3-.3.4.4.3.8-.2.7-.7-.1-.4 0-.5.2-.3s.4.2.4 0c.1-.1.4 0 .9.2l.7.2c-.1-.5 0-.7.2-.4.2.3.3.3.7 0 .2-.3.7-.4 1.1-.3.5.1.7 0 .5-.1 0-.2 0-.4.3-.5.6-.2.7-.2.5.2-.1.2-.1.2.1 0a.5.5 0 0 0 .2-.5c0-.2 0-.3.3-.2.3 0 .8-.2 1.3-.5.8-.4.9-.4 1 0a.5.5 0 0 0 .8.2c.2 0 .3-.3.2-.5h.3c.4.4.4.4.4 0 0-.1.3-.3.6-.3s.4.1.4.3c-.2.6.2.5.5-.1.4-.5.8-.6 1.4-.2.4.2 1.4-.7 1.1-1 0-.2.1-.1.4.1.3.3.9.5 1.3.6.7.1.7.1.2-.4l-.2-.4c.1.1.4 0 .6-.1l.3-.1c-.1.1 0 .4.2.6.3.3.4.3.4 0 0-.4.1-.5.5-.3 1 .3 1.4.3 1.8 0h.6c.1 0 .2 0 0-.3 0-.3 0-.4.2-.3.1.1.4 0 .5-.1 0-.2.3-.1.6.3.3.3.7.4.8.3.2 0 .2-.2 0-.3-.2-.2-.2-.3.1-.4.3 0 .4 0 .3.1l.1.3c.2 0 .2.1.2.3-.1.2 0 .1.2-.1.2-.4.4-.4.6-.2.2.3 1 .2 1.4-.3.2-.2.2-.3.2 0-.2.3.9.6 1.3.2.2-.1.3-.4.2-.5h.3c.2 0 .4.2.4.3 0 .2.3.2.6 0 .3-.1.6-.3.5-.5 0-.2 0-.2.5 0 .4.2.5.2.5 0 0-.3 0-.3.2-.1.2.3 1.7.3 1.7 0h.6c.5.3.7.2.7 0 0-.1.2-.1.4.1.3.2.4.2.3 0-.2-.2.6-.7.8-.4l-.2.1c-.1 0-.2.1-.1.3 0 .2.3.2.5.1.2 0 .4 0 .5.2 0 .2.1.1.1-.1 0-.3.2-.5.4-.4.2 0 .3.2.3.4s0 .2.3.1c.2 0 .4-.2.4-.3l1-.2c.6 0 1 .1 1 .2-.2.3 0 .3.8 0 .6-.2.8-.2 1 .1.3.4.4.4.6.1.1-.2 0-.2-.2 0-.2 0-.3 0-.1-.2.2-.3 1.3-.2 1.4.2 0 .2.2.2.4.1.2 0 .6 0 1 .2s.4.2.3-.3c0-.3 0-.5.2-.5s.2.2.1.3c-.1.2 0 .3.4.2.3-.1.5 0 .4 0l.1.3c.2 0 .4-.1.5-.3a.6.6 0 0 1 .4-.2c.2 0 .2 0 0 .2l-.3.7c0 .4 0 .4.2.2s.4-.3.6-.2c.2.2.3.1.2-.2v-.6c.3-.1.3 0 .2.1-.1.2 0 .3.2.3l.4.2c0 .3 2 .2 2.5 0l-.1.2c-.5.5-.5.6 0 .6.3 0 .5 0 .4-.2-.1-.2 0-.3.2-.2.2 0 .5-.1.8-.4.2-.3.5-.5.5-.3s-.2.4-.4.5h.3c.5 0 .7 0 .9.6.3.7.5.8.4 0-.1-.3 0-.4.4-.4.3 0 .4.2.4.4-.1.3 0 .3.4 0s.7-.4 1-.2c.3.2.5.2.5 0l.6-.4c.4 0 .5 0 .3.2-.4.3.2 1 .7.8.1 0 .3 0 .3.2 0 .3 0 .3.2 0 .3-.4 1.3-.2 1.2.3 0 .3.1.4.5.3.2 0 .5-.3.5-.4l.4.2c.3.3.5.3.6.1.2-.2.3-.2.4 0v.3l.1.2c.3.2.6.2.8 0 .2-.2.3-.2.3 0 0 .3.2.2.4-.1.4-.5.4-.5.3 0v.7c.2 0 .4-.1.4-.3s.2-.3.4-.4c.4 0 .4 0 .1.3-.2.2-.2.4 0 .5.2.1.5 0 .7-.2.2-.3.4-.4.5-.2 0 .1 0 .3-.2.4-.2 0-.2.2-.1.3l.7-.1c.3-.2.5-.2.5 0l.4.2c.2 0 .4.2.4.5 0 .6.7 1 1 .5 0-.2 0-.2-.1-.1h-.5c-.3-.5.9-.6 1.2 0 .3.3.5.3.7.1.2-.1.4-.1.6.2.1.3.3.4.4.4.5 0 .5 0 .2.3-.3.1-.3.2-.1.2l.6-.3c.4-.4 1.1-.3 1 0-.2.2-.1.4 0 .5.2 0 .3 0 .3-.3 0-.4.1-.3.5.2.4.4.6.5.8.3.3-.3.5-.2 1 .2.4.2 1.1.5 1.6.5.7 0 .8.2.7.7-.1.5 0 .6.5.6.6 0 .6 0 0-.3l-.5-.2h.6c.3.1.5.3.5.5 0 .3.2.4.4.5.3 0 .5-.1.5-.3 0-.2.2-.1.3.1.2.3.5.5.7.5.4 0 .4 0 0-.4-.6-.4-.5-.4 0 0l1 .2v.3c-.1.3 0 .4.7.3.4 0 .8 0 1 .2h.3c.2 0 .3 0 .1.2-.3.4.5 1 1.5 1 .5-.1 1 0 1.3.3.1.2.2.3.1 0l.1-.2c.1 0 .3.1.3.3 0 .4 1.1 1.5 1.5 1.5.1 0 0-.2-.4-.5s-.5-.5-.4-.5c.2 0 .5.2.8.5.2.3.6.4.7.3.2 0 .4 0 .6.3.2.3.4.4.5.2.1-.1.4-.2.6-.1.2 0 .3.2.2.3 0 .1.1.2.4.2 1 .1 1.5.3 1.6.6 0 .2.3.3.6.3.2 0 .5.1.5.3 0 .3 0 .3.2 0 .4-.5.6-.5 1 .2.2.4.3.5.4.3 0-.2 0-.2.2-.1.2 0 .3 0 .3-.2s0-.2.3 0c.2.1.6.2.8.1.3 0 .5.1.5.4 0 .2 0 .3.2.2.1 0 .4 0 .6.3.5.6.8.4.5-.2-.3-.6-.3-.6.2-.1.8.9 3 1.7 2.6.9-.1-.2 0-.1.5.1.3.3.8.4 1 .3.2-.1.2 0 .1.2l.1.6c.1 0 .3 0 .3-.2 0-.3 0-.3.2 0s.3.3.4 0c.3-.4.7 0 .6 1 0 .6 0 .6-.1.2-.1-.5-.2-.6-.7-.3-.4.2-.5.2-.3 0l-.1-.3c-.1 0-.3.2-.3.5 0 .4 0 .3-.3-.1 0-.3-.2-.4-.2-.2s-.4.3-1 .2l-1.1.1c0 .5 0 .8-.3.8-.1 0-.2-.2-.1-.4.2-.4.1-.4-.5 0-.4.3-.8.4-1 .3-.1 0-.4 0-.6.2-.4.4-.4.4-.6-.1 0-.5-.2-.6-.4-.3-.2.2-.7.3-1 .3-.6 0-.6 0-.3.3.2.1.3.2.1.2-.3 0-1.2-.6-1.2-.8h.5c.3 0 .3 0-.1-.3s-.6-.6-.5-.7c0-.2 0-.2-.3-.1s-.3.2 0 .5c.4.2.4.4.2.5h-.3s-.3-.3-.7-.3c-.4 0-.6 0-.6.3 0 .2-.2.3-.4.3-.5 0-.5-.2 0-.7.2-.2.1-.3-.3 0-.3.1-.6.2-.7.1-.1 0-.2 0-.2.2s-.1.2-.4-.1c-.2-.3-.3-.7-.2-1 0-.2-.1 0-.4.3-.3.3-.5.7-.4.9 0 .2 0 .1-.2-.1-.2-.3-.5-.4-.7-.3a.4.4 0 0 1-.5-.2c0-.2 0-.3.1-.2.1 0 .3 0 .3-.2 0-.6 0-.7-.6-.2-.3.4-.7.5-1 .4l-1-.2c-.3 0-.6 0-.6-.2 0-.1-.3-.2-.7-.2a9.9 9.9 0 0 1-1.6-.1l-1 .1c0 .2-.3.1-.5 0-.2-.2-.8-.3-1.5-.2h-.9c0-.2 0-.5-.3-.7-.2-.2-.4-.2-.3 0v.6c-.2.3-.3.3-.3 0 0-.1-.1-.2-.3-.1-.2.1-.3 0-.2-.2.2-.3 0-.4-.2-.3-.2 0-.4.2-.4.4l-.8-.2-.8-.7-.3-.3c-.3-.1-.4 0-.4 0 0 .5 0 .6-.5.3-.6-.5-1.2-.5-1 0 .1.3 0 .3-.3 0-.2-.4-.4-.4-.4-.3 0 .2 0 .3-.2.2-.2 0-.2-.3-.1-.5l-.4.3c-.5.5-1.1.5-1.2 0 0-.2-.3-.3-.6-.4-.3 0-.6-.2-.7-.4-.1-.2-.2-.1-.2.3 0 .6-.4.7-1 .1-.2-.2-.5-.2-1 0-.6.2-.8 0-.7-.6 0-.2 0-.2-.2-.2s-.3.1-.3.3c0 .3-.1.4-.4.3-.2-.1-.4 0-.4.2s0 .2-.3-.1c-.1-.3-.3-.5-.5-.5-.1 0-.2.2 0 .4 0 .2 0 .2-.2 0s-.7-.4-1-.4c-.3 0-.6-.1-.7-.3v.3c0 .5 0 .5-.3.3s-.4-.2-.5 0c-.2.2-.4.1-.8-.2-.3-.3-.4-.3-.3-.1v.3c-.2 0-.6 0-1 .2-.7 0-.8 0-.6-.4.1-.4 0-.3-.4.1-.3.4-.7.5-.9.4-.5-.3-1-.3-.8 0 .1.3 0 .4-.6.4-.4 0-.8.2-.8.3 0 .3-.2.3-.5 0-.3-.2-.3-.2-.2.1 0 .2 0 .5-.2.6-.2.1-.2.1-.1 0 .1-.3 0-.3-.2-.2-.3 0-.4.3-.3.4.1.2 0 .2-.1 0-.2 0-.5 0-.6.2-.2.3-.2.3-.2 0l.4-.7c.4-.3.4-.4-.1 0-.3 0-.6.3-.6.5 0 .1-.3.2-.8 0-.5 0-.8 0-.8.2s.1.2.3.1c0 0 .3 0 .4.2.1.2 0 .2-.1.1-.1 0-.4 0-.6.3a1 1 0 0 1-.8.2c-.4 0-.5 0-.4.2a.4.4 0 0 0 .4.3c.2 0 .2 0 .1.2 0 .2-.3.1-.6-.2-.5-.4-.5-.4-.5 0 0 .3-.2.4-.3.3-.2 0-.3 0-.2.3 0 .6-.8 1.2-1.1.7-.3-.4-.3-.4-.3 0 0 .3-.1.5-.2.5-.3 0-.3.5 0 1 .2.3.2.4-.2.2h-.3c.2.4 0 1.2-.4 1.2-.2 0-.1-.2 0-.5.4-.4.4-.4 0 0-.3.1-.5.5-.4.8 0 .2 0 .4-.1.3l-.3.1c0 .2.2.3.4.4.2 0 0 .2-.4.3-.6.2-.8.3-.7.8.2.7-.2 1.4-.5 1.1-.1-.1 0-.3.2-.4.2-.2.3-.3 0-.3l-.6.6c-.1.3-.1.5 0 .4.1-.1.4 0 .6.4.1.3.2.4 0 .3-.2 0-.3.1-.3.5s0 .7-.2.7c-.5-.1-.7 0-.3.3.3.2.3.2-.1.2-.5 0-.5 0 0 .6.2.3.3.5.1.5-.1 0-.3.1-.3.3 0 .1.2.2.3.1.4-.2.3.3-.2 1-.4.7-.4.7 0 .6.4-.2.4 0 .3.2-.1.4 0 .4.3.3.3-.1.4 0 .2 0-.5.5-.8 1.3-.6 1.9l.2.5v-.5c.1-.4.2-.3.3.2v1l-.2.5c0 .3 0 .3.3 0 .3-.2.3-.1.3.4l-.2.8c-.2.2-.2 0 0-.1.1-.3 0-.3-.1-.2-.5.3-.4.4.2.7.5.2.5.2.4 0-.1-.3 0-.1.4.2.3.3.5.8.5 1.1 0 .8.6 1.8 1 1.7.2-.1.5.3.7 1.4 0 .2 0 .4-.3.4s-.1 0 .3.2c.7.1.8.3.9 1l.2 1c0 .1 0 .4-.2.6-.3.3-.3.4 0 .2s.4-.1.2.2c-.1.5-.1.5.3.2.3-.3.4-.3.3 0-.2.1-.1.2 0 .2.3 0 .4.1.1.4-.4.3-.4.8 0 .6.2-.2.2-.2.3.8l.3.9c.1.2 0 .4-.1.5-.3.2-.3.3 0 .3l.8-.3-.1.2-.4.6.5.1a.9.9 0 0 1 .4.2c0 .1 0 .2-.4.1-.6-.1-.6 0-.2.4.2.2.4.5.3.6-.1 0 .1.1.4 0l.7-.1-.7.5c-.5.5-.5.6-.2.5.4-.1.5-.1.3.2-.4.4-.2 2 .2 2.3.3.2.2.2-.2.2-.3 0-.4.1-.2.3.3.1.3.3-.1.6-.4.4-.5.6-.2.9.4.4.8.1.4-.4-.3-.4-.3-.4 0 0 .4.2.6 2.1.2 2-.1-.2-.2 0-.2.2s-.1.4-.3.4c-.1 0-.2.1-.2.3 0 .1.1.2.3 0 .1 0 .1.1 0 .4-.3.4-.3.8-.2 1 .3.7.4 1.5.1 1.3-.1 0-.3 0-.4.2 0 .1-.2.2-.4.1-.3-.2-1 .3-1 .7l.4.2c.4 0 .4.1.2.4-.3.2-.5.2-.8-.2-.4-.5-.4-.5-.3 0 0 .3 0 .5-.2.5-.6 0-1.2.5-1 .8 0 .2 0 .3-.3.2-.3 0-.3-.3-.1-.6.2-.3.1-.6 0-.7h-.2c0 .2-.1.3-.4.4-.5 0-.4 0 .2-.6.4-.4.9-.6 1-.6.2 0 .3-.2.4-.6 0-.3.2-.5.3-.5.4 0 .7-1.7.4-2.1-.2-.3-.2-.4 0-.2.5.3.3-.8-.2-1.4-.3-.3-.4-.6-.2-.8.1-.2.3-.3.4 0l-.1.3c-.2 0-.2.1 0 0 .2 0 .3-.2.3-.4a3.6 3.6 0 0 1-.2-.7c0-.1 0-.2-.2-.2 0 .1-.4-.2-.7-.6-.4-.5-.5-.8-.3-1 .2 0 .2-.2 0-.3-.3-.3-.6-1.4-.3-1.4.2 0 .3-.1.2-.3-.2-.2-.3-.2-.4 0-.1.2-.4.1-.8-.1s-.5-.3-.2-.3c.2.1.4 0 .5-.3.1-.5-.2-.6-.8-.2-.3.2-.4 0-.3-.4l-.3-.2c-.2 0-.3-.1-.2-.2.2-.2-.5-1.7-.7-1.7v.3c.1.2 0 .2-.3 0a3.7 3.7 0 0 0-1.1-.7c-.4 0-.6-.4-.6-.7 0-.3-.1-.4-.3-.3-.1 0-.2 0-.2-.2s-.2-.1-.3.2c-.1.3-.2.3-.2.2 0-.2-.2-.3-.4-.2-.3.1-.4 0-.4-.3 0-.2.1-.3.4-.2.4.1.4 0 0-.3a2 2 0 0 0-1-.4c-.1 0-.2-.2 0-.3 0-.2 0-.3-.2-.1-.3.1-.3.3 0 .5.7.4.6.7 0 .4-.3-.1-.6-.2-.7 0l-.1-.4c0-.2-.1-.4-.3-.4-.1 0-.2.2 0 .5 0 .4 0 .4-.3 0-.3-.1-.6-.2-.9-.1-.2 0-.3 0-.2-.4.1-.5 0-.6-.4-.4l-.7-.1c-.1-.2 0-.3.2-.3.1 0 .2 0 .1-.2-.3-.2-1 .5-.8.8.1.2 0 .1-.3-.1-.6-.5-1-.7-.8-.3 0 .1-.1.2-.4.2s-.4 0-.4-.1c.2-.3-.5-.9-.7-.7v.6c0 .2 0 .3-.2.3s-.2 0-.1-.3c.1-.2 0-.2-.4-.1l-.9-.1c-.2-.2-.2-.3.2-.1.4.1.4 0 .1-.3-.3-.3-.4-.4-.8 0l-.8.4c-.3 0-.3 0 0-.3.3-.2.3-.2-.2 0h-1.4c-.3 0-.4 0-.3-.4 0-.3-.2 0-.7.5l-.7.6c0-.2 0-.4-.2-.5-.2 0-.4 0-.5.3-.1.4-.1.4-.2 0 0-.3-.2-.4-.7-.4-.7 0-.7 0-.2.2.4.2.1.2-.9.2-.7 0-1.3 0-1.2.1 0 .1 0 .3-.2.4-.2.1-.2 0-.1-.1 0-.2 0-.4-.5-.6-1.1-.4-2-.1-2.3.8-.2.3-.2.3-.2 0 0-.5-.6-.7-.6-.2h-.5c-.3-.2-.5-.2-.6 0 0 .2-.2.2-.7 0-.7-.4-1-.4-1.1.1 0 .3 0 .4-.2.2 0-.3-.2-.3-.5 0-.2.1-.8.3-1.2.2-.6 0-.8 0-.6.3.1.5-.3 1-1 1-.2 0-.2 0 .2-.2s.4-.2 0-.6c-.3-.2-.4-.3-.3 0l-.1.4c-.2.1-.2.4-.1.6 0 .3 0 .3-.5 0-.6-.5-1-.4-1 .2l.3-.1c.3-.4.3-.4.2 0 0 .2-.4.3-.9.3h-.4c.5.3.4 1-.1.8-.3-.1-.4 0-.3.1.1.2 0 .3-.4.3s-.5.2-.4.7c0 .4 0 .6-.1.5-.1 0-.3 0-.3.2v.4c0 .3-.8.7-1 .5l.2-.1c.2 0 .3-.2.2-.3-.2-.3-.7-.4-.6 0 0 .5-.1.8-.5.8s-.4 0-.1.2c.2.2.2.3 0 .4a.5.5 0 0 0-.2.6c.1.2 0 .3-.3.2-.3-.1-.3 0 0 .5l.3.6-.6-.5-.3-.2c.4.6.4 1.2 0 1-.5-.2-1 .2-.5.5.2.2.2 1.5-.1 2-.2.2-.1.3 0 .1.3-.1.4 0 .2.4l-.2.8c0 .6.1.8.4.7.1-.1.2 0 .2 0l.2.8c.1.4 0 .4-.6-.2l-.8-.6.6.6.6.8c.3.3.1 1-.2 1.1-.4.2-.3.2 0 .2.4 0 .5.2.4.6-.3.7 0 .6.3 0s.3-.6.2.2c0 .4-.1.7-.2.7l.1.4c.2.3.4.4.5.3l.5-.2c.3-.1.3 0 0 .2-.2.3-.2.5.1.9.2.3.3.7.2.9 0 .3 0 .3.3.2.3-.1.4 0 .3.5-.1.6 0 .7.2.5.2-.2.3 0 .2.4-.1.3 0 .5 0 .4.2-.1.3 0 .3.1l-.3.4c-.3 0-.3.1 0 .1.2 0 .3.2.1.4 0 .2 0 .2.4 0h.3v.7c.6.5.6 1 .1.9-.2-.1 0 .2.5.7.4.4.7.8.5.8-.1 0-.3.2-.3.5 0 .4 0 .4.3 0 .2-.3.3-.3.3 0v.6c0 .2 0 .2.2.1s.3 0 .3.3c0 .4 0 .4.3 0 .1-.1.2-.2.2 0a.6.6 0 0 1-.2.5c-.5.2-.4.6.2.7.3 0 .4 0 0 .2-.3.2-.3.3 0 .3.2 0 .2.1.1.3 0 .2 0 .2.1.1.1 0 .4.2.6.5.3.8.3 1 0 1-.2 0-.2-.2-.2-.3v-.5c-.1-.2-.2 0-.3.6 0 .9.3 1.1 1 .9 0-.1.6 1 .6 1.3l.4.4c.3.2.3.3 0 .6-.2.3-.1.4.2.4.5 0 .5 0 0 .5-.4.5-.4.5.3.4.5 0 .6 0 .4.3-.3.3-.3.3.2.2.4-.2.4-.1.1.2-.4.5-.4.9 0 .5.4-.2.5-.2.6 0 .2.2.1.3 0 .1l-.4.1c0 .2.3.4.6.4.2.1.4.3.3.5-.2.3.8 1.3 1.1 1 .1 0 .1 0 0 .2-.2.4.9 1.8 1.4 1.8 1 0 1.1.1 1.1.4 0 .2-.1.2-.2.1-.2 0-.3 0-.3.2s.2.2.7.1c.4 0 .6 0 .6.3 0 .2.3.3 1 .2.5 0 1 .1 1.2.3.4.5.7.5.7 0 0-.2.1-.4.3-.4.1 0 .2.2.1.5 0 .3 0 .5.2.5s.3.1.4.3c0 .4-.1.5-.6.4-.4 0-.6 0-.6.2 0 .1-.3.2-.7 0-.4 0-.6 0-.5.2.2.4-2.3 1-2.8.8-.3-.3-.3-.3.1-.1.4 0 .5 0 .2-.2-.1-.2-.4-.2-.6 0l-1 .1c-.4 0-.5 0-.2-.3.2-.2.1-.3-.3-.3-.3 0-.6-.1-.8-.3-.2-.3-.3-.3-.3 0l-.6.6c-.6.2-.6.2-.1-.2.6-.5.3-.8-.3-.4l-.3.2c.1-.1 0-.5-.3-.8a2 2 0 0 1-.5-1c0-.3-.1-.5-.2-.4-.1.1-.3 0-.5-.3-.3-.3-.6-.5-1-.4-.3 0-.4 0-.3-.2.1-.2 0-.3-.4-.2-.7.2-1.5-.6-1.2-1.4.2-.6.2-.6-.3-.2-.4.3-.5.3-.3 0v-1c-.3-.4-.3-.4-.3.2 0 .9-.4 1-.5.2 0-.3-.2-.7-.3-.8-.2-.2-.2 0-.1.3.1.6 0 .6-.2.3-.2-.2-.4-.4-.4-.6v-.5c-.1-.1-.3-.2-.5 0-.2 0-.7-.2-1-.5-.3-.3-.7-.5-1-.5-.1 0-.2-.2 0-.5 0-.3 0-.4-.2-.2-.5.3-1.7-.4-1.7-1 0-.3 0-.4-.2-.3-.2 0-.2-.2-.2-.7v-.5c-.2.2-.3.2-.6-.2-.1-.3-.2-.6 0-.7 0-.1 0-.2-.2-.2s-.4.2-.4.4c-.1.1-.1 0-.1-.3l.2-.6c.1 0 0-.3-.4-.8-.3-.4-.7-.7-.8-.6-.2.1-.1 0 0-.3.3-.3.4-.5.2-.4 0 .2-.4 0-.6-.3-.3-.5-1-.7-.7-.2.2.2.1.2-.1 0a.5.5 0 0 1-.2-.5v-.3a3.3 3.3 0 0 1-.6 0c-.3 0-.3-.1 0-.3.2-.2.2-.3-.2-.6-.2-.3-.3-.5-.1-.5.3 0 .2-.7-.1-1-.1 0-.2 0 0 .2l-.1.4c-.2.1-.3 0-.3-.2s-.2-.4-.4-.4-.7-.3-1-.7c-.8-.7-1.1-.8-.8-.3 0 .2-.1 0-.5-.3-.4-.5-.5-.7-.2-.9.3-.1.2-.2-.3-.1-.4 0-.6-.1-.6-.3 0-.2 0-.3-.2-.2v.6c0 .3 0 .4-.3.3-.2-.1-.3-.3-.3-.5 0-.3-.2-.4-.9-.3a.5.5 0 0 1-.5-.2c0-.2-.3-.3-.6-.3s-.3 0 .1.3c.5.2.5.2 0 .2-.2 0-.5-.2-.6-.4 0-.2-.2-.3-.5-.1-.4.2-.6 0-1-.2l-.3-.2c.2.4-.8.7-1 .4l-1-.4c-.6 0-1-.3-1.1-.5 0-.2-.2-.2-.5 0-.3.4-.3.4 0 .2.3-.1.3 0 .2.1-.2.3-1 .3-1.5 0-.1-.2-.2 0-.2 0s-.2.3-.3.2c-.1 0-.3 0-.3.2s0 .2-.2 0l-.7-.2c-.3 0-.6 0-.7-.2-.1-.2-.3-.1-.7.1-.3.2-.5.5-.4.6.1.2 0 .1-.2 0-.5-.5-.7-.1-.2.3.2.2 0 .3-.5.2-.4 0-1 .2-1.6.6-.8.5-.8.6-.5 1 .4.4.4.4 0 .4-.3 0-.5-.2-.4-.3 0 0 0-.2-.2-.2a.3.3 0 0 0-.3.3c0 .2-.2.2-.6.2-.5-.2-.5-.2 0 .2s.2 1-.5.8c-.4 0-.4 0-.2.4.3.5.3.5-.3.2-.4-.2-.5-.2-.4 0v.3c-.4 0-.4.8-.1 1.3.2.2.2.2 0 0-.5-.3-1.1-.3-1 0 .2.2 0 .3-.1.3-.5 0-.8 1-.5 1.2h.3c-.1-.6 0-1 .2-1 .5 0 0 1-.9 1.7l-.5.6.5.1c0 .1 0 .3-.3.4-.3.1-.3.3-.1.5.2.2.2.4.1.5l.1.2c.1 0 .4.1.4.3 0 .2-.2.2-.4 0-.2 0 0 .2.3.5.6.5.8 1.2.3 1-.1-.1-.3 0-.4 0 0 .2 0 .3.3.3s.4.1.3.2c-.1.1 0 .3.3.5.4.3.4.4-.2.3-.3-.1-.5 0-.4.1 0 .1.3.3.5.3s.3.1.2.4c0 .2 0 .4.2.4.1 0 .3.3.3.6 0 .4 0 .6.2.5.2 0 .3 0 .3.3l.1.7c0 .2.3.4.6.4.4.1.6.2.6.4l.2.6c.1.4 0 .5-.2.3-.2-.1-.2 0 0 .2.3.2.7.7.8 1 .2.7.4.8.8.6.4 0 .6 0 .4.1l.1.8c.2.3.2.7.1 1 0 .3-.2.3-.6 0-.3-.2-.3-.2 0 .2l.5.4c.6 0 1.1 0 1 .3v.3c.5 0 .4.7 0 1-.2 0-.2 0 0-.4 0-.4 0-.4-.2 0-.5.4-1.3.5-1.3 0 0-.3-.1-.4-.4-.2-.3 0-.4 0-.3-.3v-.3c-.2.1-.5 0-.7-.2-.2-.2-.5-.3-.7-.2-.2 0-.3 0-.2-.1 0-.1-.2-.5-.6-.8-.3-.2-.5-.3-.3 0 .2.2.1.3-.4.3-.6 0-.9-.5-.3-.8.2 0 .2-.1 0-.1-.9 0-1.1 0-1.1-.4 0-.3-.1-.4-.3-.3-.2.2-.3 0-.2-.2.1-.3 0-.4-.2-.3-.2.1-.4 0-.4-.2 0-.3 0-.5-.2-.6-.1 0-.2.1-.2.5s0 .6-.3.6a.4.4 0 0 1-.3-.4c0-.2-.1-.3-.3-.3-.2 0-.2.2 0 .6.2.5.2.6-.1.5-.2 0-.4-.2-.3-.4.1-.1 0-.4-.1-.6-.2-.2-.3-.5-.2-.6.1-.2 0-.3-.5-.3s-.7-.1-.6-.4c.2-.4-.2-.5-1-.4-.1 0-.3-.3-.3-.6s-.2-.6-.3-.7c-.2 0-.2-.2-.2-.3v-.3a.3.3 0 0 0-.4.3c0 .2-.2.3-.5.2-.3-.1-.6 0-.7.2 0 .2-.3.3-.4.2-.2 0-.2 0-.1.3 0 .3 0 .4-.1.3-.5-.3-.3-.8.5-1.2.8-.3.8-.4.4-.8a2 2 0 0 1-.4-.7l-.1-.3v.5c.1.6-.1 1.3-.5 1.3 0 0-.2-.2-.1-.5 0-.3-.1-.4-1-.4-.8 0-1 0-.5-.2.3-.3.3-.5.1-1-.3-.9-.8-1-.8-.4 0 .2.1.3.3.2.2-.1.2 0 .1.2-.2.3-.4.2-.8-.3-.5-.7-.6-.7-1.3-.4-.4.2-.7.3-.7.1V94c-.1-.2-.5-.4-1-.4-.7 0-.8 0-.7-.6l.4-.8c.2-.1.1-.3-.1-.4-.7-.2-.7-.2-.6.3.2.4 0 .5-.4.5a37.9 37.9 0 0 0-1.1-.1c-.5 0-.5-.2-.3-1.5l-.1-1.6c-.2 0-.3-.3-.2-.4.1-.2 0-.2-1.2-.3l-1-.3a.5.5 0 0 0-.6 0c-.2.3-.2.3.1.3.3 0 .5.1.5.3s.3.2.7.1c.4 0 1 0 1.3.3.5.4.5.4 0 .2a4 4 0 0 0-1.5-.2c-1 0-1.6-.4-1.6-1 0-.4.2-.5 1.4-.4h1c-.3-.2-.7-.3-.8-.2-.2.2-.3 0-.1-.4.1-.4 0-.5-.1-.4-.2.1-.3 0-.3-.3 0-.4 0-.4-.3 0l-.3.1a6 6 0 0 0-.4-1.3c-.4-.8-.7-1-.4-.3.1.4 0 .4-.3.1-.2-.2-.4-.4-.3-.5 0-.1 0-.4-.2-.5-.2-.2-.5-.1-.7.1-.4.4-.4.4 0 .3.2 0 .4 0 .4.2s-.2.3-.4.2c-.7-.3-.8-.7-.3-1 .2-.2.3-.4 0-.4a.6.6 0 0 0-.4.3c-.3.4-1 .3-1-.2v-.3c-.3.3-1.3-.3-1.1-.6l-.1-.4c-.5-.3-.6.4-.2 1.1.2.4.4.6.4.4 0-.3 0-.3.4 0 .2.2.4.4.4.6 0 .2 0 .2-.2 0-.1-.2-.4-.3-.7-.2l-.4-.1c-.1-.7-.2-.8-.3-1-.4-.4-.3-.6.4-1 .5-.4.8-.4 1-.2.2.2.2.3 0 .3s-.3.2-.3.4c0 .3.4.5.6.5.4 0 .5.2.5.4 0 .3 0 .3.3 0 .5-.4.6-1 .2-.6-.4.2-1.1-.4-1-.7.3-.4-.5-.8-1.5-.9-.5 0-1-.1-1-.3s.3-.1.7 0c.4 0 .7 0 .7-.2s-.5-.3-1.3-.3c-.3 0-.3 0 0-.3v-.5c-.2-.1-.4 0-.5.2 0 .2-.3.4-.4.4l.2-.7c.3-.4.3-.6 0-.4-.4.4-1 .4-.5 0 .4-.4.4-.8 0-.6-.2 0-.6 0-.8-.2-.4-.3-.4-.4 0-.5.2-.1.3 0 .3.3s0 .4.3 0v-.5l-.3-.5c-.2-.4-.2-.3-.2 0s-.2.5-.6.5c-.3 0-.5 0-.4.2.2.3-.4 1.6-.7 1.6l.2-.7c.4-.5.4-.7.2-.8-.2-.2-.4-.3-.3-.4l-.3-1c-.2-.5-.4-.7-.7-.6-.3 0-.4 0 0-.3.1-.2.2-.5 0-.6 0-.1-.3 0-.5.3s-.4.4-.6.3l.1-.3c.2-.1.3-.8.3-1.5 0-1 0-1.2.4-1.3.3 0 .3 0 0-.1s-.5-.3-.6-.5c-.1-.1-.2.2 0 .8 0 .6 0 1-.1.8l-.3-.4c0-.4-.7-2.4-.9-2.3v-.9c0-.6-.1-1-.2-1-.4.3-.8-.3-1-1.4-.3-.6-.3-.7-.4-.3 0 .3 0 .6-.2.6-.3 0-.6-1.3-.4-2 .1-.4.1-.4-.2 0-.3.1-.4.5-.4.7 0 .3 0 .5-.2.6-.3 0-.3 0-.2-.2 0-.3 0-.4-.3-.3-.3.1-.5.3-.5.5l-.5-.2c-.4-.4-.4-.6-.2-.7.2-.1.4 0 .5.1 0 .3.3.1.9-.4.7-.7.7-.8.2-.5-.9.4-2 .6-1.8.2a.4.4 0 0 1 .4-.2c.1 0 .3-.1.3-.3 0-.1-.3-.2-.7-.1-.5 0-.6 0-.8-.6 0-.4-.2-.6-.3-.4 0 .3-.3.1-.5-.3-.3-.6-.3-.8 0-1 .2-.1.2-.2 0-.5-.3-.3-.2-1.3.2-1.3.2 0 .2-.1 0-.4-.2-.2-.3-.5-.2-.6.1-.2-.1-.3-.6-.3-.6 0-.8.1-.8.5 0 .3.2.6.3.6.2 0 .2-.2.1-.4 0-.2 0-.4.3-.4.2 0 .3.2.2.6-.1.3 0 .4.1.3.2-.1.2 0 .1.3 0 .3-.2.3-.3.1 0-.1-.3-.3-.6-.3a.7.7 0 0 1-.6-.4c0-.3-.2-.4-.3-.3l.1.7c.3.5.2.5-.7.5l-1.6.2c-1 .2-1.7.2-2-.2-.2-.2 0-.2.7 0 .8 0 1 0 .9-.2-.2-.2.1-.3 1.1-.2l1.4-.1c0-.1-.3-.2-.7-.2-.3 0-.7-.2-.8-.3l.1-.3c.1 0 .3 0 .3-.2 0-.1-.1-.2-.3-.2-.3 0-.4.2-.3.5 0 .3 0 .5-.2.4-.8 0-1.3 0-1.2.3.1.2 0 .2-.2.1-.2 0-.3-.3-.2-.4 0-.2 0-.2-.3 0-.2.2-.5.3-.5.2 0-.4-.5.5-.5.8 0 .2.2.4.5.5.4 0 .4 0-.1.1-.3 0-.7.2-1 .4-.2.3-.2.2 0-.2.6-.6.2-.9-.4-.3-.4.3-.6.4-.6.2s0-.3-.2-.2l-.4-.1v-.3s.4-.2.4-.4c0-.4 0-.4-.5 0-.2.2-.6.4-.7.3-.3 0-.3 0-.2.3 0 .2.3.4.5.4.3 0 .4 0 .1.1-.2.1-.6 0-.9-.3-.4-.4-.6-.4-.6-.2-.2.5-1 .4-1 0s0-.4-.4-.1l-.6.5c0 .1.1.2.3 0a.3.3 0 0 1 .4.2c0 .1-.4.2-1 .2-1 0-1 0-.5-.2.6-.2.8-.9.3-1.2 0 0-.2.1-.2.3 0 .4-.2.5-.9.6-.7 0-.8.1-.3.3.4.2.3.2-.4.2-1-.1-1.6-.6-1.1-.8l.3-.5c0-.2-.2 0-.4.2l-.3.7c.1.1 0 .2-.1.2l-.4-.3c0-.3-.1-.3-.1 0 0 .2-.2.3-.3.2-.2-.1-.2-.3 0-.6.3-.4.3-.4-.2-.1-.3.1-.6.2-.7 0-.1 0-.2 0-.2.3 0 .2-.1.1-.3-.2-.2-.5-.3-.6-.7-.4-.5.3-.6.2-.8-.3-.2-.4-.3-.4-.3-.1 0 .5-.9.4-1.1-.2-.2-.4-.3-.4-.6-.2-.2.2-.4.2-.5.1-.1 0-.4 0-.6.2-.6.5-.5 0 .2-.5.5-.5.5-.5-.2-.5-.5 0-.6 0-.3.3.2.1.2.2-.3.2-.3 0-.5-.1-.5-.3l-.1-.4c-.2-.1-.2 0-.1.1.2.5-.4.7-.9.3-.2-.2-.8-.4-1.4-.4-.8 0-1 0-.8.5 0 .2 0 .5-.2.5s-.2 0 0 .3c.3.3.4.3.6 0 0 0 .2.1.1.5 0 .4 0 .7-.2.7-.5 0-.7.2-1 1-.4.8-.6 1-1.1 1-.2 0-.1 1 .2 1.6.1.5.1.5-.3.2s-.4-.3-.4 0-.2.5-.5.5c-.4 0-.3 0 .1.3.4.2.6.4.5.5h-.5c-.2-.2-.3 0-.3.8 0 .5 0 1 .2.9.1-.1.2 0 .2.2 0 .3-.1.5-.3.5a.3.3 0 0 1-.2-.3c0-.2-.2-.3-.3-.3-.2 0-.2.2-.2.4.1.2 0 .4-.2.5-.2 0-.4.6-.5 1.1-.1.7-.3 1-.6.8a.4.4 0 0 0-.5.3c0 .2-.4.4-.6.4-.4 0-.3 0 0 .3.5.2.6.2.7 0 0-.2.2-.3.4-.3s.2 0 0 .3c-.2.2-.2.5-.1.6h-.3c-.3 0-.5 0-.6.2-.1.2-.3.4-.5.3-.3-.1-.6.6-.8 2.7 0 .5-.1.6-.6.5-.3-.1-.4-.1-.1 0 .4.4.1 1.5-.4 1.3l-.5.1c-.1.2 0 .3.3.3.2 0 .3.1.2.3l-.3.8c0 .3-.4.6-.6.6-.6.2-.7.6-.2.8.3 0 .3.2 0 .5-.3.2-.4.2-.5-.3 0-.3-.3-.6-.5-.6-.5 0-.5.5 0 .7.2 0 .2.2 0 .3-.3.1-.3.2-.1.5.1.2.2.5 0 .7 0 .2-.2.1-.3-.3-.2-.5-1-.8-1-.3 0 .2.1.3.4.3.2 0 .3.1.2.3-.1.1-.4.2-.6 0-.3 0-.3 0 0 .3.1.3.5.4.7.5.3 0 .3 0 .1.1-.2 0-.6 0-1-.3-.6-.4-.6-.4-.6.3 0 .5.2 1 .3 1.1.3.4 0 .4-.8-.1-.7-.5-.7-.5-.4.1.3.6.2.7-.3.6-.2 0 0 .2.2.4.8.6.3.8-.6.2-.7-.4-.7-.4-.3 0 .3.4.3.6 0 .6-.2.1-.2.3 0 .5.3.3.2.4-.2.4-.3 0-.7.2-.9.4-.2.3-.2.4.3.6.4.2.5.3.3.4-.2.2-.6 0-1-.2-.6-.4-.6-.4-.6.2 0 .3.1.8.3 1 .2.2.2.3-.2.3-.3 0-.7.1-.7.3-.1.2-.2 0-.2-.3 0-.5 0-.6-.3-.4-.3.3-.3.5 0 .9.4.7.4.8-.1.6l-.4.1c0 .2-.1.3-.2.3s-.2-.2-.1-.6c0-.4 0-.5-.3-.2-.2.3-.3.4 0 .8.4.7.4.8 0 .8-.3 0-.6.3-.8.5-.2.3-.5.6-.8.7-.3 0-.4.3-.4.6.1.2 0 .4 0 .4-.5 0-1.1.6-1.1 1 0 .3 0 .3-.3 0-.3-.2-.3-.3.1-.6.3-.1.4-.3.3-.5-.2-.4-.6-.3-.6.2 0 .2-.2.4-.3.4-.2 0-.2.1-.1.3.1.2 0 .2-.4 0-.6-.1-.8.4-.2.6.3.1.4.3.3.4-.1.2-.3.2-.6 0-.2-.2-.3-.2-.3 0 0 .1-.3.2-.6 0-.4 0-.5 0-.4.2.3.4-.5 1.2-.9 1-.1-.1-.2-.4-.1-.6 0-.2 0-.3-.1-.2-.2 0-.3.3-.3.5 0 .3-.2.4-.5.4s-.4 0 0 .3c.2.1.2.3 0 .7-.2.4-.3.4-.3 0l-.4-.7c-.4-.3-.4-.3-.1.4.2.6.2.6-.3.4-.3-.2-.5-.2-.5 0 0 .4 0 .6-.3.3-.2-.3-.3-.3-.6-.1-.4.4-.7.1-.5-.4.2-.5-.2-.3-1.1.4-.3.3-.4.3-.3.1.3-.6-.3-.5-1.2.1l-1 .7v-.6l-.3-.6v.6c0 .3-.3.6-.7.8-1 .4-1.2.3-.2-.1.5-.3.6-.4.3-.4s-.4-.1-.3-.3c0-.1 0-.3-.2-.3a.3.3 0 0 0-.2.3c0 .2-.3.3-.7.2-.8-.2-1.5 0-1.5.6 0 .3.1.3.4-.1.3-.4.4-.4.4-.2s.2.3.3.2a.3.3 0 0 1 .4 0c0 .2 0 .4-.3.5-.2 0-.4 0-.4-.2s0-.2-.3 0c-.3.3-.5.3-.6 0-.2-.2-.5-.3-.8-.3-.4 0-.5 0-.5.2.1.1 0 .2-.5 0-.5 0-.7 0-.7.3 0 .2.2.3.6.2h.6l-.6.2c-.5.3-.7.3-.9 0a1 1 0 0 0-.6-.4c-.4 0-.4 0-.2.3.2.2.2.4 0 .5l-.2-.1a.3.3 0 0 0-.3-.3c-.2 0-.2.1-.1.3.2.2-1.2.9-1.4.6l.1-.1c.2 0 .3-.2.2-.4-.1-.3-.3-.3-.7.3-.3.4-.7.6-.9.5-.2 0-.4 0-.5.3 0 .2-.2.4-.4.4s0-.4.3-.8c.5-.8.5-.8 0-.6-.3 0-.6.2-.7.4-.1.1 0 .2.1 0l.3.1c0 .3-.4.4-1 .3-.4 0-.3.1 0 .5.3.3.4.6.3.6-.2 0-.4-.2-.6-.4-.3-.4-.4-.4-.7 0-.2.2-.5.3-.7.2v.3c0 .3 0 .4-.3.3-.3-.2-.4 0-.4.2 0 .5-.8.4-1.3 0-.3-.4-.3-.4-.2 0 .2.6 0 .6-.3 0zm1.5-.5c.3-.3.3-.4 0-.3-.1.1-.3 0-.3-.1 0-.3 0-.3-.3 0-.1.1-.2.4 0 .5.2.4.2.4.6-.1zm122.6-.4c-.3-.3-.4-.3-.4 0 0 .2 0 .2-.3.1-.2-.1-.2 0 0 .3.3.3.5.3.7.2s.2-.4 0-.6zm-117.6-1.4v-.4c-.1 0-.2.1-.3.4-.1.2 0 .4 0 .4s.3-.2.3-.4zm1.9-.4c0-.2-.1-.3-.3-.3-.1 0-.2.1-.1.3l.3.2v-.2zm154.4 0h-.5c-.2.1-.1.2.2.2.3 0 .4 0 .3-.1zm-197.8-.8c.4-.4.4-.4-.1 0a33.5 33.5 0 0 1-.5.5c.1 0 .4-.2.6-.5zm195.8.4zm-143.3-1.8c.1-.1 0-.2-.1-.2s-.3.1-.3.2l.1.3.3-.3zm98.7 0c.1-.3.3-.4.4-.3.2 0 .3 0 .3-.2s-.2-.2-.5-.1c-.5.2-1-.1-.6-.4.2-.1 0-.2-.3-.2-.4 0-.8.2-.9.4 0 .2 0 .3.2.3.1 0 .2-.1.2-.3 0-.2.2 0 .5.2.3.4.4.6.2.7-.2.1-.2.2 0 .2s.5-.2.5-.4zm41.1-1.4-.4-.1c-.2 0-.3 0-.3.2s.1.2.3.1c.3 0 .4-.2.4-.2zm-43.4-.3c-.3-.2-.4-.5-.3-.7.1-.3 0-.3-.2 0a.7.7 0 0 0 .5 1.1c.4 0 .4 0 0-.4zm1.1-.1-.1-.3-.3.3.1.3.3-.3zm-5.3-2.3c.1-.5-.7-.4-.9 0 0 .4 0 .5.3.4.2 0 .5-.2.6-.4zm-80.1-1.8c-.3-.2-.4-.2-.6.1-.4.7-.3.9.3.5.4-.2.5-.3.3-.6zm-56.1.1-.7-.2.1.2c.2.2.5.3.7.3l-.1-.3zm133.5-.4h-.5c-.4 0-.7 0-.7-.2 0-.1-.1-.2-.2-.1v.4c.2.3 1.2.2 1.4-.1zm-76.1-.5c0-.6-.7-.5-.9.1 0 .4 0 .5.4.4.3-.1.5-.3.5-.5zm120 .1V93s-.2 0-.3.2l.1.3c.1 0 .3-.1.3-.3zM230 93c.1-.1 0-.3 0-.4-.2-.1-.3 0-.3.2 0 .5.1.6.3.2zm-129.9-.3c.1 0 0-.3-.4-.3-.3-.1-.5 0-.5.2 0 .4.7.5 1 .1zm129.3.2-.4-.3c-.3 0-.4 0-.3.1.2.3.7.4.7.2zm-2.3-.9c.3-.1.3-.3.1-1-.4-1.2-.7-1.4-.5-.3.2.7.2 1-.1 1-.2 0-.3 0-.2.2.1.3.2.3.7.1zm-125.8-1.8s0-.2-.2-.3l-.3.1c0 .1.1.3.3.3h.2zm58.3-2.7c.1-.2 0-.3 0-.2-.2 0-.3.3-.3.4 0 .4.2.3.3-.2zm6.3-7.3c-.3-.3-.7 0-.4.3 0 .2.3.2.4.1.2 0 .2-.2 0-.4zm48.3-2.8c0-.2 0-.3-.3-.3s-.4.1-.4.3c0 .1.1.2.3.2s.3-.1.4-.2zm-.4-.8-.1-.3-.3.3c-.1.1 0 .2.1.2s.3 0 .3-.2zm.8.1-.3-.3-.3.1.3.3h.3zm-1.2-1.2c.1-.4 0-.5-.3-.2-.2.2-.2.4 0 .4l-.1.4c-.3.2-.3.2 0 .1.2 0 .4-.3.4-.7zm-.7-1c-.4-.4-.6-.4-.8 0-.2.1-.2.2 0 .1l.6.1c.6.4.6.3.2-.2zm-158.5-1a.4.4 0 0 0-.3-.3c-.2 0-.3.2-.3.4.1.2.3.3.4.3s.2-.1.2-.3zm266.6 0c0-.1 0-.3-.3-.3a.4.4 0 0 0-.4.4c0 .2.2.3.3.3l.4-.3zm-108.6-.1c0-.2-.1-.3-.3-.3-.1 0-.2.1-.1.3l.3.3.1-.3zm.4-1c-.1-.2-.3-.3-.3-.2-.1 0 0 .2 0 .4.3.4.4.3.3-.1zm-.6-.8c.2-.3.1-.3-.2 0-.5.3-.5.5-.2.5.2 0 .4-.2.4-.5zm-1-.2c-.3-.1-.4-.2-.1-.6.3-.3.2-.3-.1-.2-.7.3-.5 1 .3 1 .3-.1.3-.2 0-.2zM56.3 67.5v-.3s-.4.1-.4.3l.1.2c.1 0 .2 0 .3-.2zm262.4 0c0-.2-.2-.3-.3-.3-.2 0-.2.1-.1.3l.2.2c.1 0 .2 0 .2-.2zM144.5 67c0-.2-.2-.3-.5-.4-.3-.2-.4-.1 0 .2.3.5.5.5.5.2zm4.4-.7c-.3-.5-.2-.5.1-.2.4.3.5.3.6 0 0-.3.2-.3.6 0 .4.4.4.4.1-.1-.2-.5-.2-.6.4-.4.3 0 .6.2.6.4 0 .1.2.1.3-.1.1-.2.4-.4.6-.4.2 0 .3-.2.3-.4-.1-.3 0-.3.2 0 .3.1.6.2 1 0 .6-.2 1.7-.2 2.1.1.2.1.3.1.2 0-.1-.3.4-1 .8-1.1.2 0 .4 0 .4.2 0 .1 0 .3.2.3s.3-.1.2-.3c-.2-.3.8-.5 1.2-.2.2.3.2.2 0 0 0-.3 0-.4.6-.3.7.2 1.2-.3 1.5-1.1.1-.3 0-.4-.3-.4-.4 0-.4 0-.2.3.3.4.2.5-.4.2-.3 0-.4-.3-.3-.4 0-.1 0-.2-.2-.2s-.2-.2.1-.4c.5-.3.4-.4-.2-.5-.5 0-1 0-1.2.2-.2.1-.1 0 .2-.4.4-.5.4-.6 0-.4l-.4-.1c0-.2-.2-.3-.5-.3s-.3 0 0-.4c.2-.3.2-.4-.2-.4-.5 0-.7-.5-.3-1.1v-.7l-.1.2c0 .2-.2.3-.4.3-.4 0-.4 0-.1-.4.3-.3.2-.4-.1-.2-.3 0-.5 0-.5-.3 0-.2 0-.4-.2-.4-.1 0-.2-.3-.1-.6 0-.7-.3-.8-.9-.4-.1 0-.2-.2-.2-.7 0-.7 0-.8-.8-.8-.7 0-.7 0-.3-.4.5-.5.6-1.3.1-1.3-.1 0-.2.2 0 .5l-.1.5c-.1 0-.3-.6-.2-1.4 0-.8 0-1.4.2-1.3.1 0 .2 0 0-.2a.4.4 0 0 0-.4-.3c-.2 0-.3 0-.2-.1.1-.1 0-.4-.1-.6-.3-.4-.3-.4.1 0 .4.2.5.2.5-.1 0-.3-.2-.5-.3-.6h.4c.4.1.7 0 .7-.1 0-.2-.1-.3-.3-.2-.4.3-.3-.1.3-.7s.7-1.4.2-1.1c-.2.1-.1 0 .2-.4.3-.4.4-.8.3-1.2-.2-.7 0-1 .6-.7.3.2.3.3 0 .6-.4.4-.3.8 0 .6.5-.2.6-1.5.2-1.8-.2-.1-.1-.2.3-.2s.6 0 .5-.4c-.1-.2 0-.4.2-.4.3 0 .4-.1.3-.4 0-.2 0-.5.3-.6.4-.2.4-.3-.1-.3-.3 0-.7-.1-.8-.3-.1-.2 0-.2.2 0 .2 0 .3 0 .2-.5-.2-.4-.1-.5.2-.4l.4-.1c0-.2 0-.3.2-.3s.2.1.2.3c-.1.1 0 .2.2.2.3 0 .4 0 .3-.2 0-.1 0-.3.2-.4.1-.1.2-.1.1 0-.1.2 0 .4.2.5.2 0 .4 0 .4-.2s0-.2.2 0c.2.3.3.3.4 0V40c-.2 0-.4 0-.6-.3-.2-.3-.2-.3.2-.2.3 0 .6 0 .7-.2.1-.1 0-.2-.1-.2-.3 0-.4-.2-.4-.8 0-.7 0-.8-.3-.5-.2.4-.3.4-.6-.1-.2-.3-.5-.5-.8-.5-.9.1-1.4 0-1.2-.3.1-.2-.4-.3-.8-.2l-.8-.7c-.4-.5-.8-.8-1-.8l-.2-.1c0-.1 0-.2-.2-.2-.1.1-.3 0-.4-.4 0-.3-.3-.4-.4-.4-.4.3-2-.7-1.7-1 .1-.1 0 0-.2 0-.8.6-1.5.7-1.4.2.1-.4 0-.5-.8-.4-.7 0-1-.1-1.2-.4 0-.3-.1-.3-.3 0-.2.3-.3.3-.4 0-.1-.1-.3-.2-.5-.1-.2 0-.6 0-.9-.3-.2-.2-.3-.2-.2 0 .2.3-.2.7-.8.8a6 6 0 0 0-1.2.4c-.4.3-1 .4-1 .3l-.3.1c0 .2-.2.4-.5.5-.3 0-.5.3-.4.4.1.1-.1.2-.6.1h-.4c.1 0 .2.4.1.7 0 .4-.2.4-.3.2-.2-.3-.3-.3-.3 0 0 .1-.1.3-.3.3-.4 0-.5.8 0 1.3.1.3.1.3-.1.2-.2-.1-.4 0-.4.4-.1.3-.4.5-.7.5-.8-.1-1 0-.6.2.3.2.3.4.2.5-.2.1-.3.4-.3.6 0 .2-.2.4-.4.5-.4 0-.4 0 0-.2.3-.3.3-.3 0-.2-.2 0-.4.3-.3.5 0 .3 0 .4-.3.4-.2 0-.2.2 0 .5.3.3.3.4.1.2l-.8.1c-.4.3-.4.3 0 .2.3 0 .5 0 .5.2 0 .3-.1.4-.3.4-.2 0-.4.1-.4.4l-.5.8c-.2 0-.1.2.1.2.3 0 .3 0 0 .4-.2.3-.2.4 0 .3 0-.1.2 0 .2.2s0 .3-.2.2l-.3.3c-.1.2 0 .4.1.4.2 0 .2.1-.1.3-.3.1-.4.4-.3.5.1.2 0 .4-.2.6-.2.1-.3.3 0 .4.3.3.4.9 0 .8-.2 0-.3 0-.4.3 0 .2 0 .2.4.1s.4-.1 0 .3c-.3.2-.5.6-.4.8l-.1 1.1c-.5 1.2-.5 1.5.2 2.1l.4.5c-.2 0-.3 0-.3.4s0 .6.4.4c.3 0 .4 0 .2.2-.3.4-.4 1.2-.3 2.8 0 .6.1.8.5.7.3 0 .4 0 .3.3 0 .2-.3.3-.4.2-.2-.1-.2 0 0 .2s.3.5.2.6c-.3.3-.4 1-.1.8.1 0 .2-.3 0-.5 0-.1.2 0 .5.3.4.4.8.6.9.5l.2.1c0 .2-.2.3-.5.2h-.7c-.1.2 0 .3.2.2.4-.1 1.2.5 1.2 1 0 .1.1.2.3 0 .1 0 .2.1 0 .3 0 .3.1.7.4 1 .2.2.3.5.2.6-.1.2 0 .1.2 0 .7-.4 1.3-.3 1.3.2 0 .3-.1.5-.3.5a.3.3 0 0 0-.2.3s.2.1.4 0c.2 0 .6 0 .8.3.4.2.4.2 0-.3l-.6-.7.7.6 1.1.6.8.4c.2.2.5.4.8.3.4-.1.5 0 .3.4-.1.5 0 .6.2.2a1.7 1.7 0 0 1 .9-.5 136.1 136.1 0 0 0 1.6 0c-.1.1-.4.2-.6 0-.3 0-.2.1.1.3.5.2.7.2.9 0 0-.2.3-.3.5-.2.2.1.2.3.1.4 0 .2 0 .2.3.1s.4-.2.1-.5c-.2-.3-.2-.4 0-.3.3 0 .6.2.8.4.2.2.4.3.6.2 0 0 .3 0 .5.2.5.6.6.5.2-.2zm-11.7-3.6c-.1-.1 0-.3.1-.3s.3.2.3.3l-.1.3-.3-.3zm20.6-24.6c0-.1 0-.3.3-.3s.4.2.4.3c0 .1-.1.3-.3.3l-.4-.3zm50.3 28.4c0-.2 0-.3-.1-.2-.2 0-.3.3-.3.4 0 .4.2.3.4-.2zm27.5-.2c0-.3 0-.4.4-.4.3 0 .6-.2.8-.4l.7-.4c.3 0 .8-.3 1.1-.6l.7-.6-.5.7c-.4.5-.4.5 0 .3.2-.2.6-.3.8-.2.2 0 .4 0 .4-.2a.3.3 0 0 0-.3-.2c-.1 0-.3-.2-.3-.5 0-.5.7-.6 1.4-.2.2.1.3.2.2 0-.1 0 0-.4.2-.7.2-.2.4-.6.3-.9-.1-.2 0-.3 0-.2l.3-.1c0-.5.9-1.1 1.3-1 .2 0 .3 0 .2-.1-.1-.2-.4-.2-.7-.1-.3 0-.5 0-.5-.2s0-.2.2-.1c0 0 .4-.1.8-.5l.5-.3v.5c.3.2.3-.5 0-.8-.1-.1 0-.4.2-.6.2-.2.2-.3 0-.2-.2 0-.4 0-.5-.2 0-.3 0-.4.4-.3.3 0 .4 0 .5-.7 0-1.6 0-2.4-.3-2.8-.2-.3-.2-.3.1-.2.4.2.5 0 .5-.4s-.1-.5-.4-.4l.3-.5c.6-.6.6-.8.4-1.7l-.1-1.5c0-.3-.2-.6-.4-.8-.5-.4-.5-.4 0-.3.3.1.4 0 .4-.1-.1-.2-.3-.3-.5-.3-.3 0-.2-.5.1-.8.2-.1.2-.3 0-.4-.3-.2-.3-.4-.2-.6 0-.1 0-.4-.3-.5-.3-.2-.4-.3-.2-.3s.3-.2.2-.4c-.1-.2-.3-.3-.4-.3 0 .1-.2 0-.2-.2s.2-.3.3-.2c.2 0 .2 0 0-.3-.4-.4-.4-.4 0-.4.2 0 .2-.1 0-.2l-.4-.8c0-.3-.3-.5-.4-.4-.2 0-.3-.1-.3-.4 0-.2.1-.3.4-.2.5.1.5.1 0-.2-.2-.1-.6-.2-.8 0-.2 0-.2 0 0-.3.3-.3.3-.5.1-.5-.2 0-.3-.2-.2-.4 0-.2-.1-.5-.3-.5-.4-.1-.4-.1 0 .2.3.2.3.2 0 .1-.3 0-.4-.2-.4-.4l-.3-.6c-.2-.1-.1-.3.1-.5.4-.2.2-.3-.6-.2-.3 0-.5-.2-.6-.5 0-.4-.3-.5-.4-.4-.3.1-.3 0 0-.2.3-.5.3-1.3-.1-1.3-.2 0-.4-.2-.4-.3 0-.3 0-.3-.2 0-.2.2-.3.2-.4-.2 0-.3 0-.6.2-.7h-.5l-.6-.1c.1-.2 0-.3-.3-.4-.3-.1-.6-.3-.6-.5 0-.1 0-.2-.2 0-.1 0-.6-.1-1-.4a6 6 0 0 0-1.2-.4c-.6-.1-1-.5-.8-.8 0-.2 0-.2-.3 0-.2.2-.6.3-.8.3-.2-.1-.4 0-.5.1-.1.3-.2.2-.4 0-.2-.3-.3-.3-.4 0-.1.3-.5.4-1.1.4-.8 0-1 0-.8.4 0 .5-.7.4-1.4-.1l-.3-.1c.3.3-1.3 1.3-1.6 1-.2 0-.4.1-.5.4 0 .3-.2.5-.3.4-.2 0-.3 0-.3.2s0 .2-.2.1l-1 .8c-.3.4-.7.8-.8.7-.3-.1-.9 0-.7.2.1.3-.4.4-1.3.3-.2 0-.6.2-.8.5-.3.4-.3.5-.6.1-.2-.3-.3-.2-.3.5 0 .6 0 .9-.3.8-.2 0-.3 0-.2.2.1.2.4.3.7.2.4-.1.5 0 .2.2-.1.2-.4.3-.5.3-.1-.1-.2 0 0 .3 0 .3.1.3.3 0 .2-.2.2-.2.2 0s.2.3.4.2c.3-.1.4-.3.3-.5-.1-.1 0-.2.1 0 .2 0 .2.3.2.4-.1.1 0 .2.2.2.3 0 .4 0 .3-.2l.1-.3c.1 0 .3.1.3.3 0 .1.2.2.4 0 .3 0 .3 0 .2.5-.1.5 0 .6.2.4.2-.1.3-.1.1.1 0 .2-.4.3-.7.3-.5 0-.6 0-.2.3.3.1.4.4.3.6 0 .3 0 .4.3.4s.4.2.3.4c-.1.3 0 .4.5.4.4 0 .5.1.2.2-.4.3-.3 1.6.2 1.8.4.2.4-.2 0-.6-.3-.3-.3-.4 0-.6.6-.3.9 0 .7.7-.1.4 0 .8.3 1.2.3.3.4.5.2.4-.6-.3-.4.5.2 1 .5.7.7 1 .2.8-.1 0-.2 0-.2.2s.2.2.7.1h.4c-.2 0-.3.3-.3.6s0 .3.4 0 .4-.3.2 0-.3.6-.2.7c.1 0 0 .1-.1 0a.4.4 0 0 0-.5.4c-.1.2 0 .3 0 .2.2 0 .3.5.3 1.3s0 1.4-.2 1.4-.2-.2 0-.5c0-.3 0-.5-.2-.5-.4 0-.3.8.2 1.3.4.5.3.5-.4.4-.7 0-.7 0-.7.8 0 .5-.1.8-.3.7-.6-.4-.9-.3-.8.4 0 .3 0 .6-.2.6l-.2.4c0 .3-.1.4-.4.3-.4-.2-.4-.1-.1.2.3.3.2.4-.1.4-.3 0-.4-.1-.4-.3 0-.2-.1-.2-.2-.2l.1.7c.3.6.1 1.1-.4 1.1-.3 0-.3.1 0 .4.2.4.2.4-.2.4-.2 0-.4.1-.4.3 0 .1-.2.2-.5 0-.4 0-.4 0 .1.5.3.4.4.5.1.4-.2-.2-.7-.3-1.1-.2-.7.1-.7.2-.3.5.3.2.4.4.2.4s-.3.1-.2.2v.3l-.6.2c-.4.1-.4.1-.2-.2.3-.3.3-.4-.1-.4s-.5.1-.4.4c.3.8.9 1.3 1.6 1.1.5 0 .6 0 .5.3-.2.2-.2.3 0 0 .5-.3 1.5-.1 1.3.2-.1.2 0 .3.1.3.2 0 .3-.2.3-.3 0-.2.1-.2.3-.2.5 0 1 .8.8 1 0 .2 0 .2.2.1.5-.3 1.6-.3 2.2 0 .3 0 .7 0 1-.2.2-.2.3-.2.2.1 0 .2 0 .4.3.3.1 0 .4.1.5.4 0 .2.2.3.3.1l1-.4c.5-.1.6 0 .3.1-.3.2-.3.3.1.3.3 0 .5.1.5.3 0 .2.1.1.3-.1.1-.3.3-.5.5-.5.1 0 .2.2 0 .3 0 .3 0 .3.3 0 .3-.2.5-.2.5 0 0 .1 0 .2.2.2s.3-.1.2-.4c-.1-.2 0-.3.2-.2.5.4 1.5.4 1.3.1-.2-.4 0-.3.6.2.3.3.5.4.6.1.2-.3.3-.3.4 0 .1.1.4.2.7.1.3 0 .5 0 .6.3 0 .2.2.4.3.4.1 0 .1-.2 0-.4zm5.2-3.6c0-.1.1-.3.3-.3.1 0 .2.2 0 .3 0 .2-.1.3-.2.3l-.1-.3zm-21-24.6c0-.1.3-.3.5-.3s.3.2.2.3c0 .1-.2.3-.4.3l-.2-.3zm-78.5 27.5-.2-.2c-.1 0-.3.1-.3.3 0 .2.1.4.3.3a.5.5 0 0 0 .2-.4zm96.2.1c0-.2 0-.3-.2-.3-.3 0-.3.3 0 .6.2.2.2.2.2-.3zm-74.5-.5c.2.2.3.1.1 0l.1-.4c.1 0 .3.2.3.4s.1.4.3.4c.2 0 .2-.2.1-.4 0-.3 0-.4.4-.4.3 0 .5-.1.4-.2 0-.2 0-.3.3-.3.4 0 .4 0 .1-.3-.4-.2-.4-.3 0-.5.4-.3.4-.3 0-.2-.8 0-1 0-1-.3.2-.2.5-.2.8-.2h.5c0-.2-.2-.4-.4-.4-.3 0-.4 0-.3-.3.1-.2 0-.1-.2.1-.2.3-.5.4-.6.3l-.1.2c0 .2-.3.6-.6.7-.4.3-.5.3-.9-.5-.2-.5-.3-.7-.4-.5 0 .2-.2.3-.4.3s-.3.1-.2.3c0 .1 0 .5-.2.8-.2.4-.2.5.2.3.2 0 .4 0 .5.3.1.2.3.4.4.3.1-.1.3 0 .3.1s-.2.3-.3.3c-.2 0-.3.1-.3.3 0 .2.1.2.4 0 .2-.2.5-.3.7-.2zm-1.1-1.4c-.3-.4-.3-.4 0 0 .5.3.7.5.5.5l-.5-.5zm54.7.5c.2-.2.4-.3.6-.1.3.1.3 0 0-.4-.1-.3-.2-.7-.1-.8 0-.2 0-.3-.3-.3-.2 0-.4-.1-.4-.3 0-.2-.2 0-.4.5-.3.8-.4.8-.9.5-.3-.1-.5-.5-.5-.7 0-.2-.1-.3-.2-.2 0 .1-.3 0-.5-.3-.3-.2-.3-.3-.3 0 .1.1 0 .2-.2.2s-.4.2-.4.3c0 .2.2.2.5.1.3 0 .6 0 .7.2.1.2-.2.3-1 .3-.3 0-.3 0 0 .2.4.2.4.3 0 .6-.3.2-.3.2.1 0h1c.1 0 .2-.2.1-.4 0-.2 0-.1.3.2.2.2.5.4.6.3.2-.1.3 0 .2.2-.2.5.7.4 1 0zm-.7-.1.5-.5c.4-.3.4-.3 0 .1-.3.5-.5.6-.5.4zm-42-.7c.4-.5 0-.6-.5-.2-.4.4-.4.5 0 .5l.6-.3zm30 .1-.2-.2c-.1-.1-.2 0-.2 0s0 .4.2.4.3 0 .3-.2zm-40.4-1s-.3.1-.5.4c-.3.6-.3.6.1.2.3-.3.5-.5.4-.6zm51.8.4-.4-.4c-.1 0 .4.9.6.9l-.2-.5zm-27.8-.6c0-.1 0-.2-.2-.2s-.2.1-.2.2v.3l.4-.3zm1.1-.6c-.1-.2-.4-.4-.4-.3-.1.1 0 .3.2.4.6.4.6.3.2-.1zm7.5-.8s-.3 0-.7.3c-.4.2-.6.5-.5.7.1.2 1.2-.7 1.2-1zm7.8 1-.1-.4c-.2 0-.4.2-.5.3l.1.3c.2 0 .4-.1.5-.3zm-29.5-.4a.3.3 0 0 0-.3-.2.3.3 0 0 0-.3.2c0 .2.2.3.3.3.1 0 .3-.1.3-.3zm-11.2-1.3c0 .2.2.3.4.2l.6.1c0 .1.3.3.5.3.1 0 .1-.2-.1-.3-.4-.2-.3-.3.2-.3.3 0 .6 0 .7-.2 0-.2 0-.2-.3-.1-.3 0-.4 0-.3-.1v-.5a.6.6 0 0 1-.3-.5c0-.2 0-.2.2 0 .1.3.5.4.8.3l.7.1c.1.2.3.1.5 0 .3-.2.4-.2.6 0 .1.2 0 .2-.2.1s-.3-.1-.1.1c0 .2.3.3.5.2l.4.1c0 .1.1.3.3.3l.2-.2c0-.6 0-.7.3-.4.2.4.3.4.3 0l-.4-.7c-.2-.3-.2-.3.3 0l.6.5c0 .1.1.2.3.2.1 0 .2 0 0-.2-.1-.4 1.2-.3 1.5 0 0 .2 0 .2-.1.1h-.4c0 .2.2.4.4.5l.4-.1c0-.2.1-.2.3-.1.1 0 .2 0 .2-.2s.2-.2.3-.2c.2 0 .3.2.2.4-.1.2 0 .3 0 .2.2 0 .3-.4.3-.7 0-.2.2-.5.4-.6.3-.1.4-.4.3-.5l.1-.6c.2 0 .2-.2.2-.3-.1-.1.1-.2.5-.2.5 0 .6 0 .5-.4-.1-.3-.3-.4-.5-.4-.1 0-.2 0 0 0l.1-.5c0-.2.2-.4.3-.4.2 0 .2-.2.1-.3 0-.2 0-.2.2 0 .3.5.4.5.7-.2.2-.7.2-.7-.3-.7-.3.1-.4 0-.2 0 .1-.1.2-.3.1-.5-.1-.1 0-.2.3 0 .3 0 .4 0 .3-.2-.1-.1 0-.2.2-.2s.4-.4.4-.9a15.2 15.2 0 0 1 .3-2.2c0-.2.2-.4.4-.4.3 0 .4 0 .3-.1 0-.1 0-.4.2-.6.2-.3.2-.4-.1-.2-.4.2-.4.2 0-.3l.7-.7-.1-.2c-.2 0-.3 0-.2-.2l-.1-.4c-.4-.3-.4-.7 0-.7.2 0 .4-.2.4-.6 0-.7.3-1 .6-.4.2.2.3.2.3 0a.6.6 0 0 0-.3-.5c-.2 0-.1-.3.2-.6.2-.3.5-.5.6-.4.1 0 .3 0 .4-.3 0-.2 0-.3-.3-.2l-.3-.1a.3.3 0 0 1 .2-.3c.2 0 .3-.2.2-.4 0-.1 0-.4.3-.6.4-.3.4-.4-.2-.5l-.6-.2.7-.6c.4-.4.8-.6 1-.5v-.5c-.1-.4 0-.5.2-.3.2.1.1-.1-.1-.5-.5-.7-.5-.7 0-.7.3 0 .6-.3.8-.6.2-.5.2-.7 0-.5-.3 0-.4 0-.3-.4l.1-.6s.2 0 .3.2c.2.3.3.3.3.1 0-.5-.6-.7-1-.3-.2.2-.4.2-.4.1s-.2 0-.4.2c-.3.2-.8.5-1.1.5-.7.2-.7.2 0 .2s.8.1.5.4c-.2.3-.5.4-.7.4a.5.5 0 0 0-.4.4c-.1.2-.3.2-.6-.1-.5-.4-.5-.4-.2.2.3.6.3.7-.3.5h-.7v.8c0 .4 0 .4-.3 0-.2-.3-.3-.2-.7.2-.3.3-.7.5-.9.5-.2 0-.4.2-.3.4 0 .2-1.4 1-1.6.8-.1 0-.3.1-.5.4-.3.3-.6.5-.8.4-.4-.2-.5 0-.5.6 0 .4-.1.8-.3.8-.2 0 0 .1.2.3.3.2.4.5.3.6-.1.1-.2 0-.2-.2 0-.3 0-.3-.2 0s-.2.6 0 1c.4.5.4.6 0 .7-.1.1-.4 0-.5-.1-.1-.2 0-.2.2 0 .2 0 .3 0 .2-.1-.3-.3-1-.4-.9-.1.1.1-.1.3-.6.3s-.6 0-.2.1c.6.2.6.2 0 .4-.3 0-.6 0-.8-.3-.4-.3-.4-.3-.3.2.2.7-.2.8-.6.1-.2-.4-.2-.3-.3.2 0 .4 0 .5-.1.4-.2-.5-.6-.4-.5 0 0 .3 0 .3-.2 0-.2-.4-.5-.6-.6-.6a2 2 0 0 1-1.3-.3c-.3-.2-.4-.2-.3 0l-.1.3c-.2 0-.3-.2-.3-.3 0-.4-1.3-.3-1.6.2-.1.3-.2.4-.2.2 0-.1.1-.4.4-.7.3-.3.3-.4 0-.4-.2 0-.5.3-.6.6 0 .4-.2.6-.4.5l-.2.1c0 .2 0 .3.2.3 0 0 .2.2.2.5 0 .6 0 .7-.8.3-.3-.2-.4-.2-.3 0 0 .1 0 .5-.4.8-.6.6-.7.8 0 .6.2-.1.2 0-.3.4-.3.3-.5.5-.3.4.3-.1.3 0 .1.4-.3.5 0 1.1.4.7.1 0 .4.1.6.4s.5.5.8.5c.3 0 .3.1-.1.3-.5.2-.5.2 0 .2.4 0 .4.1.1.4-.4.5-.9.6-.6.1V53c-.2 0-.3.6-.2 1 0 .7 0 .8-.2.5-.1-.2-.2-.5-.1-.6.2-.4-.4-.2-.9.3-.4.5-.4.6.2.8.6.2.6.3.1.3-.4 0-.4 0-.2.2l.3.4c0 .1.1.4.4.7.5.6.5.6-.5.3-.5-.2-.6-.2-.5 0 .2.4.3.5.3 1 0 .3 1.1.2 1.1 0s0-.2.2-.2c.2.3-.2 1-.5.9-.2-.1-.2 0 0 .1 0 .2.5.5 1 .7.8.3 1 .5.8 1-.1.6-.1.6.3 0 .2-.2.3-.3.3-.1zm-2.7-4.1c0-.1 0-.5.2-.7.2-.3.4-.4.5-.3 0 .1 0 .5-.2.7-.2.3-.4.4-.5.3zm.9-4.9c-.2-.1-.3-.2 0-.2a.6.6 0 0 1 .4.2c.2.4.1.4-.4 0zm19.2-12.2c.2-.2.4-.2.5-.2.1.1 0 .3-.3.4-.4.1-.4 0-.2-.2zm.2-2v-.3c.2.3.2.7 0 .8v-.4zm33.4 23.5c0-.1.3-.2.5-.1.2 0 .4 0 .4-.2s.2-.1.4.2c.4.5.4.5.2-.1-.1-.5 0-.7.8-1 .5-.2 1-.5 1.1-.7.2-.2.1-.2 0-.1-.3.1-.8-.6-.5-.9l.1.1c0 .1.3.3.6.3l.5-.2c0-.5 0-.6.3-1 .2-.2.1-.2-.4 0-1 .3-1 .3-.6-.2l.4-.7.3-.5c.3-.1.2-.2-.2-.2s-.4 0 .2-.3c.6-.2.6-.3.1-.8-.4-.5-1-.7-.8-.3l-.1.6c-.2.3-.3.2-.2-.5 0-.5 0-1-.2-1-.1 0-.1 0 0 .1.2.5-.3.4-.7 0-.2-.4-.2-.5.2-.5.5 0 .5 0 0-.2s-.5-.2-.1-.3c.2 0 .6-.2.8-.5.2-.3.4-.5.5-.4.4.4.7-.2.5-.7-.3-.4-.3-.5 0-.4.2.1 0 0-.3-.4-.4-.4-.5-.5-.2-.4.6.2.6 0 0-.6-.4-.3-.5-.7-.4-.8.1-.2 0-.2-.4 0-.7.4-.8.3-.8-.3 0-.3.2-.5.3-.5.1 0 .2-.1.2-.3 0-.1-.1-.2-.3-.1-.1 0-.3-.1-.4-.5 0-.3-.3-.6-.5-.6-.3 0-.3 0 0 .4l.4.7c0 .2-.1 0-.3-.2-.3-.5-1.6-.6-1.6-.2 0 .1 0 .3-.2.3s-.2-.2-.1-.3c.1-.2 0-.2-.3 0a2 2 0 0 1-1.3.3c-.2 0-.5.2-.7.6-.1.3-.2.3-.1 0 .1-.4-.3-.5-.5 0 0 .1-.2 0-.2-.4 0-.5 0-.6-.3-.2-.4.7-.7.6-.6-.1.1-.5.1-.5-.2-.2-.2.3-.5.4-.9.3-.5-.2-.5-.2 0-.4.4 0 .4-.1-.2-.1-.4 0-.7-.2-.6-.3.2-.3-.5-.2-.8.1-.1.1 0 .1.1 0 .3-.1.4-.1.2 0 0 .2-.3.3-.5.2-.4 0-.4-.2 0-.7.2-.4.3-.7.1-1-.2-.3-.3-.3-.3 0 0 .2 0 .3-.2.2 0-.1 0-.4.4-.6l.2-.3c-.2 0-.4-.4-.4-.8 0-.6 0-.8-.4-.6-.3 0-.6 0-.8-.3-.1-.3-.4-.5-.5-.5-.3.2-1.7-.6-1.6-.8 0-.2-.1-.4-.4-.4-.2 0-.6-.2-.8-.5-.4-.4-.5-.5-.7-.1-.3.3-.3.3-.3-.1v-.7h-.7c-.7 0-.7 0-.4-.6.4-.6.3-.6-.1-.2-.4.3-.5.3-.6 0a.5.5 0 0 0-.5-.3c-.1 0-.4-.1-.6-.4-.3-.3-.2-.4.4-.4.7 0 .7 0 .1-.2-.4 0-.9-.3-1.1-.5l-.5-.2-.4-.1c-.4-.4-1-.2-.9.3 0 .2.1.2.3 0l.2-.3.2.6c0 .3 0 .4-.3.4-.3-.2-.3 0 0 .5.1.3.5.6.7.6.5 0 .5 0 0 .7-.2.4-.2.6 0 .5.2-.2.3 0 .1.3 0 .4 0 .6.1.5.1 0 .6.1 1 .5l.6.6-.6.2c-.5.1-.5.2-.2.5.3.2.4.5.3.6 0 .2 0 .4.2.4a.3.3 0 0 1 .3.3c0 .1-.2.2-.4.1s-.3 0-.2.2c0 .2.2.4.3.3.1 0 .4 0 .7.4.3.3.3.5.1.6a.6.6 0 0 0-.2.5c0 .2 0 .2.2 0 .3-.5.6-.3.6.4 0 .4.2.6.4.6.4 0 .5.4 0 .7 0 0-.1.2 0 .4 0 .1 0 .2-.2.2s-.3.1-.1.2l.7.7c.3.5.3.5 0 .3-.4-.2-.4-.1-.1.2.2.2.2.5.1.6l.3.1c.2 0 .5.2.5.4v.8l.3 1.4c0 .5.2.9.4.9s.3.1.2.2c-.1.2 0 .2.3.1.3 0 .4 0 .2.1 0 .2 0 .4.2.5.2 0 0 .1-.2 0-.5 0-.6 0-.3.7.2.7.3.7.6.3.2-.3.3-.3.2-.1l.1.3c.1 0 .3.2.3.4l.2.5c.1 0 0 0 0 0-.2 0-.4.1-.5.4-.1.4 0 .5.5.4.3 0 .6 0 .5.2l.1.3c.1.1.2.4.1.6 0 .1 0 .4.3.5.2 0 .4.4.4.6 0 .3.1.6.3.7.1.1.2 0 0-.2 0-.2 0-.4.2-.4s.3 0 .3.2.1.3.3.2c.1-.1.2 0 .2 0s.2.3.4.2c.3 0 .4-.3.4-.4 0-.2-.1-.2-.3 0-.2 0-.2 0-.1-.1.3-.4 1.6-.5 1.4-.1-.1.1 0 .2 0 .2l.4-.2s.2-.3.6-.5c.4-.3.5-.3.2 0-.2.2-.3.5-.3.7 0 .4 0 .4.2 0 .3-.3.4-.2.3.4 0 0 .1.2.3.2a.3.3 0 0 0 .2-.3c0-.1.2-.2.4-.1a.5.5 0 0 0 .6-.2c.1-.2 0-.2-.2-.1s-.2.1-.1-.1.3-.2.5 0c.3.1.4.2.5 0 .1-.1.4-.2.8-.1.3 0 .6 0 .7-.2.2-.3.3-.3.3 0a.6.6 0 0 1-.3.4c-.1 0-.2.3 0 .5 0 .1 0 .2-.3 0-.3 0-.4 0-.3.2l.7.2c.5 0 .5 0 .2.3-.3.1-.3.2-.1.2a.6.6 0 0 0 .5-.2zm3-4.8v-.6s.3 0 .5.4c.2.2.2.5.1.6-.1 0-.3-.1-.5-.4zm-.6-4.5c.2-.2.4-.3.5-.2 0 .1 0 .2-.3.3-.4.2-.4.2-.2-.1zm-19.2-12.1c-.3-.2-.3-.3-.1-.3a.6.6 0 0 1 .5.3c.2.3 0 .3-.4 0zm0-2c0-.5.1-.6.2-.4v.8c-.1.2-.2 0-.2-.4zm1 23c.4-.5.4-.5 0-.2l-.5.5c0 .2.2 0 .6-.4zm3.2-.4-.1-.3-.3.3.1.3.3-.3zm-25.6-.6c.1-.2 0-.6-.2-.9l-.4-.4c-.2.9-.2 1.1 0 1.1s.2.1.2.3c-.1.1-.1.2 0 .2.2 0 .4-.1.4-.3zm26.8 0 .1-.2.2-.4c-.1-.7-.4-.7-.8 0-.4.8-.3.8.1.9.3 0 .5-.1.4-.2zM66.8 58l-.4-.2c-.2 0-.2.1-.1.2 0 .2.3.3.4.3.2 0 .2-.1.1-.3zm241.3 0c.1-.1 0-.2 0-.2l-.5.2v.3c.2 0 .4-.1.5-.3zm-226.9-.7c0-.2-.1-.3-.3-.3-.1 0-.2.1 0 .3l.2.2.1-.2zm52.8-1.9s0-.2-.3-.2c-.2 0-.3.1-.2.2 0 .2.2.3.2.3l.3-.3zm-76.5-2c.2-.4.1-.4-.2-.1-.5.4-.5.5-.2.5.2 0 .3-.2.4-.4zm260 .3-.4-.4c-.3-.3-.4-.3-.2 0 .1.4.6.7.6.4zm-157.8-2.8c0-.1 0-.3-.2-.4-.1 0-.2 0-.2.3 0 .4.1.5.4.1zm59.4-.1c0-.3-.1-.4-.3-.3-.1.1-.2.3-.1.4.2.4.4.3.4-.1zM155.3 45l-.3-.3c-.1 0-.2 0-.2.2l.2.2h.3zm68.3-.1-.1-.3-.3.3c-.1.1 0 .2 0 .2s.4 0 .4-.2zm-42.8-4.3c-.2-.2-.4-.2-.4 0 0 .3.4.6.5.4l-.1-.4zm17.1 0c0-.1-.1-.2-.3 0l-.2.3c0 .2.1.2.2.1.2 0 .3-.2.3-.4zm-37.4-2.2c0-.5 0-.6-.4-.3-.5.2-.5.3 0 .6l.4.4v-.7zm58.2 0s-.1-.2-.4-.3c-.4-.3-.5-.3-.5.3 0 .5.2.6.5.3l.4-.3zm-80.3-.8-.1-.4-.3.4.1.4c.2 0 .3-.2.3-.4zm102 0-.3-.4-.1.4c0 .2 0 .4.2.4s.2-.2.1-.4zm-57-3.9c.2 0 0-.2-.2-.1-.4 0-.5.1-.4.4 0 .2.2.2.3.1l.4-.4zm12.2.3c0-.2 0-.4-.4-.4s-.4 0-.1.3c.4.5.3.5.5 0zm-22.6-.5c0-.1 0-.3-.2-.3s-.2.2-.2.3l.3.3.1-.3zm32.7 0c.1-.1 0-.3-.1-.3s-.3.2-.3.3l.1.3.3-.3zm-63.2-.4c0-.2 0-.3-.2-.2-.1 0-.2.2 0 .4.1.3.2.3.2-.2zm93.6.2c.1-.2 0-.4 0-.4-.2-.1-.3 0-.3.2 0 .5.1.5.3.2zm-83-1c0-.2-.1-.3-.3-.3-.2 0-.3.1-.2.2l.2.2s.2 0 .2-.2zm72.7 0c0-.2 0-.3-.2-.3s-.4.1-.3.2l.3.2.2-.2zM6 30.8l-.4-.3h-.3c.2.3.7.5.7.3zm362.9-.2c0-.2 0-.2-.3-.1-.4.2-.5.4-.1.4l.4-.3zM3.8 29c.1-.1 0-.2-.2-.1-.5.2-.6.4-.2.4.2 0 .3-.1.4-.3zm367.4.2-.4-.3-.3.1c.2.3.7.4.7.2zm-346.8-.6a1 1 0 0 0-.7 0l.4.1c.4 0 .5 0 .3-.1zm326.2 0a1 1 0 0 0-.6 0l.3.1c.3 0 .5 0 .3-.1zm-322.4-.4c0-.1 0-.3-.3-.3s-.4.2-.4.3c0 .2.1.3.3.3s.3-.1.4-.3zm318.7 0c0-.1-.2-.3-.4-.3-.3 0-.4.2-.3.3.1.2.3.3.4.3.2 0 .3-.1.3-.3zm-205.3-.5c0-.3-.3-.5-.6-.5-.6 0-.6 0 0 .5.5.6.6.6.6 0zm-102-1.2c0-.3 0-.4-.2-.3l-.2.4c0 .4.1.3.3-.1zm295.4-.2c-.3-.3-.3-.2-.2.1.1.3.3.4.4.4 0-.1 0-.3-.2-.5zm-93.8-1.6-.1.3c0 .4 0 .5.1.4v-.7zM129 24.6l-.3-.3c-.2 0-.2.2-.1.3 0 .2.2.3.2.3.1 0 .2-.1.2-.3zm117 0v-.3c-.2 0-.4.2-.4.3 0 .2 0 .3.2.3s.1-.1.2-.3zM22.8 21.8c0-.2-.6-.3-.7-.2 0 .2 0 .3.3.3l.4-.1zm329.6 0c0-.2-.5-.3-.6-.2 0 .2 0 .3.2.3l.4-.1zm-173.3-2c0-.3 0-.3-.2 0 0 .2-.2.2-.4.1-.1 0-.2 0 0 .2.2.3.6.1.6-.3zm-1.6-.5v-.2s-.3 0-.4.2c0 .2 0 .3.2.3s.2-.1.2-.3zM171 19c-.1-.4-.6-.5-.6-.2s.3.6.6.6c0 0 .1-.2 0-.4zm36.9 0c.2-.5-.4-.4-.6 0 0 .3 0 .4.2.4a.7.7 0 0 0 .4-.5zm-177.2-.5-.1-.4-.3.4.1.4c.1 0 .3-.2.3-.4zm313.4 0-.3-.4-.1.4c0 .2.1.4.3.4 0 0 .1-.2 0-.4zm-174.6-.5c0-.3-.3-.4-.4-.3-.2.1-.2.3 0 .6.4.4.6.2.4-.3zm39.9-.2c-.2-.3-.6 0-.6.5 0 .3 0 .3.3 0 .3-.1.4-.4.3-.5zm-3-1c0-.2-.2-.3-.3-.3-.2 0-.2.1-.1.3l.3.2v-.2zm-167.5-.8c0-.4-.3-.4-.8 0-.3.2-.3.2.2.2.3 0 .6 0 .6-.2zm297.4 0c-.5-.4-.8-.4-.8 0l.6.2c.5 0 .5 0 .2-.2zM97 14.4l-.4-.2c-.2-.1-.4 0-.4.2s.2.3.4.2l.4-.2zm181 0c0-.2-.2-.3-.4-.2-.4.1-.4.2-.1.4.5.3.5.3.5-.2zm-96-1.3c0-.2-.2-.4-.4-.4v.6c.4.6.7.5.4-.2zm-132.4 0c0-.2-.3-.2-.7.1-.4.2-.3.3.2.2.3 0 .5-.1.5-.2zm275.7.1c-.4-.3-.8-.3-.8 0l.6.2c.5 0 .5 0 .2-.2zm-141-10.5c.4-.4.4-.4 0 0-.3.1-.5.3-.5.4 0 .2.2 0 .5-.4zm10 .4s-.1-.3-.4-.5c-.4-.3-.4-.3 0 .1.3.5.5.6.5.4zm48.2 99.6c0-.2.1-.3.3-.4.1-.1.2 0 0 .2 0 .5-.3.6-.3.2zm-1-1c-.3-.2-.3-.3 0-.5.3 0 .5 0 .5.3 0 .4 0 .4-.5.1zm41.6-1.3c0-.2-.3-.3-.4-.2-.2 0-.2 0-.1-.1.2-.4.2-.4.7.2.3.3.4.5.2.5l-.4-.4zM86.4 98v-.4c.2 0 .3 0 .3.3 0 .4 0 .5-.3.1zm149.3 0c0-.2.2-.3.3-.3.2 0 .2.2.1.3l-.2.3-.2-.3zm.8 0c0-.2.2-.2.3-.1l.3.2-.3.2-.3-.3zm51.2-.1c0-.2 0-.3.2-.3.1.1.2.3 0 .4-.1.4-.2.3-.2-.1zm-55.8-1.6c.1-.2.3-.4.4-.3 0 0 0 .3-.2.5-.3.2-.3.2-.2-.2zm-130.6-4.4.3-.3c.2 0 .2.2.1.3 0 .2-.2.3-.2.3-.1 0-.2-.1-.2-.3zm171.2-.2c-.3-.4-.3-.4.2 0 .6.2.8.5.4.5-.1 0-.4-.2-.6-.5zm-50-4.4c0-.2-.3-.3-.8-.3-.7.1-1.3-.5-.9-.9.1 0 .3 0 .3.2s.3.3.4.3.2-.1 0-.2c0-.2.1-.2.4-.1.3.1.4 0 .2-.2-.1-.2-.1-.3 0-.2l.2.3c0 .3.7 1 1 1 .1 0 .3 0 .3.2l-.6.2c-.2 0-.5-.2-.5-.3zm-2.6-.6c.3-.5.3-.7 0-.8-.4-.3-.7-1.4-.3-1.4.2 0 .2.1.1.3v.2l1 .4c.9.3 1 .4.4.3-.5 0-.7 0-.7.4l-.4.8c-.4.3-.5.3-.1-.2zm60.2-2.9a.7.7 0 0 1-.2-.5h.3l.2.5h-.3zm-64.8-1.8c-.1-.2 0-.4.2-.4s.3.2.3.4 0 .4-.2.4l-.3-.4zm-.8-1.4c-.3-.2-.2-1.4 0-1.4s.2.3.1.6c0 .3 0 .6.3.8.2 0 .2.2 0 .2a.7.7 0 0 1-.4-.2zm-158.8-4c-.4-.4-.4-.5.2-.4.6 0 1 .5.5.7-.1.1-.4 0-.7-.3zm262.2.2c-.2-.4 0-.6.7-.6.5 0 .5 0 0 .4-.5.6-.5.6-.7.2zM58.6 75.1c.1-.1 0-.2-.2-.2-.6 0-1 0-1-.2 0-.5 1.5-.2 1.6.3 0 .2 0 .4-.3.4-.1 0-.2-.1 0-.3zm256.8-.1c.1-.5 1.6-.8 1.6-.3 0 .2-.4.3-1 .2-.2 0-.3 0-.2.2 0 .2 0 .3-.2.3s-.2-.2-.2-.4zM210 73.3c0-.2 0-.3.2-.3.1 0 .2.1.2.3v.3l-.4-.3zm-157-1 .5-.6v.3c0 .3-.1.5-.4.6-.4.2-.4.1 0-.3zm156.7.2c0-.1-.2-.2-.5-.2-.2 0-.5 0-.5-.3 0-.2 0-.2 0 0 .2.2.4 0 .8-.2l.3-.2c-.1.2 0 .6.1.8.2.2.3.4 0 .4-.1 0-.2-.1-.2-.3zm111.6 0c-.2-.1-.3-.3-.2-.5 0-.2.2 0 .4.2.4.6.4.7-.2.3zM208 71l.5-.7.4-.2.1.4c.6 0 .3.4-.4.6h-.6zm-1.1-1c-.4-.4-.4-.4 0 0 .5.2.5.2.6-.3a7.5 7.5 0 0 0 0-1c0-.1.2-.3.5-.4.4-.1.5-.1.3.1a1.2 1.2 0 0 0-.3.8l-.4.9c-.3.4-.3.4-.7 0zm-.3-1.9.3-.4s.2 0 .2.3l-.2.4c-.1 0-.3-.1-.3-.3zm-108-.4.5-.2c.2-.1.3 0 .2 0-.1.3-.6.4-.6.2zm176.4-.1c0-.2 0-.2.3-.1.4.1.5.3.1.3 0 0-.3 0-.4-.2zm1.8-2.1c-.3-.2-.3-.3-.1-.3a.6.6 0 0 1 .5.3c.2.3 0 .3-.4 0zm-180-.9h.3c.4.2.3.2-.1.2-.2 0-.3 0-.3-.2zm180.4 0c0-.1.2-.1.4 0 .3.2.3.2-.2.2-.2 0-.3 0-.2-.2zm-180.8-.7c-.3-.3-.4-1 0-1 0 0 .1 0 0 .2 0 .1 0 .2.2.2.1 0 .2.1.1.3 0 .1 0 .3.2.4.2 0 .2.1 0 .1a1 1 0 0 1-.5-.2zm86.1-1.3c-.3 0-.5-.2-.5-.3 0-.1.3-.2.6-.1.3 0 .5.2.5.4v.2a7.4 7.4 0 0 0-.6-.2zm-2-.6c0-.3 0-.6.2-.6 0-.1.2 0 .1.4 0 .7-.2.8-.3.2zm-4.6-1-.5-.7c0-.2.8 0 1.2.4.5.3.5.3.3-.1-.1-.4-.1-.5.2-.2.3.3.4.4.1.7-.4.5-.8.5-1.3-.1zm.3-.4c-.2-.2-.2-.2-.1.2.1.2.2.4.3.3.1 0 0-.3-.2-.5zm1.6.6c0-.3.3-.3.8 0 .3.2.3.3-.2.2l-.6-.2zM54.1 59.9c0-.2 0-.3.2-.2.1 0 .1.2 0 .4-.2.3-.2.3-.2-.2zm266 .2c-.2-.2-.1-.3 0-.4.1 0 .2 0 .2.2 0 .5 0 .5-.3.2zm-29.2-2.5h.5c.6.2.5.3 0 .3-.4 0-.5-.2-.5-.3zm-235.8-1c0-.5.3-.5.4.2 0 .2 0 .4-.2.4l-.2-.6zm263.8.2c.1-.7.3-.7.4-.2 0 .3 0 .6-.2.6l-.2-.4zm-261.2-5 .2-.3c.2-.1.2 0 .1.2-.1.5-.3.6-.3.2zm258.6-.1c-.1-.4 0-.4.2-.2s.2.4.2.5c-.1 0-.3 0-.4-.3zM167 38v-.5c.1-.1.2 0 .2.4 0 .6 0 .6-.2 0zm44.3-.1c0-.3.1-.5.2-.4.2 0 .2.3 0 .5-.1.5-.2.5-.2-.1zm-47.8-.8c0-.2 0-.3.2-.4.3-.1.4 0 .3.2-.2.5-.3.5-.5.2zm51-.2c0-.2 0-.3.3-.2.2 0 .3.2.3.4-.2.3-.3.3-.5-.2zm-55.8-1.2c0-.1 0-.3-.3-.3-.4-.1-.3-.2.1-.2s.6.1.6.4c0 .2-.1.4-.3.4-.1 0-.2-.1-.1-.3zm60.7-.1c0-.3.3-.4.6-.4.5 0 .5 0 .2.2-.3 0-.4.2-.4.3v.3c-.2 0-.4-.2-.4-.4zm-62.5-1v-.3c.2-.1.4 0 .4.2 0 .5-.2.5-.4.2zm64.4 0c0-.3.1-.4.3-.3.1 0 .2.2 0 .4-.1.3-.3.3-.3-.2zm-65-1c-.3-.1-.4-.3-.3-.4 0 0 .3 0 .5.3.3.4.3.5-.3.1zm65.5.2.4-.5c.2-.2.4-.2.4 0l-.4.4c-.2 0-.4.1-.4 0zM3.3 30.7l.3-.3.1.3c0 .1-.1.3-.3.3-.1 0-.2-.2 0-.3zm367.4 0c0-.2.1-.2.2-.1.2 0 .3.2.3.2 0 .1-.1.2-.3.2a.3.3 0 0 1-.2-.3zm-356.5-.3.2-.2c.1 0 .2 0 .2.2s-.2.3-.3.3c-.2 0-.2-.1-.1-.3zm345.6 0c0-.1.2-.2.3-.1l.3.3h-.3a.3.3 0 0 1-.3-.2zm-329.6-2c0-.2 0-.4.2-.5.2 0 .2 0 .1.3-.1.4-.3.5-.3.1zm3.8 0s0-.4-.2-.6c-.3-.4-.3-.4.1 0 .4.3.5.8 0 .8v-.2zm306.1 0c0-.2.1-.5.4-.7.4-.3.4-.3 0 .1 0 .2-.2.5 0 .6v.2l-.4-.3zm3.7-.3c-.1-.4 0-.4.2-.1.2.2.3.4.2.5-.1 0-.3-.1-.4-.4zm-108.3-1.6.2-.4c.2-.1.3 0 .3.2s-.1.4-.3.4c-.1 0-.2 0-.2-.2zm2-.2c-.2-.6-.2-.6 0-.6.4 0 .7.7.4.9-.1 0-.3 0-.4-.3zm-1-.2c0-.3.2-.4.3-.3.4.2.3.3-.1.5-.3 0-.4 0-.3-.2zm3-.3c0-.2 0-.4.2-.4s.3.1.3.2l-.3.5c-.1 0-.3 0-.3-.3zm-106-.4c-.1-.2 0-.4.1-.6.3-.3.3-.2.2 0-.2.2-.1.5.1.6.3.2.3.3 0 .3a.6.6 0 0 1-.4-.3zm104.6-.2h.5c0 .1 0 .2-.4.2-.3 0-.3-.1-.1-.2zm1.3-.2h.5l-.3.1c-.3 0-.4 0-.2-.1zm-59.6-5.2c-.1-.1 0-.2.1-.2s.3.1.3.2l-.1.3-.3-.3zM29.4 18c0-.2 0-.2.2-.1.2 0 .3.2.3.2 0 .1-.1.2-.3.2l-.2-.3zm315.2 0 .3-.3.1.3c0 .1-.1.3-.3.3-.1 0-.2-.2 0-.3zm-146.4-.5c-.2-.4-.2-.6 0-.7.1 0 .2 0 .2.2s.2.5.4.5.2.2 0 .3c-.1 0-.4 0-.6-.3zm-31 .1.4-.4c.2-.2.4-.2.4 0l-.4.4h-.4zm43.5 0c-.5-.2-.4-.6 0-.6.2 0 .3.2.3.4v.3a3.8 3.8 0 0 0-.3-.1zm-44.5-1.3c0-.2.1-.3.3-.3.1.1.1.3 0 .4-.2.4-.3.3-.3-.1zm32.4-.2c0-.1.3-.2.4 0 .3.1.3.2-.2.2-.2 0-.3 0-.2-.2zm-97-.8.7-.2-.2.2-.6.3c-.2 0-.1-.1.1-.3zm170.7 0c-.3-.1-.3-.2-.2-.2l.7.2c.2.2.3.3.1.3l-.6-.3zm-62.4-.4c-.3-.3-.3-.3 0-.3.2 0 .5.1.5.3.2.6 0 .5-.5 0zm-1.4-.2.5-.4c.4-.4.4-.4 0 0-.3.5-.5.6-.5.4zm-165.9-.6c0-.3.1-.3.2-.1v.5c-.1 0-.2 0-.2-.4zm289 0c0-.3 0-.3.1-.1v.5c-.1 0-.2 0-.2-.4zM85 12.4c-.1-.1 0-.2.3-.2.7 0 .7.1.2.3h-.5zm203.6 0c-.4-.2-.3-.2.2-.2.3 0 .5 0 .4.2-.2.4-.1.4-.6 0zm-92.2-.5c.2-.2.4-.3.5-.2 0 0 0 .2-.3.3-.4.2-.4.1-.2-.1zm-1-.3.3-.2c.2 0 .2.1.1.2 0 .2-.2.3-.3.3v-.3zm-13.8-.4h.5c.1.1 0 .2-.3.2s-.4-.1-.2-.2zm2.7-1.7c0-.1.1-.2.3-.2.2 0 .2 0 .1.2 0 .2-.2.3-.3.3v-.3zm4.5-7.1a.3.3 0 0 1 .5 0 .3.3 0 0 1-.5 0zm-5.5-1c0-.2 0-.3.2-.2.2 0 .3.2.3.3h-.3a.3.3 0 0 1-.2-.2zm11.2 0c0-.2.2-.3.3-.3l.1.2c0 .2-.1.3-.3.3-.1 0-.2-.1-.1-.3zM183 .2c0-.2.2-.3.2-.3.1 0 .2.1.2.3l-.3.2c-.2 0-.2 0-.1-.2zm12 0c0-.2.1-.3.3-.2l.2.3-.2.1a.3.3 0 0 1-.3-.3z"/></g></svg>