<svg width="29.934mm" height="3.833mm" version="1.1" viewBox="0 0 29.934 3.833" xmlns="http://www.w3.org/2000/svg"><g transform="translate(-61.781 -184.02)"><path d="m70.218 187.82c-0.1139-0.0661-1.4311-0.50213-1.9874-0.65804-1.6255-0.45542-3.9722-0.90451-5.826-1.115-0.31002-0.0357-0.5899-0.0738-0.62196-0.0845-0.03209-0.0115 0.3178-0.068 0.77747-0.12723 2.1963-0.28092 4.242-0.68488 5.915-1.168 0.54055-0.15642 1.4233-0.4538 1.7177-0.57875l0.1613-0.0679 0.50535 0.17109c1.3909 0.47105 3.1466 0.91097 4.6288 1.1599l0.79835 0.13434h15.428v0.93285h-15.456l-0.80459 0.13517c-1.5448 0.25979-3.6186 0.78979-4.8002 1.2271-0.2217 0.0821-0.34391 0.0931-0.43585 0.0401z" fill="#fff" stroke-width=".038872"/></g></svg>
