<svg width="1415" height="983" viewBox="0 0 374.4 260.1" xmlns="http://www.w3.org/2000/svg"><path d="M190.6 202.4c0-.5-.7-.7-1.4-.4-.7.3-1.1.3-1 0h.5c.2.1.2 0 .1-.1 0-.2-.6-.2-1-.1-.6 0-1.5 0-2-.3-1-.4-1.5-.4-2.3.3-.3.2-.4.3-.3.1 0-.1 0-.3-.3-.4-.2-.1-.3-.3-.2-.5 0-.1 0-.2-.3 0-.2 0-.4.2-.4.3 0 .2.1.2.3.1s.3 0 .3.1c0 .2-.2.4-.3.5-.2 0-.3 0-.3-.2 0-.1 0-.2-.2-.1h-.3c.2-.8 0-1-.5-.4-.5.5-.5.5-.8 0-.3-.3-.3-.3-.2 0 .2.6 0 .7-.6.1-.3-.4-.4-.4-.6 0-.2.5-.2.5-.2 0 0-.2-.1-.3-.3-.2-.1 0-.2.2-.1.4 0 .1 0 .2-.3.2s-.4 0-.4-.2-.1-.3-.4-.3-.5-.2-.6-.5-.3-.3-.3-.1l.4.7c.2.2.3.5.2.5-.1.1-.4 0-.6-.3-.2-.3-.4-.5-.6-.4 0 0-.2 0-.2-.3s0-.4-.2-.3c-.3.4-1.4 1-1.4.8 0-.1-.3-.3-.8-.3s-1-.3-1.2-.5c-.3-.4-.3-.4-.3 0 0 .1-.1.3-.3.3s-.4-.1-.4-.3c0-.4-.8-1.2-1-1-.3.3-.2.7 0 .5l.5.1c.2.4-1.1.4-1.5 0-.2-.2-.8-.3-1.4-.3-.5 0-1 0-1-.2 0-.1-.2-.3-.4-.3-.2-.1-.3 0-.2.2 0 .1 0 .3-.3.3-.2 0-.3-.2-.2-.4 0-.2 0-.3-.2-.3a.3.3 0 0 0-.3.3c0 .1 0 .2-.2 0-.2 0-.2-.2-.1-.4 0-.2 0-.1-.3 0l-.3.2c.3-.5-1.4-1.2-3-1.2-.3 0-.5-.2-.4-.4 0-.2 0-.3-.3-.3-.2 0-.4 0-.4-.2s-.5-.6-.8-.7l-.4.6c-.3.5-.3.5-.5.1v-.3c.2 0 .3 0 .3-.2 0-.4 0-.4-1.5.4-.4.2-.5.2-.5-.2 0-.2-.1-.4-.3-.4-.1 0-.2.2-.1.5 0 .3 0 .2-.2-.1-.2-.4-.5-.6-.5-.5-.1.1-.3 0-.4-.4-.1-.5-.3-.5-1-.5-.6.1-.7 0-1-.5 0-.4-.2-.6-.2-.4 0 .2-.2.4-.4.4a.6.6 0 0 1-.5-.4c-.1-.2-.2-.2-.2 0 0 .5-.5.4-1.1 0-.4-.4-.6-.5-.8-.2s-.5 0-1-.6c-.5-.4-.8-.7-.7-.5v.3c-.2 0-.4-.2-.5-.4 0-.2-.2-.3-.4-.2-.1 0-.3 0-.3-.2 0-.3 0-.3-.2 0s-.3.3-.3 0c0-.1 0-.2-.2-.1-.2 0-.3 0-.4-.3-.3-.6-.2-.6.4-.5.2 0 .4 0 .3-.1 0-.1-.6-.2-1.3-.2-1.1.1-1.2.1-.9-.4.3-.4.2-.5 0-.3-.6.4-.9.3-1.8-.7-.4-.5-1-.8-1.1-.7-.5.3-1.6 0-1.6-.6 0-.4 0-.4-.3 0-.2.3-.2.3-.2-.2s-.1-.6-.5-.4c-.3 0-.4 0-.2-.2.2-.3.1-.3-.2-.2-.5.2-.9-.2-.4-.5h-.3c-.6 0-.7 0-.6-.6v-.7l-.4.7-.2.2c0-.3 0-.6-.2-.7-.2 0-.2 0-.1.1l-.1.5c-.2 0-.3-.1-.3-.5s-.2-.7-.4-.8c-.4-.2-.4-.1 0 .3.1.2 0 .2-.6-.2-.4-.4-.8-.8-.8-1 0-.5-.5-.4-.7.1-.1.4-.2.4-.4 0-.2-.2-.1-.4.2-.6.3-.3.3-.3-.2-.4-.3-.1-.4 0-.4 0 .1.2 0 .2-.2.1-.3 0-.4-.3-.4-.5s-.2-.3-.4-.2c-.3.1-.4 0-.4-.1 0-.2-.3-.3-.8-.2-.7.1-.7.1-.2-.3.5-.3.5-.3.1-.3-.3 0-.4-.2-.3-.5.2-.4.1-.4-.3 0-.3.5-.4.5-.3.2.1-.4 0-.4-.4-.3-.3 0-.5 0-.5-.2 0-.1 0-.5-.2-.7 0-.3 0-.4.2-.3h.3c0-.5-.3-.4-1 .1-.4.4-.4.4-.1 0 .3-.5.2-1-.3-1-.4 0-1.7-1.5-1.6-1.9.1-.2 0-.2-.3.1-.5.5-1 .4-1-.3 0-.3 0-.3-.2 0-.1.2-.2.2-.4-.3 0-.3-.2-.5-.4-.4-.2.1-.3.1-.2 0 0-.7-.1-1.2-.4-1-.2.1-.2 0 0-.2.3-.4.3-.5-.2-.4-.3.1-.5 0-.4 0 .2-.4-.6-1.2-1-1-.3.2-1-.4-.8-.8 0-.2 0-.4-.2-.4-.3 0-.3.6 0 1 .3.2.2.3-.2.2-.3 0-.5-.2-.5-.5s-.2-.7-.5-.8c-.4-.2-.6-.4-.5-.8.1-.3 0-.4-.2-.4a.4.4 0 0 1-.5-.4c0-.4-.3-.5-.8-.4-.2 0-.2-.1 0-.3 0-.1.2-.2.3-.1l.3-.1-.4-.4c-.2 0-.4-.4-.3-.7 0-.3 0-.5-.1-.4-.2 0-.3.4-.3.6 0 .4 0 .4-.2 0a1 1 0 0 1-.1-.7c0-.3 0-.3-.2-.2-.3.2-.3.1-.2-.3.1-.5 0-.5-.7-.3s-.8.2-.4-.2c.5-.3.5-.3 0-.6l-.6-.6c0-.1-.2-.6-.5-.8-.3-.3-.5-.7-.5-1 0-.3-.1-.3-.4 0-.4.3-.4.3-.2-.1 0-.4 0-.5-.2-.3-.4.2-.4.1 0-.3.2-.3.3-.4.1-.3-.3.3-1-.3-.7-.7 0-.3 0-.4-.2-.4s-.2 0-.1.2c0 .2 0 .3-.3.3-.2 0-.3-.2-.3-.3.1-.2 0-.6-.4-.9-.4-.4-.4-.5-.2-.7.3-.2.3-.2 0-.2-.2 0-.2-.1-.1-.3 0-.2 0-.3-.2-.1-.5.3-1.4-.7-1-1.1.2-.3.1-.3-.3-.2-.4 0-.5 0-.4-.2.1-.2 0-.5-.3-.7s-.5-.7-.5-1c0-.6-.1-.8-.3-.7-.2 0-.4 0-.4-.3 0-.2-.2-.6-.5-.8-.3-.3-.5-.6-.4-.7.1-.2 0-.3-.1-.3-.2 0-.3-.2-.2-.5 0-.4 0-.5-.5-.5-.4 0-.4 0-.2-.3.3-.1.3-.2.1-.4-.2 0-.3-.4-.3-.7 0-.4 0-.5-.2-.2 0 .2-.2.1-.5-.4l-.2-.4c0 .2 0 .4-.3.4-.1 0-.2-.3-.2-.8.1-.7 0-1-.4-1-.3-.1-.6-.4-.6-.7s-.1-.7-.3-.9c-.5-.5-.6-1.3-.2-1 .3 0 .3 0 0-.4-.2-.2-.4-.5-.3-.6 0-.3-.3-1.3-.5-1.3-.4 0-.6 0-.3-.3.6-.3.2-1.6-.4-1.4-.3 0-.4 0-.3-.1v-.5c-.2 0-.3-.3-.2-.4 0 0-.1-.4-.4-.7-.3-.3-.5-1-.6-1.4 0-.4 0-.7-.2-.7 0 0-.4 0-.6-.3-.5-.3-.5-.4-.1-.2.4 0 .4 0 .2-.4-.2-.3-.4-.5-.6-.4-.2.2-.2 0 0-.2.3-.3.3-.5.1-.5-.2 0-.3 0-.3-.2s0-.3.2-.2a.2.2 0 0 0 .3-.2c.1-.5 0-.7-.7-1-.5-.2-.6-.3-.4-.5.3-.3.1-1.3-.2-1.3-.1 0-.2-.2-.1-.5 0-.2-.2-.6-.4-.7-.4-.3-.3-.3.2-.2h.4c-.2-.2-.3-.4-.2-.5.1-.2 0-.2-.2 0-.2 0-.3 0-.1-.3 0-.4 0-.5-.2-.4-.2 0-.5 0-.7-.3-.3-.3-.3-.3.2-.2.5.1.6 0 .3-.2l-.6-.3.2-.2c.4-.4.4-.5.2-.6-.2 0-.3-.3-.3-.4 0-.1 0-.2.2-.1.1 0 .2-.1.2-.4s-.1-.5-.3-.4l-.2-.4c0-.3 0-.5-.2-.4h-.2v-.5c0-.2 0-.2.2 0 .5.5.8.5.8.1 0-.2 0-.2-.2-.2-.1.1-.4 0-.7-.2-.3-.2-.3-.4-.1-.5.2-.1.2-.3 0-.5s-.3-.6-.2-.7c.2-.2.1-.3-.1-.1-.2.1-.3 0-.1-.4.1-.5 0-.6-.2-.4-.2.1-.3 0-.1-.1.4-.7.4-1.6 0-1.6-.3 0-.7-.7-.8-1.5a1.8 1.8 0 0 0-.2-.6c-.1-.1 0-.4 0-.4.2-.1.2-.4.2-.6-.1-.2-.3-.3-.5-.2-.2.1-.2 0 0-.2.3-.4.3-.5 0-.6-.2-.1-.2-.1 0-.2.2 0 .4-.1.4-.3s-.2-.2-.3 0c-.1 0-.2 0-.1-.3 0-.3 0-.6-.2-.8a1 1 0 0 1-.1-.9c0-.2 0-.5-.3-.7-.4-.4-.4-.4-.1-.7.2-.1.5-.2.6 0 .2 0 .1-.5-.2-1.2-.2-.3-.3-.6-.2-.8 0-.2-.1-.4-.4-.4-.4 0-.4 0 0-.2l.4-.3c-.2 0-.1-.2 0-.4.3-.3.3-.5 0-.8v-.5c.3-.1.3-.3 0-.6-.3-.4 0-1 .4-.7.2.1.2 0 0-.1 0-.3-.2-.3-.5 0-.3.2-.3.2-.3-.4.1-.3.3-.6.4-.5.1 0 .2-.8.2-1.8 0-1.3-.1-1.7-.4-1.6-.3 0-.3 0 0-.4.4-.5.7-.5.4 0-.1.1 0 .1.1 0 .4-.2.4-.7-.1-1.2-.4-.5-.4-.5 0-.5.3 0 .4-.1.3-.4l-.2-.7c0-.2 0-.2-.2-.1-.1 0-.2 0-.2-.3s.2-.5.4-.6c.1 0 .2-.5.1-1 0-.5 0-.9.3-1 .5-.2.4-1.4-.1-1.8-.3-.1-.3-.2 0-.2.1 0 .2-.1.1-.3-.1-.2.2-.3.8-.3.4.1.1-.4-.4-.5-.3-.1-.5-.3-.5-.5 0-.1.2-.2.4 0 .3 0 .4 0 .3-.2 0-.1 0-.3.2-.4l-.3-.2c-.3 0-.6-.1-.6-.3 0-.1.1-.2.2 0 .2 0 .4 0 .5-.2 0-.2.3-.3.5-.2.2.1.3 0 .2-.2 0-.2-.2-.3-.4-.3-.2.2-.3-.2 0-.5.2-.2.3-1.8.1-2 0-.2-.2-.1-.3 0-.2.3-.3.3-.3 0l.4-.4a.7.7 0 0 0 .4-.6c0-.4 0-.4-.2 0-.2.2-.3.2-.3.1l.5-.8c.2-.3.3-.4 0-.3-.2.2-.3.1-.2-.2l.2-.6h.3c.1.1.3 0 .3-.1 0-.2 0-.2.2-.2 0 .1.2 0 .2-.2 0-.5-.5-.5-.9-.1-.2.2-.3.2-.5 0-.1-.2 0-.3.1-.2h.5c0-.2 0-.4-.2-.4s-.1-.2.2-.5l.5-.7c-.1-.4.2-.9.4-.7.2 0 0 .3-.2.5-.4.4-.4.4.1.1.7-.3.7-.3.3-.8a6.2 6.2 0 0 1-.7-1c-.3-.5-.2-.6.3-1 .3-.2.4-.4.3-.4l.1-.2c.4-.2.4-.3 0-.3-.3 0-.4-.1-.3-.3 0-.1.2-.2.4 0 .1 0 .2-.2.2-.5 0-.4.1-.5.3-.3.2 0 .2 0 0-.3s-.3-.5-.1-.3c.2 0 .3 0 .3-.4 0-.3-.2-.5-.3-.5-.2 0-.1-.2 0-.3.4-.2.4-.2 0-.3-.3 0-.3 0 0-.2.3-.1.6-.2.7 0 .2 0 .1-.1-.1-.4-.2-.3-.3-.4 0-.3h.3c0-.2-.2-.4-.4-.5-.2 0-.1-.1.2-.1l.6-.3c.1-.2 0-.3-.1-.2-.2.1-.3 0-.3-.3 0-.4.2-.5.5-.3s.4.1.4-.1 0-.3-.2-.3c-.2.1-.2 0 0-.4 0-.4 0-.5-.2-.4l.2-.6c.3-.5.6-.8.7-.8.2 0 .1 0 0 .3-.2.1-.4.5-.4.7 0 .2.3 0 .6-.6.6-1.2.6-1.4 0-1-.1.2-.4.3-.5.2 0 0 .1-.3.4-.5.3-.1.5-.5.4-.7-.1-.4.8-1.7 1-1.5v-.7c0-.7 0-.8.2-.5.2.2.3.3.3.1l-.3-.6c-.3-.3-.3-.3 0-.2.2.2.3 0 .3-.3s.2-.7.4-.8c.4-.1.4-.2 0-.5s-.4-.4 0-.2l.5-.1c.1-.2 0-.3-.1-.3-.2 0-.2-.1-.1-.2s.3-.2.6-.1c.4 0 .4 0 0-.3-.5-.3-.5-.4 0-.7.2-.2.3-.3.2-.1a.4.4 0 0 0 .1.5c.3.1.3-.1.2-1v-1c.3.4.9 0 .7-.4V61c.2-.2.3-.5.3-.7 0-.1.2-.2.5-.2.5 0 .6-.1.5-.5 0-.2 0-.6.3-.8.3-.3.3-.4 0-.7-.5-.3-.5-.3 0-.2.4.2 1.3-.7 1-1.1 0-.2 0-.3.2-.3s.2-.2.1-.3c0-.2 0-.3.3-.2.2 0 .3 0 .3-.2l-.2-.2v-.3c0-.2.2-.4.3-.4s.2-.1.1-.3c-.1-.2 0-.3 0-.2.4.3 1-.5.8-.8l.1-.3c.2 0 .3-.2.3-.4s.1-.4.3-.4c.2 0 .2-.1.1-.2-.2-.3.6-.6 1-.4.2.1.2 0 0-.3-.4-.4-.4-.4 0-.4.2 0 .5.3.7.5.3.4.3.3.1-.1 0-.3-.3-.7-.4-.9-.3-.3.2-.7.6-.4.1 0 .3-.2.3-.5 0-.4 0-.8.2-.8s.2 0 .1.4c-.1.5 0 .5.2.1.2-.2.2-.6.2-.8-.1-.2 0-.5.2-.7.3-.3.4-.2.2.1-.1.4 0 .5.1.3.2 0 .4-.4.4-.8s.1-.6.5-.7c.5-.2.5-.2.3-.6-.3-.4-.3-.4 0-.3.2.1.5 0 .7-.4l.3-.6-.1.6c-.2.4-.1.5.2.4.2 0 .4-.3.3-.4 0 0 0-.3.3-.3.2-.1.3-.3.3-.4v-.8c.3-.5.5-.6.8-.5.3.2.3.1.1-.2-.3-.4 0-1 .7-1 .3 0 .3 0 0-.3-.2-.4-.2-.4.4-.4.5 0 .7-.1.5-.5-.1-.3 0-.4.2-.2.2.1.3.1.2 0-.2-.3.3-1 .6-.8.2.1.3 0 .3-.2-.2-.8 0-1 .4-.9.3.1.5 0 .6-.4 0-.3.2-.5.5-.4.3.1.3 0 .2-.2-.1-.4 0-.4.5-.3h.2c-.2-.1-.2-.3 0-.6v-.7c-.1-.1 0-.1.2 0 .5.3 1.3.4 1.2 0l.3-.2c.3 0 .4 0 .2-.1-.2 0-.4-.3-.4-.5s.2-.3.3-.3h.3s.2-.4.6-.4c.3 0 .4 0 .2-.1-.6-.3-.3-.6.4-.5.3 0 .6 0 .5-.2h-.5c-.1 0-.2 0 0-.2l.3-.2c.1.1.5 0 .7-.2.3-.3.4-.4.2-.3-.2.1-.3 0-.2-.2.1-.2.4-.3.6-.3.3.1.7 0 .9-.3.3-.4.3-.4-.2-.1-.6.3-.6.2-.2-.5.4-.9.7-1.1.4-.4-.1.4 0 .4.5 0 .3-.3.8-.5 1.2-.5h.2c-.2-.2-.2-.4-.2-.6.1-.3.3-.3.6 0 .3.2.3.1.2-.2-.2-.5 0-.6.7-.2.4.2.4.2.3-.1 0-.2-.2-.4-.4-.3 0 0-.2 0-.3-.4-.1-.4 0-.4.4-.2.3.3.5.2.8 0 .3-.2.4-.5.3-.6 0-.1 0-.2.3 0 .3 0 .3 0 .3-.5-.1-.5-.1-.5.5 0 .5.2.7.2.6 0 0-.2.1-.4.4-.4.3 0 .6-.2.8-.4.2-.3.2-.3 0-.1-.4.1-.4.1-.1-.2.1-.2.4-.4.6-.4.6 0 .6-.1.2-.4-.3-.2-.3-.3 0-.4l.7-.6.4-.3.3.6c.3.6.7.4.6-.3 0-.3 0-.5.3-.5.2 0 .3-.2.2-.3 0-.1 0-.2.3-.1l.4-.1c0-.1.2-.3.5-.3.4 0 .5-.1.4-.3-.1-.2 0-.3.1-.1.2 0 .5 0 .8-.4.3-.3.7-.6 1-.6s.4 0 .4-.2.2-.2.6 0c.5 0 .5 0 .2-.4s-.3-.4 0-.3c.3.1.5.4.5.6 0 .4 0 .4.2 0 .2-.2.2-.4-.1-.6-.3-.2-.4-.4-.2-.4l.7-.1h.4c0 .2 0 .3.2.3l.2-.3.3.1c.2.2.4.3.4.1-.1-.4.3-1.1.6-1 .1.1.1.3-.1.4-.3.2-.3.3 0 .3.2 0 .4-.4.6-.7.2-.5.3-.7.6-.5.2.2.4.1.8-.3.3-.5.3-.6 0-.5-.2 0-.4.3-.4.4 0 .2 0 .2-.2.1 0 0 .1-.4.4-.6.5-.5.6-.5.7-.2 0 .2.3.3.5.2a.4.4 0 0 0 .3-.5c0-.2-.3-.3-.4-.2-.2.1-.2 0-.1-.1.1-.3.3-.2.7 0 .4.4.5.4.7 0 .2-.1.5-.2.7-.1.1 0 .2 0 0-.3 0-.2 0-.5.2-.7.4-.3.8-.4.6 0l1-.2c.5-.2 1-.5.8-.6 0-.2.1-.3.4-.3s.6.2.6.3c0 .2.1.2.3 0 .4-.6 1.5-.8 1.7-.4v-.3c0-.4 0-.6.1-.5.1 0 .3 0 .3-.2s.3-.1.6.2c.4.4.4.4.4 0s.1-.4.4-.1c.3.2.4.2.4 0 0-.3.1-.3.2-.2.4.5 1.2.5 1 0-.1-.3 0-.3.3-.2.2 0 .6 0 .8-.2.4-.3.4-.3.2 0-.2.4-.1.4.3 0 .2-.1.4-.4.4-.6 0-.6.5-.8 1.6-.7.6 0 1 0 1.2-.2 0-.2.3-.2.4-.2.1.1.5 0 .7-.2.3-.2.4-.2.2 0l.1.4c.2 0 .3-.2.3-.3s.1-.2.2-.2a.3.3 0 0 0 .4 0c.1-.2.4-.2.6-.2.2.1.4 0 .4-.2s.1-.1.4.2l.3.3c0-.3.1-.4.6-.4.2 0 .2 0 .2.2-.1.1 0 .2.2.2.4 0 .4 0 0-.6-.3-.5-.3-.5 0-.5.2 0 .4 0 .4.2l.4.2c.2 0 .4-.2.4-.4s.1-.4.3-.4.2.2.1.4c0 .2 0 .4.3.4.2 0 .3-.1.2-.3 0-.1 0-.1.4 0 .4.3.6.3 1.2 0 .5-.4.7-.4.7-.2 0 .3 0 .3.2 0l.2-.7c0-.1 0-.2 0 0h.4c.2-.1.2 0 .1.1l.1.3c.1 0 .3 0 .3-.2 0-.1.3-.2.7-.2.6 0 .7-.1.7-.5-.1-.5 0-.5.3 0 .5.4.6.8.1.5v.3c.1.4.2.3.4-.2.3-.4.4-.5.5-.2.1.3.2.3.2 0 0-.4.1-.5.4-.4.2.1.3.3.2.4 0 .2 0 .2.2.2.2-.1.4-.3.3-.5 0-.1.3-.3.8-.3.7 0 .8 0 .5-.2-.4-.2-.4-.3 0-.3l.9.3c.5.2.5.2 0 .5-.3.1-.4.3-.2.3l.8-.4c.4-.3.6-.3.6-.1 0 .2.2.2.7.1.4-.1.6 0 .6.1 0 .2.3 0 .6-.3.4-.4.5-.5.4-.2 0 .3 0 .5.2.6h.4c-.1-.6 0-.8.6-.7.4 0 .6.1.5.5 0 .2 0 .4.2.3.2-.1.3-.5.3-.7 0-.3.1-.5.3-.5.1 0 .1.1 0 .4 0 .3 0 .4.5 0 .5-.2.5-.3.2-.5-.2-.1-.2-.2.2-.1.4 0 .6 0 .5.2 0 .1 0 .2.2.2.1 0 .2.2.1.4v.4l.4-.6c.2-.4.2-.5.2-.1 0 .2.2.4.3.4s.2 0 .2-.2a.3.3 0 0 1 0-.4l.5.1c0 .2.3.3.5.3s.4-.1.3-.3c-.1-.1 0-.2 0-.2.2 0 .4.2.4.5.2.6.2.6.9.2.8-.6 1.4-.6 1.4 0 0 .2.2.3.3.2.1 0 .3 0 .3.2.1.2.1.1 0-.2 0-.2.1-.5.3-.6 0 0 .2 0 .2.3 0 .4 0 .4.4.2.2-.2.7-.3 1.1-.2l1 .1.5.5c.3.2.4.3.4 0 0 0 .2-.2.3 0 .1 0 .3 0 .5-.3.1-.3.3-.3.6-.1.3.2.3.2-.1.2-.3 0-.5.1-.5.3 0 .2.3.1.7-.1.7-.5 1-.6.8-.2-.2.3.5.2.8 0 .1-.2.4 0 .7.2.2.2.8.4 1.3.5.8 0 1 0 .8-.4 0-.2 0-.3.2-.2h.3c0-.2.3-.2.7 0 .3.2.6.4.6.6 0 .2.2.4.3.5.2.1.3.1.2 0-.1-.2.2-.4.7-.6h1l.1.2c.6-.1.7 0 .3.5-.2.3-.2.3.3-.1l.9-.8c.1-.2.2-.1.2 0a.6.6 0 0 1-.3.5c-.5.4 0 .6.9.4.6 0 1.1 0 1.5.2.4.2.7.3.9.2l.2.1c0 .5.8.6 1.3.2.5-.5.5-.5.5 0 0 .3-.1.4-.3.2h-.1c.2.3.8.4 2.3.5.6 0 1.2.3 1.3.5.3.3.3.3 0 .1-.2-.1-.3-.1-.2.1.1.2.3.3.4.2l.6.1c.4.2.5.2.3-.1 0-.2 0-.4.2-.4.1 0 .3.2.3.4s.2.5.5.8c.6.3.7.3 1-.1.3-.4.3-.4.3 0 0 .3.2.4.5.3.2-.1.3 0 .2.1 0 .2.1.4.5.4.4.1.6.3.5.5-.2.3 1.8.8 2.5.6.4-.1.4-.1 0 .1-.2.2-.2.3 0 .4.9 0 1 .1 1 .4-.1.2 0 .3.3.3.2 0 .3-.1.2-.3 0-.2 0 0 .4.3.5.5.5.6.7 0 0-.3.3-.4.4-.4.2.1.1.3 0 .6-.3.3-.2.3.4.3.5 0 1 .3 1.3.6.3.3.6.5.8.5.2 0 .4.1.4.3s0 .2.2.2.2-.1.1-.3c0-.3 0-.4.4-.3.3 0 .4.2.4.6 0 .4 0 .5.5.4.3-.1.5 0 .5.1 0 .2.1.3.3.2.2-.2.3.4.3 1 0 .2.1 0 .3-.2.4-.5.5-.4.4.2 0 .2 1 .3 1.7.2.3 0 .2.5-.2.6-.2.1-.2.1 0 .2.3 0 .3.1.2.3-.1.2 0 .1.3-.1.6-.5.6-.5 1.2.2.3.4.8.6 1 .5.2 0 .3 0 .2.1-.1.2 0 .3.3.3l.8.4c.3.4.3.5-.3.4-.1 0-.1 0 0 .2l.7.2c.4 0 .6 0 .6.3 0 .2 0 .3-.3.1-.2-.2-.2 0-.2.2 0 .5.4.5 1 0 .4-.3.8.2.6.6-.1.1 0 .2.5.2.3 0 .7.2.8.3 0 .1-.2.2-.5.1-.5-.1-.5 0-.1.2.3.2.6.2.8.1.2 0 .5 0 .7.3.3.3.3.4-.1.2-.4-.1-.4 0-.3.1 0 .2.5.3.8.3.4 0 .7.2.8.6 0 .5.2.5.5.2.4-.3.4-.2.3 0-.1.3 0 .6.4.8l.7.3-.6-.2c-.5 0-.6 0-.5.3.1.2.3.4.4.3.1 0 .3 0 .4.3 0 .2.2.3.3.3.1-.1.5 0 .8 0 .5.2.6.4.5.7-.1.4 0 .4.2.2.4-.4 1 0 1 .7 0 .3 0 .3.4 0 .3-.2.4-.2.4.4 0 .5 0 .6.4.5.3-.1.4 0 .2.2-.1.2 0 .3 0 .2.4-.2 1 .4.7.7 0 .1 0 .2.2.1.9 0 1.2 0 1 .5-.1.3 0 .4.4.5.3.1.5.3.4.6-.1.2 0 .3.2.2.4-.1.4 0 .3.4v.3c.1-.2.3-.3.6 0h.7c.1-.1.1 0 0 .2-.3.5-.3 1.3 0 1.2 0-.1.2 0 .2.3s0 .3.1.2c.1-.2.3-.4.5-.4.3 0 .4.1.3.3-.1.1 0 .2 0 .2s.4.3.4.6c0 .4 0 .5.1.3.3-.6.6-.3.5.3 0 .4 0 .6.2.6.1-.1.2-.3 0-.5 0-.2 0-.2.2 0 .2 0 .2.2.2.3 0 .1 0 .4.3.7l.2.2c-.1-.2 0-.3.2-.2.2.1.3.4.3.6s0 .7.3.9c.4.3.4.3.2-.2-.3-.6-.3-.6.4-.2 1 .4 1.1.7.4.4-.4-.1-.4 0 0 .5.3.3.5.8.5 1.1 0 .3 0 .5.1.3 0-.2.3-.3.5-.2.3.1.3.3.1.5-.2.3-.2.4.1.2.5-.1.6 0 .2.7-.2.4-.2.5.1.4.2 0 .4-.3.3-.4 0 0 .1-.2.4-.3.4-.1.4 0 .2.3-.2.4-.2.6 0 1 .2.2.5.3.6.2.1 0 .2 0 0 .3 0 .3 0 .3.5.3.5-.1.5-.1.1.5-.3.5-.3.6 0 .6 0 0 .3.1.3.4 0 .3.3.6.4.8.3.2.3.2.1-.1-.1-.3-.1-.3.2 0l.4.5c0 .6.1.7.4.3.2-.3.3-.3.4 0l.6.7.3.4-.6.2c-.6.4-.4.8.3.7.4 0 .6 0 .6.3 0 .2 0 .3.2.2.2 0 .2 0 .1.3 0 .2 0 .4.2.4.1 0 .2.2.2.5 0 .4.2.5.4.4.1-.2.2-.1 0 .1 0 .2.1.5.4.8.3.3.6.7.6 1 0 .1 0 .3.2.3s.2.3.1.6c-.1.6-.1.6.3.3.4-.4.4-.3.3 0-.1.3-.4.5-.6.5-.4 0-.4 0 0 .2.2.2.4.2.7-.2.1-.2.3-.3.3-.2l.1.8v.3c-.2 0-.2.1-.2.3 0 .1 0 .2.2.1l-.1.4c-.2.2-.2.4-.1.4.4-.1 1.2.3 1 .6-.1.1-.3 0-.4-.1-.2-.3-.2-.3-.2 0l.6.6c.6.1.7.3.5.5-.2.3-.1.5.3.8.5.4.6.4.5.1 0-.2-.3-.4-.4-.4-.2 0-.2 0-.1-.2 0 0 .4 0 .7.4.4.4.4.6.1.7a.4.4 0 0 0-.2.5.4.4 0 0 0 .5.3c.2-.1.3-.3.2-.4-.1-.2 0-.2.1-.1.3.1.3.3 0 .6-.4.5-.4.5 0 .8.1.2.3.5.2.6l.1.4c.2 0 .3 0 .3-.2s.1-.2.4 0c.4.4.5 1 .1.7-.1 0-.2 0 0 .2 0 .3.2.4.3.3v.5c0 .4 0 .5.3.4.2-.1.2 0 0 0-.5.4-.5.5 0 1 .5.3.5.4.2.3-.4-.1-.5-.1-.2.3.2.3.4.5.5.4.2 0 .2 0 0 .3 0 .2-.2.3-.3.2-.2 0 0 .2.2.6.3.4.4 1 .3 1.6v.6c.2-.7.6-.6.5.1 0 .4-.2.6-.5.5-.2 0-.1.1.2.6.4.3.6.8.6 1 0 .2.3.6.6 1 .3.2.5.9.6 1.3 0 .5.1 1 .3 1s.4.3.4.6c0 .2-.2.3-.4.2-.3-.1-.3 0 0 .5 0 .3.3.6.4.5.2 0 .3.2.3.6 0 .6.1.9.5 1 .5.2.5.2 0 1s-.5.8 0 1.1c.5.3.6.5.6 1.3 0 .6 0 1.2.3 1.3.4.4.7 1.5.5 1.5-.5 0-.9 0-.9.3 0 .1.2.2.4.1a.5.5 0 0 1 .6.2c0 .2 0 .2-.1.1-.5-.2-.6.7-.2 1.2.4.4.3.5 0 .9-.3.3-.4.4-.1.4.3 0 .3 0 0 .2s-.2.3.1.4c.6.1.7 1 .3 1.5-.3.3-.2.3 0 .2.3-.2.4-.2.3.2v.5c.2.1.2.4.1.6 0 .3 0 .4.1.3.1 0 .3 0 .3.3s-.1.5-.2.4c-.1 0-.3 0-.4.3 0 .3 0 .4.2.2.2-.1.2 0 .1.3-.4 1-.5 1.4-.2 1 .1-.2.3-.1.5.3.2.3.2.4 0 .3l-.2.1c0 .2.2.3.3.3.2 0 .1.2-.2.5-.3.2-.3.3 0 .2a1 1 0 0 1 .7.1c.3.2.3.3-.1.2-.6 0-.9.6-.5 1.3.3.8.3 1.2 0 1 0 0-.1-.3 0-.4 0-.2 0-.3-.1-.2-.2.2-.3 1.1-.1 1.1l.1.9c0 .5 0 .8-.1.7-.3-.1-.7 1.2-.6 1.8 0 .2.3.6.6.9s.3.4.1.3c-.2-.1-.4 0-.5.2 0 .3-.2.4-.4.3-.5-.3-.2 0 .5.8.5.5.6.7.3.9-.2.1-.2.2 0 .3.3 0 .3.2 0 .7-.2.4-.2.6 0 .7.3.2.2.3-.1.6-.3.2-.4.3-.2.3s.3.2.2.3-.3.2-.4.1c-.2 0-.3 0-.3.2s.1.2.3.2c.4 0 .3.8-.1 1-.5 0-.4 1.4.1 1.7.3.2.3.2 0 .2-.2 0-.2.2-.2.3.2.2-.2.4-.7.3-.4 0-.1.5.3.6.3 0 .6.2.6.4s-.2.2-.5.1c-.2-.1-.3 0-.2.1 0 .2 0 .4-.2.4-.2.1 0 .2.3.2s.6.2.6.3-.1.2-.3.1c-.1 0-.3 0-.4.2 0 .1-.3.2-.5.1-.3 0-.3 0-.2.3 0 .2.2.3.3.2.3-.2.4.2.1.5-.2.2-.3 1.8-.1 2.1l.3-.1c.2-.3.2-.3.2 0 0 .2-.1.4-.3.5a.7.7 0 0 0-.4.5c0 .4 0 .4.2 0 .2-.1.3-.2.3 0l-.5.7c-.3.3-.3.4 0 .3.2-.2.3 0 .1.3a3 3 0 0 0-.1.5h-.3l-.3.1c0 .2 0 .3-.2.2-.1 0-.2 0-.2.2 0 .5.5.6.9.1.2-.2.3-.2.5 0 0 .3 0 .3-.1.2l-.5.1c0 .2 0 .3.2.3s.2.2-.1.5a2 2 0 0 0-.4.6c0 .4-.4 1-.6.9-.2-.1 0-.4.2-.6.4-.3.4-.4-.1 0-.7.2-.7.3-.3.8l.7.9c.2.5.2.6-.3 1-.3.2-.5.4-.3.4l-.2.3c-.3.2-.3.2.1.2.3 0 .4.1.3.3 0 .1-.2.2-.4.1-.1 0-.2.1-.2.4 0 .4-.1.5-.4.4-.2-.1-.1 0 .1.3s.3.4 0 .3c-.1-.1-.2 0-.2.3s.2.6.3.6c.2 0 .1 0-.1.2-.3.3-.3.3 0 .3s.3 0 0 .2c-.2.2-.5.2-.6.1-.2 0-.1 0 0 .4.3.3.3.4.1.3h-.3c0 .2.2.3.3.4.2 0 .2.2 0 .2-.3 0-.6.1-.7.3-.1.2 0 .2 0 .1.3 0 .4 0 .3.4 0 .3-.1.4-.4.2-.3-.1-.5 0-.5.2s.2.3.3.2c.1 0 .2 0 0 .4 0 .4 0 .6.1.5.2-.1.1.1-.1.6l-.7.8c-.2 0-.1-.2 0-.3.2-.2.4-.5.4-.8 0-.2-.3 0-.6.6-.6 1.2-.6 1.5-.1 1 .2-.2.5-.3.6-.2 0 .1-.1.3-.4.5-.3.2-.5.5-.4.8 0 .4-.8 1.7-1 1.4-.1 0-.1.3 0 .8 0 .6 0 .7-.2.4-.2-.2-.3-.2-.3 0l.3.5c.3.3.3.4 0 .2-.2-.1-.3 0-.3.4 0 .3-.2.6-.5.7-.4.1-.3.2.1.6.4.3.4.3 0 .2h-.6c0 .2 0 .3.2.3.1 0 .2.1.1.3 0 .1-.3.2-.6 0-.4 0-.4 0 0 .3.5.4.5.4 0 .8-.2.2-.3.2-.2 0s0-.4-.2-.5c-.2-.1-.2.2-.1 1.1v1c-.4-.5-.9-.1-.7.3v.9l-.3.7c0 .2-.3.3-.6.3-.4 0-.5 0-.4.4 0 .2 0 .6-.3.8-.3.3-.3.4 0 .7.5.4.5.4 0 .3-.5-.2-1.4.7-1.1 1 .1.2 0 .4-.1.4-.2 0-.2 0-.1.2 0 .2 0 .3-.3.2-.2 0-.4 0-.3.2 0 .2.1.3.2.2.1 0 .1.1 0 .4 0 .2-.2.4-.4.4s-.1 0 0 .3c0 .1 0 .2-.1 0-.4-.1-1 .6-.7 1 0 .1 0 .2-.2.2s-.2.2-.2.4-.2.4-.3.4-.2.1-.2.3c.2.3-.6.6-1 .3l.1.3c.3.4.3.5 0 .4-.2 0-.5-.3-.7-.5-.3-.3-.3-.3-.1.2 0 .3.2.6.4.8.2.4-.2.7-.6.5-.2-.1-.3.1-.3.5 0 .3 0 .7-.2.8-.2 0-.2-.1-.1-.5 0-.5 0-.5-.2 0-.2.2-.3.6-.2.8 0 .2 0 .5-.2.6-.4.3-.4.3-.2-.1 0-.3 0-.4-.2-.3-.1.1-.3.5-.3.8 0 .4-.2.7-.5.8-.5.1-.6.2-.3.5.3.4.3.4 0 .3-.3 0-.5.1-.7.5l-.3.6.1-.6c.1-.5 0-.6-.2-.5-.3.1-.4.3-.3.4 0 .1 0 .3-.3.4-.2 0-.4.2-.3.3l-.1.9c-.2.4-.4.5-.7.4-.4-.1-.4-.1-.1.2.3.3 0 1-.7 1-.3 0-.3 0 0 .4.2.3.2.4-.4.4-.6 0-.7 0-.5.4 0 .3 0 .4-.2.2h-.2c.2.3-.3 1-.7.8-.1 0-.2 0-.2.2.1.8 0 1-.4 1-.3-.2-.5 0-.6.3 0 .4-.3.5-.5.4-.3-.1-.3 0-.2.3 0 .3 0 .4-.5.2h-.2c.2.1.2.3 0 .7v.6c0 .2 0 .2-.2 0-.5-.3-1.4-.3-1.2 0 0 0 0 .2-.3.2s-.4 0-.2.1.3.4.3.6c0 .2 0 .3-.2.2l-.3.1c0 .1-.3.3-.6.3s-.4.1-.2.2c.5.2.3.5-.4.4-.3 0-.6 0-.5.2.1.2.3.2.5 0 .1 0 .2 0 0 .2 0 .2-.2.3-.4.2 0 0-.4 0-.7.3-.2.2-.3.3-.1.2.2 0 .2 0 .1.2 0 .2-.3.4-.6.3-.2 0-.6 0-.8.3-.4.5-.3.5.2.2.6-.3.6-.3.2.5-.5.8-.7 1-.5.3.2-.4.1-.4-.4 0-.3.4-.9.6-1.2.5-.3 0-.4 0-.2.1s.2.3.1.6c0 .3-.2.3-.5 0-.3-.2-.3-.2-.2.2.2.5 0 .5-.7.1-.4-.2-.5-.2-.3.1 0 .3.2.4.3.3.1 0 .3.1.4.4 0 .4 0 .5-.4.2-.3-.2-.5-.2-.9 0-.2.3-.3.5-.2.6 0 .2 0 .2-.3.1s-.4 0-.3.4c.1.5 0 .5-.5.1-.5-.3-.7-.3-.6 0 0 .1-.2.3-.4.3-.3 0-.7.3-.8.5-.3.2-.2.2 0 0 .4-.1.4-.1.1.3l-.5.4c-.5 0-.7 0-.3.3.3.2.3.3 0 .4l-.8.6-.4.3-.2-.6c-.3-.6-.7-.4-.6.4 0 .3 0 .5-.3.5-.2 0-.3.1-.2.2 0 .2 0 .2-.3.1-.2 0-.4 0-.4.2s-.2.3-.5.3c-.4 0-.5 0-.4.3.1.2 0 .2-.1 0-.2 0-.6.1-.8.4-.3.3-.7.6-1 .6l-.4.2c0 .1-.2.2-.6.1-.5-.1-.5 0-.2.3.3.4.3.4 0 .3a.7.7 0 0 1-.5-.6c0-.4 0-.4-.3 0-.1.2 0 .5.2.7.3.2.4.3.2.3l-.7.1h-.4c0-.1 0-.2-.2-.2s-.2.1-.2.2c0 .2 0 .1-.3 0s-.4-.3-.4-.2c.1.4-.3 1.2-.6 1-.2 0-.1-.2 0-.4.4-.2.4-.2.1-.2-.2 0-.4.3-.6.7-.2.5-.3.6-.6.4-.2-.2-.4 0-.8.4-.4.5-.4.6 0 .4.2 0 .4-.2.4-.4s0-.2.1-.1 0 .4-.3.7c-.5.4-.6.4-.7.1a.4.4 0 0 0-.6-.2.4.4 0 0 0-.2.5c0 .2.3.3.4.2.2 0 .2 0 0 .2 0 .2-.2.2-.6-.1-.4-.4-.5-.4-.8 0-.2.2-.4.3-.5.2-.1 0-.3 0-.4.2l.1.2c.3 0 .3.1 0 .4-.3.5-.9.6-.6.2 0-.2 0-.2-.3-.1-.2 0-.3.2-.3.3.1.1 0 .2-.4 0-.4 0-.5 0-.4.3.1.2 0 .2-.1 0-.3-.5-.4-.4-.9 0-.3.5-.4.5-.3.2.1-.4 0-.4-.4-.2-.2.2-.4.4-.3.6h-.3c-.2 0-.4-.3-.3-.4.1-.2-.1 0-.5.2-.5.3-1 .4-1.7.3h-.5c.7.2.6.7-.1.6-.4-.1-.6-.3-.6-.5.1-.3 0-.2-.5.2-.3.3-.8.6-1 .6s-.6.2-1 .5c-.3.3-.9.6-1.4.6-.4 0-.9.2-1 .4a.6.6 0 0 1-.5.3c-.2 0-.3-.1-.2-.4 0-.3 0-.3-.5 0-.4.1-.6.3-.5.5 0 0-.2.2-.7.2-.5 0-.8.1-1 .5-.1.5-.1.5-1 0-.8-.5-.8-.5-1 0-.3.6-.6.7-1.4.6-.6 0-1.1.1-1.3.3-.3.4-1.5.8-1.4.5 0-.5 0-.9-.3-.9-.2 0-.2.2-.1.4a.5.5 0 0 1-.2.6c-.2.1-.3 0-.2-.1.3-.4-.7-.5-1.1-.1-.4.3-.5.3-1-.1-.2-.3-.3-.3-.3 0 0 .2 0 .2-.3 0-.1-.4-.2-.3-.3 0-.2.6-1 .8-1.5.3-.3-.2-.4-.2-.2 0 .2.4.1.4-.2.3h-.6c0 .2-.3.2-.6.1-.2 0-.3 0-.2.1 0 .2-.1.3-.4.3-.2 0-.4-.1-.3-.2l-.3-.3h-.3c.2.3-1.3.3-1.6 0h.6c-.3-.4-1.3-.5-1.2-.1 0 .2-.2.6-.5.9-.5.5-.6.5-.5.1zm-2.9-1c.1-.2 0-.3-.2-.2-.5.2-.6.4-.2.4l.4-.3zm12.4-.8c.1-.2 0-.3 0-.2-.2 0-.3.3-.3.4 0 .4.1.3.3-.2zm-31-1.1c0-.2-.2-.3-.3-.3-.2 0-.2.1-.1.3l.2.2.2-.2zm17.5-2.7c0-.1 0-.3.3-.3.2 0 .4.1.4.3 0 .1 0 .2.2.2l.2-.4c0-.1.2-.2.4-.1.3 0 .5.2.4.3-.2.4.3.5.8.1.7-.4 1-.5.8 0-.2.2 0 .1.3 0 .4-.5.4-.4.3 0-.2.6-.2.6.2 0l.4-.2.3-.2c.2-.3.2-.3.2 0s.1.3.4 0c.2-.2.4-.2.5 0a.6.6 0 0 0 .5.3c.3 0 .2 0 0-.2-.2 0-.3-.2-.2-.4h.5c.5.3 1 .3.8 0-.1-.2.2-.3.9-.2a.5.5 0 0 0 .5-.2c.2-.5.6-.4.6.1 0 .4 0 .4.4 0 .3-.4.6-.6.8-.5.2 0 .4.2.3.3s.1.2.4.2c.3 0 .4 0 .4-.2-.1-.1 0-.2 0-.2l.8-.2c.3-.1.4 0 .3.1v.5l.3-.1c0-.2.2-.3.5-.3h1c.3-.2.6 0 .7 0 .1.3.3.2.4-.2.2-.7.7-1 1.5-.6.4.1.7.2.6 0-.1-.1 0-.3 0-.4h.3c0 .5 0 1 .3 1 .1 0 .2-.2.1-.5-.2-.4.3-.8.6-.3.1.2 0 .2-.2 0-.2 0-.2 0-.1.2s.3.2.5 0c.4-.4 1.3-.4 1 0 0 .2.1.2.3 0 .2-.3.5-.4.6-.3.2.2.8.2 1 0 0-.2.6-.5 1.1-.7.8-.2 1.1-.2 1.2 0 .2.2.3.2.4-.2.2-.5.2-.5.4 0 .2.4.2.4.2-.2v-.7c.2 0 .3 0 .3.2 0 .1.2.3.5.4.4 0 .5 0 .4-.5v-.2c.2.2.3.3.5.3.1 0 .2-.1 0-.3 0-.2 0-.2.3 0 .3.3.4.3.4.1 0-.2.2-.3.4-.2.2 0 .3-.1.2-.3 0-.2.2-.3.5-.4h.9l.7.1c.4.2.5.1.4-.3v-.4s.8-.1 1.4-.4 1.3-.4 1.4-.4c.1.1.2 0 0-.2 0-.3.1-.4.7-.3.5 0 .9 0 1-.2 0-.2.3-.3.7-.3.4 0 .6-.2.5-.4 0-.3 0-.3.4 0s.4.3.3 0c-.1-.4 0-.5.3-.4.2 0 .6-.2.7-.4.2-.3.3-.3.5 0 .2.2.1.3-.1.1-.2-.1-.3-.1-.2.1.3.5.8 0 .6-.6v-.2c.2.4 1.2.4 2-.1.5-.4.8-1.1.2-.8-.4.3-.3 0 .3-.7.4-.4.6-.5.4-.1 0 .3 0 .4.3.4.6 0 1.5-.5 1.3-.8l.6-.1c.5 0 .7 0 .7-.3s0-.3-.3 0c-.3.2-.3.1-.2-.2.1-.3.5-.4 1.1-.5.6 0 .8 0 .4-.1-.9-.2-.7-.6.1-.4.6 0 .7 0 .4-.2-.5-.3-.3-.4.3-.1.3 0 .4.3.3.4-.1.2 0 .2 0 .1.2-.1.3-.3.3-.4s.1-.3.3-.2a.3.3 0 0 1 .1.3c0 .2.2 0 .4-.2l.4-.8s.1-.2.3-.2.5-.2.6-.4a.7.7 0 0 1 .5-.4c.3 0 .4-.1.3-.2 0-.2 0-.3.3-.3.4 0 .4 0 0-.3-.2-.2-.2-.3.3-.1.5 0 .6 0 .5-.3-.1-.2 0-.3 0-.2.5.2 1.4-.2 1.2-.5 0-.2-.2-.1-.3.1-.2.3-.3.3-.3 0 0-.4.2-.6 1-.6.4 0 1-.1 1.1-.4.2-.2.5-.3.6-.2 0 0 .3 0 .4-.2.1-.2 0-.2-.1-.1h-.3c0-.2 1-1 1.3-1 .5-.1 1.3-.8 1.2-1-.2-.2.8-.4 1.5-.3.1 0 .2 0 0-.2 0-.1-.2-.2-.3-.1-.1 0-.3 0-.4-.3 0-.2 0-.3.3-.3s.7-.1 1-.4c.4-.3.8-.4.9-.4 0 0 .2 0 .2-.3s-.2-.5-.4-.4c-.3 0 0-.2.7-.5s1.1-.7 1.1-1 .2-.4.5-.5c.4-.2.5-.5.4-.6-.1-.2-.1-.3 0-.2.1.1.5-.1.8-.5.4-.3.8-.5 1-.4.2 0 .2 0 .1-.1 0-.2-.4-.3-.6-.2-.4.1-.4.1 0-.1.1-.2.4-.2.5-.1.1 0 .2 0 .2-.3 0-.2.1-.2.3 0 .2.4.3.4.5.1l.2-1c-.1-.7.2-.8.4-.1.1.3.1.3.2-.2 0-.3.2-.7.5-.8s.6-.5.6-.7.1-.4.4-.4c.2 0 .4-.2.4-.5 0-.5 0-.6.4-.3.2.2.3.3.3 0l.2-.2c.6 0 .7 0 .3-.5-.2-.3-.2-.4 0-.2.2 0 .3 0 .3-.2s.1-.2.3 0c.3.4.3.4.2 0-.3-.7.7-2 1.1-1.8l.7.3c.1 0 0-.2-.2-.3-.3-.2-.4-.4-.1-.9.2-.4.5-.7.8-.8.3 0 .4-.2.3-.5-.1-.3 0-.4.1-.4.3 0 .3-.1 0-.4-.2-.3-.2-.4 0-.4.5.1.8 0 .8-.6 0-.4.3-.6 1-.5.2 0 1.8-3 1.6-3.2 0-.1.1-.4.4-.7s.4-.6.3-.7c-.3-.3.3-.2.7.2.3.3.3.2 0-.1-.1-.2-.2-.5 0-.6 0-.1 0-.3-.3-.5s-.3-.2 0-.2c.6 0 .7-.5.2-.6-.2 0-.2 0 0-.1.2 0 .3-.3.2-.4-.1-.2 0-.2.4 0 .7.4 1-.1 1-1.6-.1-.8 0-1.2.1-1.1.4.2 1-.4.8-.9 0-.3 0-.4.1-.3.2.1.5 0 .8-.4.3-.3.4-.4.2-.4-.1.1-.4 0-.6-.4-.3-.5-.3-.5 0-.2.2.2.5.3.8.3.3 0 .3 0 0-.3-.6-.3-.5-.3.4-1.4.2-.1.3-.5.2-.7 0-.3 0-.4.2-.4.7.4 1.3-.8.7-1.2-.2-.2-.2-.2 0-.2s.3-.1.2-.3c0-.1 0-.3.3-.3a.4.4 0 0 0 .4-.4c0-.2-.1-.3-.3-.2-.1 0-.3 0-.4-.2-.1-.2 0-.2.1-.1.2.1.3 0 .3-.1 0-.2.1-.2.3-.1.2 0 .2 0 .1-.1-.2-.4.1-1.5.4-1.3.1.1.3 0 .3-.1 0-.2.1-.2.3-.1.3.1.3.1 0-.2-.4-.4-.4-.9 0-.6.1.1.2 0 0-.4 0-.3 0-.6.4-.8.4-.3.4-.3 0-.2-.3.1-.4 0-.3-.2 0-.2.3-.4.4-.4l.2-.2c0-.5 0-.9.2-.8.4.2.2-.8-.2-1.2-.3-.4-.2-.5.1-.5.3 0 .4.2.3.4-.1.2-.1.2.1 0 .4-.3.1-1.2-.3-1-.2.1 0 0 .3-.4l.6-.8c0-.1 0-.2.2-.2l.3-.5c0-.7 0-.7-.4-.2-.2.3-.2 0 .1-.5.5-.8.5-1.1.3-1.4-.3-.3-.2-.4 0-.4.3 0 .3 0 0-.4-.3-.3-.2-.4.1-.4.2 0 .4-.1.4-.3s.2-.2.3 0c.2 0 .2-.1 0-.4 0-.3 0-.4.2-.3.1.1.2 0 .1-.4 0-.4 0-.7.2-.7s.3-.1.3-.3-.1-.2-.3 0c-.1 0-.2 0-.2-.2 0-.6 0-.7-.4-1-.2-.4-.2-.4.3-.1.5.3 1.1 0 .8-.4-.1-.1-.2 0-.2.1 0 .2-.1.3-.3.2-.2-.2-.2-.3.1-.5.5-.2.6-1 .3-1.3-.3-.3-.3-.8 0-1.1.5-.3.6-1.7.3-2.2-.1-.3 0-.4.4-.5.4-.1.5-.2.2-.4s-.3-.2 0-.2c.2 0 .3-.2.3-.3s-.1-.2-.3-.1c-.2.1-.2 0-.1-.1l-.1-1c-.3-.5-.3-.5 0-.2.5.4.5.3.5 0 0-.2-.1-.5-.3-.6-.2-.1-.1-.3 0-.5.3-.3.3-.4 0-.4-.1 0-.2-.1 0-.3.3-.6.3-1.3 0-1.1-.2 0-.2 0-.1-.3 0-.2 0-.5-.2-.5-.2-.1-.1-.3.2-.6.3-.2.6-.3.8-.2.1 0 .1 0 0-.1 0-.2-.3-.3-.6-.2-.3.1-.3.1-.2-.1.1-.2 0-.3-.1-.3-.2 0-.3-.2-.3-.5s0-.4.3 0c.1.2.2 0 .3-.6 0-.8 0-1-.3-.8-.3 0-.6 0-.7-.2 0-.2 0-.2.2-.1.5.1 1-.4.6-.7-.5-.3-.6-1-.3-1.2.3 0 .3 0 .2.5v.4c.4-.3.6-2.3.2-2.5-.2-.2-.3 0-.1.3.1.4.1.4-.1.2-.3-.3-.3-.4 0-.7.2-.3.2-.5 0-.6-.3-.2-.3-.3 0-.5l.5-.7c0-.3 0-.3-.3 0-.4.2-.4.2-.4-.2 0-.2.2-.5.4-.5s.2-.3 0-.6c-.1-.3-.3-.5-.5-.4-.2.1-.2-.4.1-.8.1-.2.1-.5 0-.8 0-.2 0-.4.2-.4s.2-.2.2-.4c-.1-.2 0-.4.1-.5.2-.2.2-.1 0 .1v.2c.2-.1.3-.5.4-.8v-.2c-.2.1-.3.2-.5.1-.1 0-.1-.3 0-.4.3-.5.3-1 0-.9-.2.2-.3-.2-.2-.8a.5.5 0 0 0-.3-.5c-.4-.3-.3-.7.2-.7.4 0 .4 0-.1-.4-.3-.2-.5-.5-.4-.7 0-.3.2-.4.3-.3s.2-.1.2-.4c0-.3 0-.5-.2-.4l-.2-.1-.2-.7v-.3h.6l-.1-.4c-.2 0-.3-.2-.3-.4a5.6 5.6 0 0 0-.1-1c0-.3 0-.6.2-.7.1-.2 0-.3-.3-.4-.8-.2-1-.7-.6-1.6v-.5l-.4-.1v-.3c.5.1.9 0 .9-.2s-.2-.2-.4-.2c-.4.2-.8-.3-.4-.5.2-.2.3-.1.1.1-.1.3 0 .3.1.2.3-.2.3-.3 0-.5-.3-.4-.3-1.3.1-1.1.2 0 .2 0-.1-.2-.3-.2-.4-.5-.3-.6.3-.3.3-.8 0-1l-.6-1.2c-.3-.7-.3-1 0-1.2.2-.1.1-.2-.2-.4-.5-.2-.5-.2 0-.4.4-.2.4-.2-.2-.1l-.8-.1.3-.3s.3-.2.3-.5c.1-.3 0-.4-.4-.3-.3 0-.4 0-.2-.1l.3-.4c0-.2-.1-.2-.3 0-.2 0-.2 0 0-.3s.3-.5 0-.5c0 0-.2-.1-.2-.3 0-.2 0-.3-.2-.3s-.4-.1-.4-.4a12.2 12.2 0 0 0 0-.9l.1-.8c.2-.3.1-.4-.3-.3-.3 0-.5 0-.4-.1s-.1-.7-.4-1.3c-.3-.7-.5-1.3-.4-1.4s0-.2-.2-.1c-.3.1-.4 0-.4-.7l-.1-.9c-.2 0-.3-.3-.3-.7 0-.4-.2-.6-.4-.6-.4.1-.3 0 0-.3.3-.4.3-.5-.1-.3-.3 0-.4 0-.4-.3s0-.6-.3-.8c-.3-.2-.3-.3 0-.5.2-.1.2 0 0 .2 0 .2 0 .3.2.1.5-.3 0-.7-.6-.5h-.2c.4-.3.4-1.2-.1-2-.4-.5-1.1-.8-.8-.3.3.5 0 .3-.7-.3-.4-.4-.5-.5-.2-.4.3.1.5 0 .5-.2 0-.6-.5-1.5-.8-1.3-.1 0-.2-.2-.1-.6 0-.5-.1-.8-.3-.8-.3 0-.3.1 0 .4.1.3.1.3-.2.2-.3-.1-.5-.5-.5-1.2 0-.6 0-.7-.1-.3-.2.8-.6.7-.5-.2.1-.5.1-.6-.1-.3-.3.4-.4.3-.2-.4.1-.2.3-.3.5-.2.2 0 .2 0 0 0 0-.2-.2-.3-.4-.3s-.2-.1-.1-.3a.3.3 0 0 1 .3-.2l-.3-.3-.7-.4-.2-.4c0-.2-.2-.4-.4-.5-.2 0-.4-.3-.4-.6s-.1-.3-.3-.2c-.1 0-.2 0-.2-.3 0-.5 0-.5-.3-.1-.2.3-.3.2-.2-.2.1-.5 0-.6-.2-.5l-.3-.1c.3-.4 0-1.4-.4-1.2-.2.1-.1.3 0 .4.4.2.3.2 0 .2-.4 0-.5-.2-.5-.8 0-.5-.2-1-.4-1.3-.2-.1-.3-.4-.2-.5 0-.1 0-.3-.2-.4-.2-.1-.3 0-.1.1v.3c-.3 0-1-1-1-1.3-.1-.5-.8-1.3-1-1.2-.2.1-.4-.9-.3-1.6h-.2c-.2 0-.2.3-.2.4.1.1 0 .3-.2.3-.2.1-.3 0-.3-.3 0-.2-.1-.7-.4-1-.3-.4-.5-.7-.4-.8 0-.1-.1-.2-.4-.2-.3 0-.4.1-.3.4 0 .2-.2-.1-.5-.7s-.8-1.1-1-1.1-.4-.3-.6-.6c-.1-.3-.4-.4-.6-.3h-.1c0-.1-.1-.5-.5-.9-.3-.3-.6-.8-.4-1 0-.1 0-.2-.2 0-.1 0-.2.3-.1.6.1.4 0 .4-.1 0-.2-.2-.2-.4-.2-.5.1-.2 0-.3-.2-.3s-.2 0 0-.2c.4-.2.4-.3 0-.5l-.9-.2c-.7 0-.8-.3-.2-.5.4 0 .4 0 0-.1-.4 0-.8-.3-1-.6-.1-.3-.4-.5-.6-.5s-.4-.2-.4-.4-.3-.4-.6-.4c-.4 0-.5 0-.2-.4.2-.3.2-.4 0-.4-.1 0-.3 0-.2-.2 0-.5-.1-.6-.5-.3-.3.3-.4.3-.3 0 .2-.1 0-.3-.1-.3-.3 0-.3 0 0-.3.4-.2.4-.2 0-.1-.7.2-2.1-.7-1.8-1.2l.2-.6c0-.2 0 0-.2.1-.2.4-.4.4-1 .2-.3-.2-.6-.5-.7-.8 0-.3-.3-.4-.5-.3-.3.1-.5 0-.5-.2s0-.2-.4 0l-.3.2c0-.7-.1-1-.6-1s-.6-.2-.5-.9c0-.1-.8-.6-1.7-1-1.8-1-3-1.8-2.6-2.2h-.1c-.3.2-.8-.2-.8-.7 0-.2-.3-.3-.8-.3s-1-.2-1.2-.4c-.3-.2-.5-.2-.5-.1l-.3-.2c-.1-.3-.4-.4-.5-.4-.2.2-.4-.2-.3-.8l-.3.3c-.4.4-.5.4-.8.2-.2-.3-.2-.3 0-.3s.3-.1.2-.3c0-.1-.3-.2-.5 0-.2 0-.4 0-.4-.3 0-.2-.2-.2-.7-.2h-.6c0-.2-.3-.3-.7-.2l-1-.1c-.2-.2-.1-.2.3-.2.3 0 .6-.2.7-.3.2-.2 0-.3-.3-.2h-.7c-.3-.5-.7-.4-.5.1 0 .4 0 .4-.2 0-.2-.2-.5-.3-.7-.3h-.1l.3-.4c0-.3-.9-.2-1.3 0-.2.3-.3.2-.1-.1 0-.4 0-.5-.2-.3l-.3-.1c0-.2-.2-.3-.4-.3-.3 0-.4 0-.2.2.2 0 .4.2.4.4s-.2.2-.4 0c-.3-.3-1.5-.6-2.4-.7-.2 0-.4-.2-.4-.4 0-.3-.1-.3-.2 0-.1.2-.3.1-.5-.3-.3-.4-.5-.5-.7-.3-.2.2-.4.2-.8-.1-.4-.4-.4-.4-.8 0s-.5.3-1.2-.5c-.8-1-1.2-1.2-1.8-.5-.5.5-1 .5-.7-.1.1-.3 0-.4-.3-.2h-.4c.3-.3-.2-1-.7-1l.1.3c.4.3.4.3 0 .3-.3 0-.3 0 0 .3.3.1.3.2.1.2-.2 0-.4-.2-.5-.4 0-.2-.4-.4-.6-.4-.3 0-.5-.1-.5-.2l-.2-.3c-.6.1-1 0-.8-.2 0-.2 0-.2-.4-.1-.3 0-.4.2-.4.3.1.2-.4.2-1.2 0-.1 0-.2-.1-.2-.3 0-.3 0-.3.3 0 .4.4.7.4.7 0 0-.2-1.4-.8-1.7-.6 0 .1 0 .4.2.6.3.3.3.4 0 .2-.7-.5-1.4-.4-1.2 0 0 .4 0 .4-.2.2-.4-.4 0-1 .5-.7.3.1.3 0 .2-.2-.3-.4-.5-.3-1.2.3-.4.4-.5.4-.5.1 0-.4-.5-.4-1 0-.5.2-.4 0 0-.5.4-.4.4-.4 0-.4-.1 0-.4 0-.5.2 0 .2-.3.2-.4.2-.1-.1-.2-.3-.1-.4.1-.3-1-.2-1.2 0-.1.2-.5.1-.8 0-.5-.3-.6-.3-.4 0 .1.5 0 .5-.5 0-.4-.2-.6-.5-.5-.6 0-.1-.1-.1-.4 0-.3 0-.4 0-.2-.3.1-.4 0-.3-.6.1-.5.3-.7.7-.7.9l-.3-.2c-.4-.3-.6-.4-.8-.2-.1.2-.2.2-.5 0-.3-.3-.4-.2-.4 0 0 .3 0 .3-.3 0-.1-.2-.2-.3-.2-.1 0 .1-.2 0-.4-.3-.4-.5-.4-.5-.2 0 .1.5 0 .5-.3.2s-.4-.3-.3.2c.2.5.1.5-.5-.1-.4-.4-.8-.6-1-.6-.1.1-.2.3-.1.4 0 .1-.2.4-.5.5-.4.2-.7.2-.7 0 0 0 .1-.2.3-.2s.2-.1.2-.3c0-.3 0-.3-.3 0-.4.5-1 .4-1-.2 0-.4 0-.3-.5.2l-.6.4c-.1-.2-.6-.2-1-.2-.5 0-1-.1-1.1-.3-.2-.2-.4 0-.6.2-.3.4-.4.4-.5.2 0-.3-.1-.2-.2 0 0 .3-.1.5-.2.5s-.2-.2-.1-.4c.1-.4 0-.4-.5-.3l-1.4.4c-.6.1-.7 0-.6-.2.2-.2.1-.3-.1-.2-.2 0-.4.3-.3.4l-.5.3c-.3 0-.5-.1-.4-.2 0-.1 0-.2-.3-.2l-.9.2c-.3 0-.3 0 0 .2.6.4.1.6-.5.3-.5-.3-.6-.3-.4.1.1.4 0 .4-.2.3-.5-.4-1.8-.5-1.8-.2a.3.3 0 0 1-.3.3c-.1 0-.2-.1 0-.3 0-.2-.2 0-.6.3l-.7.7-.5-.7-.4-.4-.1.7c-.3.3-.3.3-.3 0s-.1-.2-.4.1l-.2.2c.1-.3 0-.3-.3-.2l-.4-.1c0-.2-.2-.2-.4 0s-.6.3-.8.2h-.5c-.1.2-.4.2-.7.1-.2 0-.6.1-.8.3-.2.3-.5.5-.8.5-.5 0-1.1.6-.8.9 0 .1 0 .1-.2 0-.3-.2-.3-.3 0-.6.2-.3.2-.4 0-.7-.2-.2-.3-.2-.2 0 0 .1-.1.5-.4.8-.5.4-.9.5-2.5.7-.7 0-1.3.6-.8.8l-.4.2c-.5.1-.7 0-.6-.2 0-.1 0-.4-.3-.4-.2-.1-.3 0-.2.3.1.5-.7.7-1 .2-.2-.2-.3-.2-.3 0s0 .3-.3.2c-.2-.2-.2 0-.1.2.1.3-.1.4-.9.6-.7 0-1 .3-1 .6s-.2.2-.3-.2c-.1-.4-.2-.5-.2-.2 0 .2-.2.4-.3.4-.5 0-.8 0-.7.3 0 .1-.2.2-.5.2s-.5.1-.5.3c0 .2-.2.2-.5.2l-.5.1c0 .2 0 .3-.2.2-.3-.2-2.5.8-2.7 1.2-.2.3-.2.3-.3 0 0-.2 0-.3-.2-.3s-.2 0-.2.2c.1.2 0 .3-.2.3s-.4.1-.4.3c0 .2-.2.1-.5-.1-.5-.5-1-.3-.7.4v.1c-.3-.3-1.3-.2-2 .2-.5.4-.8 1.2-.3.8.5-.2.4 0-.3.7-.4.5-.5.5-.4.2.1-.3 0-.5-.2-.5-.6 0-1.5.5-1.3.8 0 .1-.2.2-.6.1-.5 0-.8.1-.8.3 0 .3.1.3.4.1.3-.2.3-.2.2.1-.1.3-.5.5-1.1.5-.7 0-.8 0-.4.2.8.1.7.5-.1.4-.6-.1-.7 0-.4.1.5.4.3.4-.4.2-.2-.1-.3-.3-.2-.5.1-.2 0-.2 0 0-.2 0-.3.3-.3.4s-.1.2-.3.2a.3.3 0 0 1-.2-.4l-.3.3a2 2 0 0 0-.4.7l-.4.2c-.2 0-.4.2-.5.4a.7.7 0 0 1-.6.4c-.2 0-.3.1-.2.3 0 .1 0 .2-.3.3-.4 0-.5 0-.1.2.3.3.3.3-.2.2-.5-.1-.6 0-.5.2 0 .3 0 .4-.1.3-.4-.3-1.4.1-1.2.4.1.2.3.2.4 0 .2-.3.3-.3.3 0 0 .4-.3.5-1 .5-.4 0-1 .2-1.2.4s-.4.3-.5.3c-.1-.1-.3 0-.4.1-.1.2 0 .3.1.1h.3c0 .3-1 1-1.3 1-.5.2-1.3.8-1.2 1 .1.2-.9.4-1.5.3-.2 0-.2 0 0 .2 0 .2.2.3.3.2.1-.1.3 0 .4.2 0 .2 0 .4-.3.3-.3 0-.8.2-1.1.4-.4.3-.7.5-.8.4-.1 0-.2.1-.2.4 0 .3.2.4.4.3.2 0 0 .2-.7.5-.6.4-1.1.8-1.1 1l-.6.6c-.3.1-.4.4-.3.6v.1c-.1 0-.5.1-.9.5-.3.4-.7.6-1 .5-.1-.1-.1-.1 0 0 0 .2.3.3.6.2.4-.1.4 0 0 .1-.1.2-.4.3-.5.2-.1 0-.2 0-.2.2 0 .3-.1.2-.3 0-.2-.4-.3-.4-.5 0l-.2 1c.1.6-.3.8-.4 0-.1-.3-.2-.2-.2.2 0 .3-.3.7-.6.9s-.5.4-.5.6a.4.4 0 0 1-.4.4c-.2 0-.4.3-.4.6 0 .5 0 .5-.4.2-.2-.2-.4-.2-.4 0s0 .3-.2.3c-.5-.1-.6 0-.3.4.3.3.3.4 0 .3-.1-.1-.3 0-.3.1 0 .3 0 .3-.3 0-.2-.4-.2-.3 0 0 .1.7-.8 2.1-1.3 1.8l-.6-.2c-.2 0 0 .1.2.2.3.3.3.4 0 1 0 .3-.4.6-.7.7-.3 0-.4.3-.3.6.1.2 0 .4-.1.4-.3 0-.3 0 0 .4.2.2.2.4 0 .4-.5-.2-.8 0-.8.5s-.3.6-1 .6c-.2 0-1.8 3-1.6 3.2l-.4.6c-.3.3-.4.6-.3.7.3.3-.3.2-.7-.1-.3-.3-.3-.3 0 0 .1.3.2.6 0 .7 0 0 0 .3.3.4.3.2.3.2-.1.2-.5 0-.6.6-.1.6.2 0 .2 0 0 .2-.2 0-.3.2-.2.4.1.1 0 .1-.4 0-.7-.5-1 0-1 1.6.1.7 0 1.2-.1 1-.4-.2-1 .5-.9 1 .1.2.1.3 0 .2-.2-.1-.6 0-.8.4l-.3.4c.2 0 .5.1.7.4.3.5.3.5 0 .3l-.8-.4c-.3 0-.3.1 0 .3.5.3.5.3-.4 1.4-.2.2-.3.5-.2.8 0 .2 0 .4-.2.3-.7-.4-1.4.8-.7 1.3.2.1.2.2 0 .2s-.3 0-.2.2c0 .2 0 .3-.3.3s-.4.2-.4.4.1.4.3.3l.4.1c.1.2 0 .3-.1.1-.2 0-.3 0-.3.2s-.2.2-.3 0c-.2 0-.3 0-.1.2.2.4-.1 1.4-.4 1.2l-.3.1c0 .2-.1.3-.3.2-.3-.2-.3-.2 0 .1.4.5.4.9 0 .7-.2-.2-.2 0 0 .3 0 .4 0 .7-.4.9-.4.2-.4.2 0 .1.3 0 .4 0 .3.3l-.4.4c-.1 0-.2 0-.2.2 0 .4 0 .8-.3.7-.3-.2-.1.8.2 1.3.3.3.3.4 0 .4s-.4-.1-.3-.3c.1-.3 0-.3-.1 0-.4.3-.1 1.2.3 1l-.3.3c-.3.3-.6.7-.6.9 0 .1 0 .2-.2.1l-.3.6c0 .7 0 .7.4.2.2-.3.2 0-.1.5-.5.8-.5 1-.3 1.4.2.2.2.3 0 .3-.3 0-.3.1 0 .4.2.4.2.4-.1.4-.3 0-.5.1-.5.3s0 .2-.2.1c-.2 0-.2 0-.1.3s0 .4-.1.3c-.2-.1-.2 0-.1.5 0 .4 0 .6-.2.6s-.3.2-.3.3.1.2.2.1c.2 0 .3 0 .3.2l.4 1c.1.2 0 .2-.3.1s-.4 0-.2.2c.1.2 0 .3-.1.1-.2 0-.3-.2-.2-.3l-.1-.6c-.2-.3-.2-.1-.2.5s0 .8-.3.8-.3 0 0 .4c.3.2.5.5.4.6v.5c.2 0 .3.7.2 1.4a23.3 23.3 0 0 0-.2 2.5c0 .7 0 1.2-.2 1.2-.3 0-.3.8 0 .9.2 0 .2.3 0 .7-.2.6-.2.6-.2.2 0-.5-.1-.5-.3-.2v1.2c.2.6.2.8-.1 1-.4.2-.4 1.2 0 1 .2 0 .4.1.4.3l-.3.2c-.4 0-.3 1.8 0 2 .2.2.2.3 0 .4-.3.2-.3.3.1.3s.5 0 .2.2c-.2.1-.4.6-.5 1 0 .4-.2.8-.4.9-.2 0-.2.1 0 .2.3.2.5 1 .7 2.1 0 .2-.2.5-.4.5-.3.1-.3.1 0-.2.4-.2.4-.3 0-.2-.3.1-.4.4-.3 1.3 0 .2.2.2.3.1.1 0 .3 0 .4.3 0 .2 0 .4-.4.5l-.4-.1c.1-.2 0-.2-.2-.1-.6.2-.2.9.3.7.4-.1.3 0 0 .3l-.3.3c.3-.2.4 0 .3.5-.3 1.3-.5 1.7-.8 1.6-.2-.1-.2-.1 0 0 0 .3.2.3.4.2 0 0 .2 0 .2.2s.1.2.3.1c.1 0 .2-.3 0-.4 0-.2 0-.2.2-.1s.2.3 0 .5v1.2c.2.5.2 1 .1 1 0 .2 0 .4.2.5.2 0 .2.3.2.5-.1.2 0 .4.1.5.2 0 .2.3-.2.6s-.4.4 0 .3c.3-.1.4 0 .5.6 0 .4 0 1-.2 1.2-.1.3-.1.4.1.3.2-.2.3 0 .2.4-.2.8 0 1 .6.4.3-.3.3-.3 0 0-.1.3-.2.6 0 .7l-.5.9c-.4.3-.5.6-.3.5s.5 0 .7.2c.5.5.5 1.3 0 1-.2-.1-.2 0 0 .3l.7.3c.2-.1.2 0 .1.1-.1.2-.3.2-.4.2-.1-.1-.3 0-.4.1-.2.2-.1.3.1.1.3-.1.3 0 .2.3-.2.5 0 .5.6 0 .3-.2.3-.2 0 .1a1 1 0 0 0 0 1c.1.3.2.3.3.1 0-.2 0-.3.1-.2v.8c-.4.6.1 1.7.6 1.3l-.2.2c-.1.3-.3.7-.2 1 0 .5.8 1.1 1 1 .2-.1.2 0 0 .3-.2.4-.2.6 0 .9.3.3.3.3 0 0-.4-.3-.5-.3-.5.2 0 .3.3.6.5.6s.3 0 .2.2c-.1 0 0 .3.4.5.3.2.4.3.1.2-.5-.1-.5 0-.3.9l.4.6c.2 0 .2-.2.1-.4-.1-.1 0-.2.1 0 .2 0 .2.3.1.5 0 .4 0 .4.2.2h.2v1c.2.5.2.8-.1 1.2-.3.3-.3.4-.1.2.3-.1.3 0 .2.4 0 .3 0 .5.1.4.2 0 .4 0 .7.2.3.3.3.4 0 1l-.5.7.6-.6.6-.5-.2.6c-.1.4-.1.6.1.5.2 0 .4 0 .4.2l.2.6c.1.2.1.4 0 .4-.2 0-.3 0-.3.2s.1.2.4.1c.2 0 .4 0 .4.2s-.2.3-.3.3-.3.2-.3.4c0 .4.1.4.4.1.3-.3 1-.4 1 0 0 .1-.2.2-.5 0-.3 0-.4 0-.2.3l.3.6.6.4.4.2c-.4 0-.4 1 0 1.3.1.1.1 0 0-.2s-.1-.3 0-.2c.1.1.4 0 .7-.1.3-.3.3-.3 0 .1-.2.3-.3.7-.2 1 .1.1 0 .3 0 .2-.2-.1-.3 0-.3.2s0 .5.3.6c.1.1.2 0 0-.1 0-.2 0-.3.3-.3.2 0 .3.1.2.5-.1.5 0 .5.2.4.3-.2.3-.1.1.1-.3.6-.4 1.1 0 1a.3.3 0 0 0 0-.5c0-.1 0-.2.2-.2.3 0 .3.3-.2 1-.3.5-.3.5 0 .4.3-.1.4 0 .4.3 0 .2.2.3.6.3l.4.1v.3l.2.6c-.1.4 0 .7.1.7.2 0 .3.2.3.4l.3.5c.2.2.3.1.1-.1-.1-.3 0-.3.1-.2.2.1.3.4.2.7 0 .3 0 .5.3.4.3 0 .5.2.6.5 0 .3 0 .4-.2.3-.2-.1-.2 0-.1.3 0 .2.2.3.3.2.3-.5.8-.3.6.2-.1.4 0 .5.2.4.3-.2.3-.1.2.2-.1.2 0 .4 0 .4.2 0 .2.2.2.4-.1.2 0 .4 0 .4.5-.2 1.4.3 1.3.7 0 .2.1.6.4.9.3.3.6.6.6.8s.3.5.7.8c.6.5.7.7.5.9-.2.1 0 .1.4 0 .4 0 .6 0 .6.3 0 .2 0 .3-.2.2-.5-.3-.1.3.5.7.3.3.6.8.6 1.2 0 .4.2.7.3.7.2 0 .2 0 .1.2 0 .1.2.2.5.2s.6 0 .5.3c0 .2.1.3.3.2.2 0 .3.2.2.6 0 .3 0 .5.2.4.2 0 .3 0 .3.4s0 .4.2 0c0-.3.2-.5.3-.5.3 0 1 1.9.9 2.2 0 .2.2 0 .6-.2l.8-.5-.7.8-.2.4c.4-.3.6-.3 1 .1.1.3.3.4.2.2-.1-.2 0-.4.1-.5.2-.1.3-.1.2 0v.6c.3.2.2.4 0 .7-.4.3-.4.5-.2.6.2 0 .4 0 .5-.2.2-.3.3-.3.3 0 0 .2 0 .3.2.2.1 0 .3 0 .4.2 0 .3.4.4.8.4h.6l-.7.5c-.7.3-.7.3 0 .2.4-.1.5-.1.4.1-.1.3.2.4.7.3v.5c0 .3-.2.5-.4.4-.2-.1-.2-.1 0 0 0 .2.2.3.3.3.7.2 1.4.5 1.4.7 0 .1.1.2.3.2s.2-.1 0-.3c0-.2 0-.2.2-.1.1 0 .2.3.1.5 0 .3 0 .4.2.4.1 0 .2.1.1.3 0 .1.1.3.4.4.3 0 .5.3.4.4 0 .2 0 .3.4.3s.5 0 .5.3c0 .1.3.2.6.1.3 0 .5 0 .5.2 0 .3.1.4.3.4s.2-.1 0-.3v-.2c.1 0 .2.2.1.3l.4.6c.3.4.3.5 0 .2-.5-.4-1-.4-.5 0 .6.6 1.6.9 1.4.4v-.1l.6.2c.2 0 .3.1.3.3s.2.2.3 0c.3-.1.4.3.1.5-.3.3-1 0-.7-.4 0-.1 0-.2-.2 0-.6.4.5 1 1.2.6.5-.3.5-.3 0 .4-.4.7-.4.7.2.4h1c.3.3.3.3-.1.2-.3-.1-.4 0-.3.1.1.2.4.2.7.2.4-.1.5 0 .4.3 0 .3 0 .5.2.5s.3-.1.2-.3c0 0 .1-.2.3-.2.3 0 .4.2.4.3 0 .2 0 .4.3.4.2 0 .4.3.5.6 0 .3.2.6.3.6s.2-.2 0-.5c0-.4 0-.4.3-.1.2.2.5.2.6.1.1-.1.2 0 0 .3 0 .3 0 .4.3.3.3-.1.4 0 .3.3 0 .2.1.5.3.6.3 0 .3 0 .2-.3l.1-.5c.2 0 .3.2.3.3s.1.2.3.1c.2-.1.2 0 .1 0-.2.5.8 1.3 1.2 1.1.1 0 .2-.3 0-.5 0-.2 0-.2.1 0 .2 0 .3.4.3.6s.5 1 1.1 1.4c1.1.9 1.2 1 1.6.5.3-.4.3-.4.1 0-.1.5 0 .5.2.4.3-.2.3-.1.2.3-.2.5-.2.5.2 0 .5-.7 1.3-.4 1 .4-.1.4 0 .5.4.2.3-.2.5-.5.4-.6-.1-.2 0-.2.3 0 .5.4.5.6.2.5-.2 0-.3 0-.3.2s.2.3.3.2c.1 0 .2 0 .1.2l.1.4h.3c0-.2.2-.3.4-.2.3.1.4 0 .2-.2 0-.2.2 0 .6.2l.8.6v-.6l.2.4c.3.6.4.7.4.4 0-.4 0-.5.2-.2a.6.6 0 0 0 .6.2h.2s0 .3.2.5c.4.5.8.5.5 0l.4.1c.4.2.8.3 1.1.2h.5c0 .5 0 .9.3.9.2 0 .2-.2.1-.3-.2-.3.8.2 1.5.8.3.2.6.2.8.1.2-.1.3 0 .1.2-.1.2 0 .3.2.2.2 0 .8.1 1.4.4.7.4 1 .4 1.1.2.1-.2.3-.2.5.1l.3.3c-.1-.1.2-.3.6-.3.4 0 .7 0 .6.2v.2c.1 0 .4 0 .6.2.4.1.4 0 .3-.2-.2-.3-.1-.3.4 0 .4.2.6.2.8 0 0-.2.2-.2.3 0 .1 0 0 .3-.2.4-.6.2-.3.6.3.5.3 0 .7.1 1 .4.5.4.5.4.1-.2-.3-.7-.3-.7.1-.3.3.2.5.2.5.1l.4.2c.4.3.4.3.2 0-.2-.4-.1-.4.2-.1.4.3.5.3.6 0 0-.2.1-.1.1.2 0 .5 0 .5.5 0 .3-.5.4-.5.4 0v.7c0 .4.2.2.9-.5l.6-.7.7.6c.4.4.7.5.6.3s-.1-.3 0-.3.3.1.3.3c0 .3 1.3.2 1.8-.1.3-.2.3-.1.2.2-.2.4-.1.4.4.2.3-.2.6-.2.7 0 0 0 0 .2-.2.3-.2 0-.2.2.1.2h.8c.2.1.6 0 .8-.1.4-.2.5-.2.3 0 0 .2.1.4.4.6.4.2.6.2.7 0 .1-.2 0-.3 0-.2h-.5c0-.1.3-.2.9-.2 1 0 1 0 .6.4-.4.3-.4.3.2.1.3 0 .7-.3.8-.5.2-.2.2-.1.2.1 0 .3.1.3.2 0 .1-.2.2-.1.5.2.2.3.5.4.6.2.2-.2 3-.4 3-.1-.1.4 0 .5.2.4.2 0 .2-.3.1-.4zM171 195l.1-.4.3.4-.1.4c-.2 0-.3-.2-.3-.4zm37.7-1.2c.6-.6.7-.7.5-.2 0 .2-.3.5-.5.6-.4.1-.4 0 0-.4zm-47.3-.8c-.5-.2-.5-.2-.1-.2.2 0 .5 0 .6.2.2.3.2.3-.5 0zm65.7-5.8c0-.4.8-.6 1-.2 0 .1 0 .2-.2 0-.1 0-.3 0-.3.2 0 .1 0 .2-.2.2s-.3 0-.3-.2zm-81.7-.8c-.2-.3-.5-.5-.7-.5-.2 0-.3-.2-.2-.4 0-.3.2-.3.7.3l.8 1c.2 0 .2.1 0 .1s-.5-.2-.6-.5zm95.3-7.8c.1-.2.3-.3.4-.3.2.2-.2.7-.5.7-.2 0-.1-.2 0-.4zm2.2-1.7c-.1-.1 0-.3.2-.4.3 0 .3 0 .2.2-.1.5-.2.5-.4.2zm3.2-2.7c.2-.2.4-.3.5-.2 0 0-.1.2-.4.3-.3.2-.4.1-.1-.1zm-118.3-.2c-.1-.2 0-.3 0-.4.2 0 .3 0 .3.2 0 .5-.1.5-.3.2zm-6.8-7.5c0-.1.1-.2.3-.2.1 0 .2.1.1.2 0 .2-.2.3-.3.3v-.3zm138.1-6.3c-.2-.2-.2-.3 0-.3a.6.6 0 0 1 .4.3c.2.3.1.3-.4 0zm2.7-3.8c.3-.4.6-.7.7-.6 0 0 0 .3-.3.6-.2.2-.4.5-.3.6 0 .1 0 .2-.3.2-.2 0-.2-.2.2-.8zm7.6-13.7.3-.4c.2 0 .2 0 .1.3-.2.4-.4.5-.4.1zm5.2-16.8c0-.5.4-.8.4-.3l-.2.6c-.2 0-.3 0-.2-.3zm-174.7-1.7c0-.4 0-.5.1-.3v.6l-.1-.3zm-.3-38.2c0-.2 0-.5.2-.5.1-.1.2 0 .2.2 0 .6-.4.8-.4.3zm174.7-4.4c-.4-.4-.4-.5 0-.4.2.1.5.4.5.6.2.5.1.4-.5-.2zM104.7 69.2c0-.3.2-.4.3-.3 0 0 0 .3-.2.4-.3.3-.3.3-.1-.1zm162.7-6.1.1-.6c.2-.1.3 0 .1.1l.1.3c.2 0 .3.1.3.3 0 .4-.4.3-.6-.1zm-155.5-7.2.4-.6c.2-.2.4-.4.3-.6 0 0 0-.2.2-.2.3 0 .3.2-.1.8-.5.7-.8 1-.8.6zm3-4.3c0-.2 0-.2.3-.2.5.2.6.4.2.4l-.4-.2zm144.2-1.8c-.2-.2-.2-.4-.1-.4.3 0 .7.5.5.7 0 0-.2 0-.4-.3zm-2-2.3c-.1-.3 0-.4.2-.3.2.1.3.3.3.4-.3.3-.3.3-.5-.1zm-2.5-3.1V44s.2 0 .3.3c.2.4 0 .5-.3 0zm-126.8-6.7.4-.3c.2 0 .3 0 .2.1-.1.3-.6.4-.6.2zM131 35c.1-.2.3-.3.4-.2.3.2.3.3-.1.4-.3.1-.4 0-.3-.2zm2.2-1.7c0-.3.5-.7.7-.5 0 0 0 .2-.3.4-.2.2-.4.3-.4.1zm107.2-1.8c0-.2.1-.4.3-.5.1 0 .2 0 0 .3-.1.5-.3.5-.3.2zm-3.6-2.8c-.4-.4-.7-.7-.5-.7l.6.4.6.3s.2 0 .2.2v.4l-.9-.6zm-4.6-3.5.4-.2h.3c-.2.3-.7.5-.7.2zm-85.9-.4c-.1-.2 0-.2.1-.1l.3-.1.3-.3c.4 0 .3.4-.1.6-.2.1-.5 0-.6-.1zm82.8-.5v-.4c0-.1.2 0 .3.3.2.4 0 .5-.3 0zm-47.4-9c0-.1 0-.3.2-.4.2 0 .2 0 .1.3-.1.4-.3.5-.3.1zm14 180.8c.3-.4.3-.5 0-.1-.3.2-.7.2-.8.1-.2-.1-.3 0-.2.1.3.5.6.4 1-.1zm-23.5-.8c.1-.2 0-.3 0-.2-.2 0-.3.3-.3.4 0 .4.2.3.3-.2zm31.3-.3-.1-.3c-.2 0-.3.1-.4.3-.1.1 0 .2 0 .2l.5-.2zm-54.1-1c0-.2-.1-.4-.3-.4-.1 0-.2.2 0 .4l.2.4v-.4zm67.8-1.7c.1-.1 0-.3 0-.4-.2 0-.3 0-.3.3 0 .4.1.5.3.1zm-73.6-2c0-.2-.2-.3-.3-.2-.4.2-.3.5.1.5.2 0 .3-.1.2-.3zm8.7.2c0-.2-.1-.3-.3-.3-.1 0-.2.1-.1.3l.3.2.1-.2zm-11.5-1.4-.4-.2c-.1 0-.3 0-.3.2s.2.3.4.3.4-.1.3-.3zm7.4-1-.1-.3c-.1 0-.3.1-.3.3l.1.2c.1 0 .2 0 .3-.2zm91.3-2c-.1-.2-.3 0-.5 0-.2.3-.2.4.2.2.2 0 .4-.2.3-.3zm-3.2-3c0-.1 0-.2-.3-.2-.2 0-.3 0-.2.2l.2.2s.2 0 .3-.2zm12-9.8c0-.2-.1-.2-.4-.1l-.4.2.4.1c.2 0 .4 0 .4-.2zm2.3-2.5c0-.3 0-.4-.2-.3a.5.5 0 0 0-.2.4c0 .1 0 .2.2.2.1 0 .2-.1.2-.3zm-136.6-11.9c-.2-.2-.3-.2-.3 0 0 .3.3.6.5.5 0-.1 0-.3-.2-.5zm147-.5c-.1-.2-.2-.2-.2.1 0 .3 0 .5.1.4v-.5zm-153.2-.7-.4-.5c-.2.2.3 1 .5 1l-.1-.5zm1.5-5.5-.1-.4-.4.4.1.4.4-.4zm166.1-10.8c.1-.3 0-.3-.2-.2-.2 0-.3.2-.2.3.2.4.3.3.4-.1zM102.8 137c0-.3-.1-.2-.1.1 0 .3 0 .5.1.4v-.5zm-1.5-5c0-.4-.4-.5-.7-.1-.2.2-.2.3.2.3.3 0 .5-.2.5-.3zm173-.4h-.5l.2.1c.2 0 .4 0 .3-.1zm5.3-2c.3-.1.3-.2 0-.4-.3 0-.4 0-.3.1 0 .1 0 .3-.2.4-.2 0-.2.1 0 .1 0 0 .3 0 .5-.2zm.5-3.3h-.5l.2.1c.3 0 .4 0 .3-.1zm-181.3-3.8s-.3 0-.4.2c-.3.2-.3.3.1.1.3 0 .4-.2.3-.3zm177.5-1.1c0-.3-.2-.5-.3-.4-.1.1.2 1 .3 1v-.6zm-183.8-6.5H92c-.2 0-.1.1.2.1.3 0 .4 0 .3-.1zM277 100.2a.3.3 0 0 0-.4 0 .3.3 0 0 0-.1.3.3.3 0 0 0 .5-.3zm.3-.8-.5-.2c-.2 0-.2 0 0 .2 0 .2.2.3.4.3.1 0 .2-.1 0-.3zm-.6-4.7c-.4-.4-.4-.4-.1 0 .2.3.2.6.1.8-.1.3-.1.3.2 0 .3-.2.3-.4-.2-.8zm5-4.1-.5-.3c-.2 0-.3 0-.2.1.1.3.6.4.6.2zm-6.1-3.7c-.2-.1-.3-.2-.3 0 0 .4.3.7.5.5 0 0 0-.3-.2-.5zM94.9 85.5h-.5c-.2 0-.1.1.2.2.3 0 .4 0 .3-.2zm.2-3c0-.1 0-.3.2-.3l.2-.1h-.6c-.4.2-.4.3-.1.4.4.3.5.3.3 0zm5.6-2.3h-.5c-.2 0-.1.2.2.2.3 0 .4 0 .3-.2zm172.4-6.9c0-.2-.6-.3-.7-.1 0 .1 0 .2.3.2h.4zM99.5 70.5c0-.4-.5-.4-.6 0-.1.2 0 .3.2.2l.4-.2zm164.2-16-.1-.4c-.1 0-.2 0-.2.2 0 .5 0 .5.2.2zM113.3 53c0-.2-.1-.2-.1.1 0 .3 0 .5.1.4V53zm153.4-2c0-.2-.2-.3-.3-.2v.4c.3.4.5.3.3-.2zM254 42.4l-.2-.4c-.2 0-.2.2-.2.4l.3.4.1-.4zM124.1 41c0-.2-.1-.3-.2-.3s-.2.2-.2.4 0 .3.2.2a.5.5 0 0 0 .2-.3zm127.5-1c0-.2-.1-.3-.4-.3s-.3.1-.2.3l.4.2c.2 0 .2-.1.2-.2zm-124.8-1.6h-.4c-.3 0-.4 0-.4.2 0 .1.1.2.4 0 .2 0 .3-.1.3-.2zm112.6-9h-.5c-.2 0-.2.2.1.2.3 0 .5 0 .4-.2zM138.7 29c0-.2-.6-.3-.7-.2 0 .2 0 .3.3.3l.4-.1zm-3.4-3.3c.1-.1 0-.2-.2 0-.5 0-.5.3-.2.3.2 0 .4-.1.4-.3zm94.2-7.1a.6.6 0 0 0-.4-.3c-.2 0-.2.1 0 .3.6.3.6.3.4 0zM168 16.4c0-.3 0-.3-.2-.1l-.6.4c-.2.1-.2.2.1.1.3 0 .6-.2.7-.4zm55 .1s-.1-.2-.3-.2h-.3c.2.3.7.4.7.2zm-67-1.2-.1-.3-.3.3.1.3.3-.3zm55.6-3.4c-.1-.2-.3-.3-.5-.3s-.2.1-.2.3l.4.2c.2 0 .3 0 .3-.2zm-7-1.4-.3-.2c-.1 0-.2 0-.2.2l.3.3.1-.3zm-7.9-.2V10s-.4.1-.4.3c0 .1 0 .2.2.2l.2-.2zm-12.6 191.9a.7.7 0 0 1-.2-.5c0-.1 0-.1.2 0 0 0 .3 0 .5-.2.5-.4.5 0 0 .5-.2.2-.4.3-.5.2zm1.3 0v-.5c.2 0 .3 0 .3.3 0 .4-.1.5-.3.1zm15.3-1c0-.2 0-.3.2-.3.1.1.1.3 0 .4-.2.4-.2.3-.2-.1zm6-1.2.4-.3v.3c0 .1 0 .2-.2.2-.1 0-.2 0-.1-.2zm6-1c0-.2.2-.3.4-.3h.4c0 .1-.1.2-.4.3-.2.1-.4 0-.4 0zm-.8-.4c0-.1.2-.2.3 0 .2 0 .3.1.3.2l-.3.1c-.2 0-.3-.1-.3-.3zm13.7-4.4c-.1-.2 0-.3 0-.4.2 0 .3 0 .3.2 0 .5-.1.5-.3.2zm-98.7-14 .4-.3c.2 0 .2.1 0 .4l-.4.4v-.4zm-1.4-1.3c0-.3 0-.3.1-.1v.5c-.1 0-.2-.1-.2-.4zm127-3.2c0-.1.1-.2.3-.2.2 0 .3 0 .3.2l-.3.2-.2-.2zm7.7-8.8c0-.1 0-.2.3 0 .4 0 .5.3.1.3l-.4-.3zm-147-.5c0-.2.2-.3.3-.3s.2.1.2.3l-.3.2-.1-.2zM97 136.6c-.7-.4-.7-.4-.1-.4.3 0 .6.2.7.4 0 .2.1.4 0 .4a36.2 36.2 0 0 1-.6-.4zm-3.5-13.3c0-.2.1-.4.3-.4.1-.1.2 0 0 .2-.1.5-.3.5-.3.2zm187.5-2.1c0-.1 0-.2.2-.2s.3 0 .3.2l-.3.2-.2-.2zm1-13a.3.3 0 0 1 .1-.4c.2 0 .3 0 .4.2.2.5-.2.6-.5.2zm.2-1.8v-.5c-.5-.5-.1-.5.4 0 .3.4.2.7-.3.7-.1 0-.2 0 0-.2zm0-1.4c0-.1.1-.3.4-.3.2 0 .3.2.2.3l-.2.3-.3-.3zm-189-14.3c0-.2.2-.2.3-.1.4.2.3.3-.1.3-.2 0-.3-.1-.3-.2zm188.3-1.1c.1-.1.3-.2.4 0 .4.1.3.2-.1.2-.2 0-.4 0-.3-.2zm-1-6c-.2-.2-.1-.3 0-.3s.3.1.3.3v.2s-.3 0-.4-.2zm-1.4-5.3.3-.3.1.3c0 .2-.1.2-.3.2s-.2 0 0-.2zm.1-1 .1-.4.3.4-.1.4c-.1 0-.3-.1-.3-.4zm-4.8-12.5c-.1-.1 0-.2.2-.2s.3.1.2.2l-.2.2s-.2 0-.2-.2zM113.8 45c-.3-.1-.3-.2-.1-.2a.6.6 0 0 1 .5.2c.2.4 0 .4-.4 0zm142.1-7.2c0-.2.1-.4.3-.3 0 .1.1.3 0 .4-.2.4-.3.3-.3-.1zm-134.6-1.5c.1-.2.3-.2.4-.1.4.2.3.3-.1.3-.2 0-.3-.1-.3-.2zm126-6.2c0-.2.2-.4.3-.3 0 0 0 .3-.2.5s-.3.2-.1-.2zm-98.8-12.2c0-.2.1-.3.2-.2.2 0 .2.2.1.4-.2.3-.3.3-.3-.2zm53.8-7.5V10s.4.1.4.3l-.1.2c-.1 0-.2 0-.3-.2zm-11.2-1c0-.5 1-.9 1.5-.6.4.2.4.3 0 .2-.8 0-1.3 0-1.4.4 0 .2 0 .2 0 0z" fill="#fff"/></svg>